solid OpenSCAD_Model
  facet normal -0.233649 0.972321 0
    outer loop
      vertex 1.26535 104.982 0
      vertex 1.03647 104.927 4
      vertex 1.26535 104.982 4
    endloop
  endfacet
  facet normal -0.233649 0.972321 0
    outer loop
      vertex 1.03647 104.927 4
      vertex 1.26535 104.982 0
      vertex 1.03647 104.927 0
    endloop
  endfacet
  facet normal 0.996926 0.0783541 0
    outer loop
      vertex 10 103.5 4
      vertex 9.98153 103.735 0
      vertex 9.98153 103.735 4
    endloop
  endfacet
  facet normal 0.996926 0.0783541 0
    outer loop
      vertex 9.98153 103.735 0
      vertex 10 103.5 4
      vertex 10 103.5 0
    endloop
  endfacet
  facet normal 1 -0 0
    outer loop
      vertex 10 4.24978 4
      vertex 10 103.5 0
      vertex 10 103.5 4
    endloop
  endfacet
  facet normal 1 0 0
    outer loop
      vertex 10 103.5 0
      vertex 10 4.24978 4
      vertex 10 4.24978 0
    endloop
  endfacet
  facet normal 0.0764853 0.997071 -0
    outer loop
      vertex 8.73465 104.982 0
      vertex 8.5 105 4
      vertex 8.73465 104.982 4
    endloop
  endfacet
  facet normal 0.0764853 0.997071 0
    outer loop
      vertex 8.5 105 4
      vertex 8.73465 104.982 0
      vertex 8.5 105 0
    endloop
  endfacet
  facet normal -0.0764853 0.997071 0
    outer loop
      vertex 1.5 105 0
      vertex 1.26535 104.982 4
      vertex 1.5 105 4
    endloop
  endfacet
  facet normal -0.0764853 0.997071 0
    outer loop
      vertex 1.26535 104.982 4
      vertex 1.5 105 0
      vertex 1.26535 104.982 0
    endloop
  endfacet
  facet normal 0 1 0
    outer loop
      vertex 8.5 105 4
      vertex 7.65 105 2.5
      vertex 1.5 105 4
    endloop
  endfacet
  facet normal 0 1 -0
    outer loop
      vertex 8.5 105 0
      vertex 7.65 105 2.5
      vertex 8.5 105 4
    endloop
  endfacet
  facet normal 0 1 0
    outer loop
      vertex 7.65 105 2.5
      vertex 8.5 105 0
      vertex 7.65 105 0
    endloop
  endfacet
  facet normal 0 1 -0
    outer loop
      vertex 2.35 105 2.5
      vertex 1.5 105 4
      vertex 7.65 105 2.5
    endloop
  endfacet
  facet normal 0 1 0
    outer loop
      vertex 1.5 105 0
      vertex 2.35 105 2.5
      vertex 2.35 105 0
    endloop
  endfacet
  facet normal 0 1 0
    outer loop
      vertex 2.35 105 2.5
      vertex 1.5 105 0
      vertex 1.5 105 4
    endloop
  endfacet
  facet normal 0.382397 0.923998 -0
    outer loop
      vertex 9.18099 104.837 0
      vertex 8.96352 104.927 4
      vertex 9.18099 104.837 4
    endloop
  endfacet
  facet normal 0.382397 0.923998 0
    outer loop
      vertex 8.96352 104.927 4
      vertex 9.18099 104.837 0
      vertex 8.96352 104.927 0
    endloop
  endfacet
  facet normal -0.760436 0.649413 0
    outer loop
      vertex 0.286474 104.382 0
      vertex 0.43934 104.561 4
      vertex 0.43934 104.561 0
    endloop
  endfacet
  facet normal -0.760436 0.649413 0
    outer loop
      vertex 0.43934 104.561 4
      vertex 0.286474 104.382 0
      vertex 0.286474 104.382 4
    endloop
  endfacet
  facet normal 0.972397 0.233333 0
    outer loop
      vertex 9.98153 103.735 4
      vertex 9.92658 103.964 0
      vertex 9.92658 103.964 4
    endloop
  endfacet
  facet normal 0.972397 0.233333 0
    outer loop
      vertex 9.92658 103.964 0
      vertex 9.98153 103.735 4
      vertex 9.98153 103.735 0
    endloop
  endfacet
  facet normal -1 0 0
    outer loop
      vertex 0 4.24978 0
      vertex 0 103.5 4
      vertex 0 103.5 0
    endloop
  endfacet
  facet normal -1 -0 0
    outer loop
      vertex 0 103.5 4
      vertex 0 4.24978 0
      vertex 0 4.24978 4
    endloop
  endfacet
  facet normal -0.996927 0.078341 0
    outer loop
      vertex 0 103.5 0
      vertex 0.0184669 103.735 4
      vertex 0.0184669 103.735 0
    endloop
  endfacet
  facet normal -0.996927 0.078341 0
    outer loop
      vertex 0.0184669 103.735 4
      vertex 0 103.5 0
      vertex 0 103.5 4
    endloop
  endfacet
  facet normal 0 0 1
    outer loop
      vertex 8.5 105 4
      vertex 10 103.5 4
      vertex 9.98153 103.735 4
    endloop
  endfacet
  facet normal 0 0 1
    outer loop
      vertex 13.3817 1.71352 4
      vertex 14 0.5 4
      vertex 13.9815 0.734652 4
    endloop
  endfacet
  facet normal 0 0 1
    outer loop
      vertex 14 0.5 4
      vertex 12.5 -3 4
      vertex 14 -1.5 4
    endloop
  endfacet
  facet normal 0 0 1
    outer loop
      vertex 13.3817 1.71352 4
      vertex 13.9815 0.734652 4
      vertex 13.9266 0.963525 4
    endloop
  endfacet
  facet normal 0 0 1
    outer loop
      vertex 14 -1.5 4
      vertex 12.5 -3 4
      vertex 13.9815 -1.73465 4
    endloop
  endfacet
  facet normal 0 0 1
    outer loop
      vertex 13.3817 1.71352 4
      vertex 13.9266 0.963525 4
      vertex 13.8365 1.18099 4
    endloop
  endfacet
  facet normal 0 0 1
    outer loop
      vertex 13.9815 -1.73465 4
      vertex 12.5 -3 4
      vertex 13.9266 -1.96352 4
    endloop
  endfacet
  facet normal 0 0 1
    outer loop
      vertex 13.3817 1.71352 4
      vertex 13.8365 1.18099 4
      vertex 13.7135 1.38168 4
    endloop
  endfacet
  facet normal 0 0 1
    outer loop
      vertex 13.9266 -1.96352 4
      vertex 12.5 -3 4
      vertex 13.8365 -2.18099 4
    endloop
  endfacet
  facet normal 0 0 1
    outer loop
      vertex 13.3817 1.71352 4
      vertex 13.7135 1.38168 4
      vertex 13.5607 1.56066 4
    endloop
  endfacet
  facet normal 0 0 1
    outer loop
      vertex 13.8365 -2.18099 4
      vertex 12.5 -3 4
      vertex 13.7135 -2.38168 4
    endloop
  endfacet
  facet normal 0 0 1
    outer loop
      vertex 14 0.5 4
      vertex 13.3817 1.71352 4
      vertex 12.5 -3 4
    endloop
  endfacet
  facet normal 0 0 1
    outer loop
      vertex 13.7135 -2.38168 4
      vertex 12.5 -3 4
      vertex 13.5607 -2.56066 4
    endloop
  endfacet
  facet normal 0 0 1
    outer loop
      vertex 13.5607 -2.56066 4
      vertex 12.5 -3 4
      vertex 13.3817 -2.71352 4
    endloop
  endfacet
  facet normal 0 0 1
    outer loop
      vertex 13.3817 -2.71352 4
      vertex 12.5 -3 4
      vertex 13.181 -2.83651 4
    endloop
  endfacet
  facet normal 0 0 1
    outer loop
      vertex 13.181 -2.83651 4
      vertex 12.5 -3 4
      vertex 12.9635 -2.92658 4
    endloop
  endfacet
  facet normal 0 0 1
    outer loop
      vertex 12.9635 -2.92658 4
      vertex 12.5 -3 4
      vertex 12.7347 -2.98153 4
    endloop
  endfacet
  facet normal 0 0 1
    outer loop
      vertex 10 4.24978 4
      vertex 12.5 -3 4
      vertex 13.3817 1.71352 4
    endloop
  endfacet
  facet normal 0 0 1
    outer loop
      vertex 8.5 105 4
      vertex 9.98153 103.735 4
      vertex 9.92658 103.964 4
    endloop
  endfacet
  facet normal 0 0 1
    outer loop
      vertex 8.5 105 4
      vertex 9.92658 103.964 4
      vertex 9.83651 104.181 4
    endloop
  endfacet
  facet normal 0 0 1
    outer loop
      vertex 8.5 105 4
      vertex 9.83651 104.181 4
      vertex 9.71352 104.382 4
    endloop
  endfacet
  facet normal 0 0 1
    outer loop
      vertex 8.5 105 4
      vertex 9.71352 104.382 4
      vertex 9.56066 104.561 4
    endloop
  endfacet
  facet normal 0 0 1
    outer loop
      vertex 8.5 105 4
      vertex 9.56066 104.561 4
      vertex 9.38168 104.714 4
    endloop
  endfacet
  facet normal 0 0 1
    outer loop
      vertex 8.5 105 4
      vertex 9.38168 104.714 4
      vertex 9.18099 104.837 4
    endloop
  endfacet
  facet normal 0 0 1
    outer loop
      vertex 8.5 105 4
      vertex 9.18099 104.837 4
      vertex 8.96352 104.927 4
    endloop
  endfacet
  facet normal 0 0 1
    outer loop
      vertex 8.5 105 4
      vertex 8.96352 104.927 4
      vertex 8.73465 104.982 4
    endloop
  endfacet
  facet normal 0 0 1
    outer loop
      vertex 10 103.5 4
      vertex 8.5 105 4
      vertex 0 103.5 4
    endloop
  endfacet
  facet normal 0 0 1
    outer loop
      vertex 0 103.5 4
      vertex 8.5 105 4
      vertex 1.5 105 4
    endloop
  endfacet
  facet normal 0 0 1
    outer loop
      vertex 0 103.5 4
      vertex 1.5 105 4
      vertex 1.26535 104.982 4
    endloop
  endfacet
  facet normal 0 0 1
    outer loop
      vertex 0 103.5 4
      vertex 1.26535 104.982 4
      vertex 1.03647 104.927 4
    endloop
  endfacet
  facet normal 0 0 1
    outer loop
      vertex 0 103.5 4
      vertex 1.03647 104.927 4
      vertex 0.819014 104.837 4
    endloop
  endfacet
  facet normal 0 0 1
    outer loop
      vertex 0 103.5 4
      vertex 0.819014 104.837 4
      vertex 0.618321 104.714 4
    endloop
  endfacet
  facet normal 0 0 1
    outer loop
      vertex 0 103.5 4
      vertex 0.618321 104.714 4
      vertex 0.43934 104.561 4
    endloop
  endfacet
  facet normal 0 0 1
    outer loop
      vertex 0 103.5 4
      vertex 0.43934 104.561 4
      vertex 0.286474 104.382 4
    endloop
  endfacet
  facet normal 0 0 1
    outer loop
      vertex 0 103.5 4
      vertex 0.286474 104.382 4
      vertex 0.163489 104.181 4
    endloop
  endfacet
  facet normal 0 0 1
    outer loop
      vertex 0 103.5 4
      vertex 0.163489 104.181 4
      vertex 0.0734148 103.964 4
    endloop
  endfacet
  facet normal 0 0 1
    outer loop
      vertex 0 103.5 4
      vertex 0.0734148 103.964 4
      vertex 0.0184669 103.735 4
    endloop
  endfacet
  facet normal 0 0 1
    outer loop
      vertex 10 103.5 4
      vertex 0 103.5 4
      vertex 10 4.24978 4
    endloop
  endfacet
  facet normal 0 0 1
    outer loop
      vertex 0 4.24978 4
      vertex 10 4.24978 4
      vertex 0 103.5 4
    endloop
  endfacet
  facet normal -0 0 1
    outer loop
      vertex 0 4.24978 4
      vertex 12.5 -3 4
      vertex 10 4.24978 4
    endloop
  endfacet
  facet normal 0 0 1
    outer loop
      vertex 0 4.24978 4
      vertex -2.5 -3 4
      vertex 12.5 -3 4
    endloop
  endfacet
  facet normal -0 0 1
    outer loop
      vertex -3.38168 1.71352 4
      vertex -2.5 -3 4
      vertex 0 4.24978 4
    endloop
  endfacet
  facet normal -0 0 1
    outer loop
      vertex -4 0.5 4
      vertex -2.5 -3 4
      vertex -3.38168 1.71352 4
    endloop
  endfacet
  facet normal -0 0 1
    outer loop
      vertex -4 -1.5 4
      vertex -2.5 -3 4
      vertex -4 0.5 4
    endloop
  endfacet
  facet normal 0 0 1
    outer loop
      vertex -2.5 -3 4
      vertex -4 -1.5 4
      vertex -2.73465 -2.98153 4
    endloop
  endfacet
  facet normal 0 0 1
    outer loop
      vertex -2.73465 -2.98153 4
      vertex -4 -1.5 4
      vertex -2.96352 -2.92658 4
    endloop
  endfacet
  facet normal 0 0 1
    outer loop
      vertex -4 0.5 4
      vertex -3.38168 1.71352 4
      vertex -3.56066 1.56066 4
    endloop
  endfacet
  facet normal 0 0 1
    outer loop
      vertex -2.96352 -2.92658 4
      vertex -4 -1.5 4
      vertex -3.18099 -2.83651 4
    endloop
  endfacet
  facet normal 0 0 1
    outer loop
      vertex -4 0.5 4
      vertex -3.56066 1.56066 4
      vertex -3.71352 1.38168 4
    endloop
  endfacet
  facet normal 0 0 1
    outer loop
      vertex -3.18099 -2.83651 4
      vertex -4 -1.5 4
      vertex -3.38168 -2.71352 4
    endloop
  endfacet
  facet normal 0 0 1
    outer loop
      vertex -4 0.5 4
      vertex -3.71352 1.38168 4
      vertex -3.83651 1.18099 4
    endloop
  endfacet
  facet normal 0 0 1
    outer loop
      vertex -3.38168 -2.71352 4
      vertex -4 -1.5 4
      vertex -3.56066 -2.56066 4
    endloop
  endfacet
  facet normal 0 0 1
    outer loop
      vertex -4 0.5 4
      vertex -3.83651 1.18099 4
      vertex -3.92658 0.963525 4
    endloop
  endfacet
  facet normal 0 0 1
    outer loop
      vertex -3.56066 -2.56066 4
      vertex -4 -1.5 4
      vertex -3.71352 -2.38168 4
    endloop
  endfacet
  facet normal 0 0 1
    outer loop
      vertex -4 0.5 4
      vertex -3.92658 0.963525 4
      vertex -3.98153 0.734652 4
    endloop
  endfacet
  facet normal 0 0 1
    outer loop
      vertex -3.71352 -2.38168 4
      vertex -4 -1.5 4
      vertex -3.83651 -2.18099 4
    endloop
  endfacet
  facet normal 0 0 1
    outer loop
      vertex -3.83651 -2.18099 4
      vertex -4 -1.5 4
      vertex -3.92658 -1.96352 4
    endloop
  endfacet
  facet normal 0 0 1
    outer loop
      vertex -3.92658 -1.96352 4
      vertex -4 -1.5 4
      vertex -3.98153 -1.73465 4
    endloop
  endfacet
  facet normal 0.233659 0.972319 -0
    outer loop
      vertex 8.96352 104.927 0
      vertex 8.73465 104.982 4
      vertex 8.96352 104.927 4
    endloop
  endfacet
  facet normal 0.233659 0.972319 0
    outer loop
      vertex 8.73465 104.982 4
      vertex 8.96352 104.927 0
      vertex 8.73465 104.982 0
    endloop
  endfacet
  facet normal 0.760449 0.649398 0
    outer loop
      vertex 9.71352 104.382 4
      vertex 9.56066 104.561 0
      vertex 9.56066 104.561 4
    endloop
  endfacet
  facet normal 0.760449 0.649398 0
    outer loop
      vertex 9.56066 104.561 0
      vertex 9.71352 104.382 4
      vertex 9.71352 104.382 0
    endloop
  endfacet
  facet normal -0.972399 0.233324 0
    outer loop
      vertex 0.0184669 103.735 0
      vertex 0.0734148 103.964 4
      vertex 0.0734148 103.964 0
    endloop
  endfacet
  facet normal -0.972399 0.233324 0
    outer loop
      vertex 0.0734148 103.964 4
      vertex 0.0184669 103.735 0
      vertex 0.0184669 103.735 4
    endloop
  endfacet
  facet normal -0.923594 0.383373 0
    outer loop
      vertex 0.0734148 103.964 0
      vertex 0.163489 104.181 4
      vertex 0.163489 104.181 0
    endloop
  endfacet
  facet normal -0.923594 0.383373 0
    outer loop
      vertex 0.163489 104.181 4
      vertex 0.0734148 103.964 0
      vertex 0.0734148 103.964 4
    endloop
  endfacet
  facet normal 0.852986 0.521934 0
    outer loop
      vertex 9.83651 104.181 4
      vertex 9.71352 104.382 0
      vertex 9.71352 104.382 4
    endloop
  endfacet
  facet normal 0.852986 0.521934 0
    outer loop
      vertex 9.71352 104.382 0
      vertex 9.83651 104.181 4
      vertex 9.83651 104.181 0
    endloop
  endfacet
  facet normal -0.522545 0.852611 0
    outer loop
      vertex 0.819014 104.837 0
      vertex 0.618321 104.714 4
      vertex 0.819014 104.837 4
    endloop
  endfacet
  facet normal -0.522545 0.852611 0
    outer loop
      vertex 0.618321 104.714 4
      vertex 0.819014 104.837 0
      vertex 0.618321 104.714 0
    endloop
  endfacet
  facet normal -0.382418 0.923989 0
    outer loop
      vertex 1.03647 104.927 0
      vertex 0.819014 104.837 4
      vertex 1.03647 104.927 4
    endloop
  endfacet
  facet normal -0.382418 0.923989 0
    outer loop
      vertex 0.819014 104.837 4
      vertex 1.03647 104.927 0
      vertex 0.819014 104.837 0
    endloop
  endfacet
  facet normal -0.852995 0.521919 0
    outer loop
      vertex 0.163489 104.181 0
      vertex 0.286474 104.382 4
      vertex 0.286474 104.382 0
    endloop
  endfacet
  facet normal -0.852995 0.521919 0
    outer loop
      vertex 0.286474 104.382 4
      vertex 0.163489 104.181 0
      vertex 0.163489 104.181 4
    endloop
  endfacet
  facet normal 0.9236 0.383358 0
    outer loop
      vertex 9.92658 103.964 4
      vertex 9.83651 104.181 0
      vertex 9.83651 104.181 4
    endloop
  endfacet
  facet normal 0.9236 0.383358 0
    outer loop
      vertex 9.83651 104.181 0
      vertex 9.92658 103.964 4
      vertex 9.92658 103.964 0
    endloop
  endfacet
  facet normal 0 0 -1
    outer loop
      vertex 12.5 -3 0
      vertex 14 -1.5 0
      vertex 13.9815 -1.73465 0
    endloop
  endfacet
  facet normal -0 0 -1
    outer loop
      vertex 14 -1.5 0
      vertex 12.5 -3 0
      vertex 14 0.5 0
    endloop
  endfacet
  facet normal 0 0 -1
    outer loop
      vertex 12.5 -3 0
      vertex 13.9815 -1.73465 0
      vertex 13.9266 -1.96352 0
    endloop
  endfacet
  facet normal 0 -0 -1
    outer loop
      vertex 13.3817 1.71352 0
      vertex 14 0.5 0
      vertex 12.5 -3 0
    endloop
  endfacet
  facet normal 0 0 -1
    outer loop
      vertex 12.5 -3 0
      vertex 13.9266 -1.96352 0
      vertex 13.8365 -2.18099 0
    endloop
  endfacet
  facet normal 0 0 -1
    outer loop
      vertex 14 0.5 0
      vertex 13.3817 1.71352 0
      vertex 13.9815 0.734652 0
    endloop
  endfacet
  facet normal 0 0 -1
    outer loop
      vertex 12.5 -3 0
      vertex 13.8365 -2.18099 0
      vertex 13.7135 -2.38168 0
    endloop
  endfacet
  facet normal 0 0 -1
    outer loop
      vertex 13.9815 0.734652 0
      vertex 13.3817 1.71352 0
      vertex 13.9266 0.963525 0
    endloop
  endfacet
  facet normal 0 0 -1
    outer loop
      vertex 12.5 -3 0
      vertex 13.7135 -2.38168 0
      vertex 13.5607 -2.56066 0
    endloop
  endfacet
  facet normal 0 0 -1
    outer loop
      vertex 13.9266 0.963525 0
      vertex 13.3817 1.71352 0
      vertex 13.8365 1.18099 0
    endloop
  endfacet
  facet normal 0 0 -1
    outer loop
      vertex 12.5 -3 0
      vertex 13.5607 -2.56066 0
      vertex 13.3817 -2.71352 0
    endloop
  endfacet
  facet normal 0 0 -1
    outer loop
      vertex 13.8365 1.18099 0
      vertex 13.3817 1.71352 0
      vertex 13.7135 1.38168 0
    endloop
  endfacet
  facet normal 0 0 -1
    outer loop
      vertex 12.5 -3 0
      vertex 13.3817 -2.71352 0
      vertex 13.181 -2.83651 0
    endloop
  endfacet
  facet normal 0 0 -1
    outer loop
      vertex 12.5 -3 0
      vertex 13.181 -2.83651 0
      vertex 12.9635 -2.92658 0
    endloop
  endfacet
  facet normal 0 0 -1
    outer loop
      vertex 12.5 -3 0
      vertex 12.9635 -2.92658 0
      vertex 12.7347 -2.98153 0
    endloop
  endfacet
  facet normal 0 0 -1
    outer loop
      vertex 13.7135 1.38168 0
      vertex 13.3817 1.71352 0
      vertex 13.5607 1.56066 0
    endloop
  endfacet
  facet normal 0 0 -1
    outer loop
      vertex 12.5 -3 0
      vertex 10 4.24978 0
      vertex 13.3817 1.71352 0
    endloop
  endfacet
  facet normal 0 0 -1
    outer loop
      vertex 7.65 99.9 0
      vertex 10 103.5 0
      vertex 10 4.24978 0
    endloop
  endfacet
  facet normal 0 0 -1
    outer loop
      vertex 7.65 105 0
      vertex 10 103.5 0
      vertex 7.65 99.9 0
    endloop
  endfacet
  facet normal -0 -0 -1
    outer loop
      vertex 8.5 105 0
      vertex 10 103.5 0
      vertex 7.65 105 0
    endloop
  endfacet
  facet normal 0 0 -1
    outer loop
      vertex 10 103.5 0
      vertex 8.5 105 0
      vertex 9.98153 103.735 0
    endloop
  endfacet
  facet normal 0 0 -1
    outer loop
      vertex 9.98153 103.735 0
      vertex 8.5 105 0
      vertex 9.92658 103.964 0
    endloop
  endfacet
  facet normal 0 0 -1
    outer loop
      vertex 9.92658 103.964 0
      vertex 8.5 105 0
      vertex 9.83651 104.181 0
    endloop
  endfacet
  facet normal 0 0 -1
    outer loop
      vertex 9.71352 104.382 0
      vertex 8.5 105 0
      vertex 9.56066 104.561 0
    endloop
  endfacet
  facet normal 0 0 -1
    outer loop
      vertex 9.56066 104.561 0
      vertex 8.5 105 0
      vertex 9.38168 104.714 0
    endloop
  endfacet
  facet normal 0 0 -1
    outer loop
      vertex 9.38168 104.714 0
      vertex 8.5 105 0
      vertex 9.18099 104.837 0
    endloop
  endfacet
  facet normal 0 0 -1
    outer loop
      vertex 9.18099 104.837 0
      vertex 8.5 105 0
      vertex 8.96352 104.927 0
    endloop
  endfacet
  facet normal 0 0 -1
    outer loop
      vertex 8.96352 104.927 0
      vertex 8.5 105 0
      vertex 8.73465 104.982 0
    endloop
  endfacet
  facet normal 0 0 -1
    outer loop
      vertex 10 4.24978 0
      vertex 2.35 99.9 0
      vertex 7.65 99.9 0
    endloop
  endfacet
  facet normal 0 0 -1
    outer loop
      vertex 0 103.5 0
      vertex 2.35 105 0
      vertex 2.35 99.9 0
    endloop
  endfacet
  facet normal 0 0 -1
    outer loop
      vertex 0 4.24978 0
      vertex 2.35 99.9 0
      vertex 10 4.24978 0
    endloop
  endfacet
  facet normal -0 0 -1
    outer loop
      vertex 2.35 105 0
      vertex 0 103.5 0
      vertex 1.5 105 0
    endloop
  endfacet
  facet normal 0 0 -1
    outer loop
      vertex 1.5 105 0
      vertex 0 103.5 0
      vertex 1.26535 104.982 0
    endloop
  endfacet
  facet normal 0 0 -1
    outer loop
      vertex 1.26535 104.982 0
      vertex 0 103.5 0
      vertex 1.03647 104.927 0
    endloop
  endfacet
  facet normal 0 0 -1
    outer loop
      vertex 1.03647 104.927 0
      vertex 0 103.5 0
      vertex 0.819014 104.837 0
    endloop
  endfacet
  facet normal 0 0 -1
    outer loop
      vertex 0.819014 104.837 0
      vertex 0 103.5 0
      vertex 0.618321 104.714 0
    endloop
  endfacet
  facet normal 0 0 -1
    outer loop
      vertex 0.618321 104.714 0
      vertex 0 103.5 0
      vertex 0.43934 104.561 0
    endloop
  endfacet
  facet normal 0 0 -1
    outer loop
      vertex 0.43934 104.561 0
      vertex 0 103.5 0
      vertex 0.286474 104.382 0
    endloop
  endfacet
  facet normal 0 0 -1
    outer loop
      vertex 0.286474 104.382 0
      vertex 0 103.5 0
      vertex 0.163489 104.181 0
    endloop
  endfacet
  facet normal 0 0 -1
    outer loop
      vertex 0.163489 104.181 0
      vertex 0 103.5 0
      vertex 0.0734148 103.964 0
    endloop
  endfacet
  facet normal -0 0 -1
    outer loop
      vertex 2.35 99.9 0
      vertex 0 4.24978 0
      vertex 0 103.5 0
    endloop
  endfacet
  facet normal 0 0 -1
    outer loop
      vertex 12.5 -3 0
      vertex 0 4.24978 0
      vertex 10 4.24978 0
    endloop
  endfacet
  facet normal 0 0 -1
    outer loop
      vertex -2.5 -3 0
      vertex 0 4.24978 0
      vertex 12.5 -3 0
    endloop
  endfacet
  facet normal 0 0 -1
    outer loop
      vertex -4 -1.5 0
      vertex -2.5 -3 0
      vertex -2.73465 -2.98153 0
    endloop
  endfacet
  facet normal 0 0 -1
    outer loop
      vertex -4 -1.5 0
      vertex -2.73465 -2.98153 0
      vertex -2.96352 -2.92658 0
    endloop
  endfacet
  facet normal 0 0 -1
    outer loop
      vertex -4 -1.5 0
      vertex -2.96352 -2.92658 0
      vertex -3.18099 -2.83651 0
    endloop
  endfacet
  facet normal 0 0 -1
    outer loop
      vertex -4 -1.5 0
      vertex -3.18099 -2.83651 0
      vertex -3.38168 -2.71352 0
    endloop
  endfacet
  facet normal 0 0 -1
    outer loop
      vertex -2.5 -3 0
      vertex -3.38168 1.71352 0
      vertex 0 4.24978 0
    endloop
  endfacet
  facet normal 0 0 -1
    outer loop
      vertex -4 -1.5 0
      vertex -3.38168 -2.71352 0
      vertex -3.56066 -2.56066 0
    endloop
  endfacet
  facet normal 0 0 -1
    outer loop
      vertex -2.5 -3 0
      vertex -4 -1.5 0
      vertex -4 0.5 0
    endloop
  endfacet
  facet normal 0 0 -1
    outer loop
      vertex -4 -1.5 0
      vertex -3.56066 -2.56066 0
      vertex -3.71352 -2.38168 0
    endloop
  endfacet
  facet normal 0 0 -1
    outer loop
      vertex -2.5 -3 0
      vertex -4 0.5 0
      vertex -3.38168 1.71352 0
    endloop
  endfacet
  facet normal 0 0 -1
    outer loop
      vertex -4 -1.5 0
      vertex -3.71352 -2.38168 0
      vertex -3.83651 -2.18099 0
    endloop
  endfacet
  facet normal 0 0 -1
    outer loop
      vertex -3.38168 1.71352 0
      vertex -4 0.5 0
      vertex -3.56066 1.56066 0
    endloop
  endfacet
  facet normal 0 0 -1
    outer loop
      vertex -4 -1.5 0
      vertex -3.83651 -2.18099 0
      vertex -3.92658 -1.96352 0
    endloop
  endfacet
  facet normal 0 0 -1
    outer loop
      vertex -3.56066 1.56066 0
      vertex -4 0.5 0
      vertex -3.71352 1.38168 0
    endloop
  endfacet
  facet normal 0 0 -1
    outer loop
      vertex -4 -1.5 0
      vertex -3.92658 -1.96352 0
      vertex -3.98153 -1.73465 0
    endloop
  endfacet
  facet normal 0 0 -1
    outer loop
      vertex -3.71352 1.38168 0
      vertex -4 0.5 0
      vertex -3.83651 1.18099 0
    endloop
  endfacet
  facet normal 0 0 -1
    outer loop
      vertex -3.83651 1.18099 0
      vertex -4 0.5 0
      vertex -3.92658 0.963525 0
    endloop
  endfacet
  facet normal 0 0 -1
    outer loop
      vertex -3.92658 0.963525 0
      vertex -4 0.5 0
      vertex -3.98153 0.734652 0
    endloop
  endfacet
  facet normal 0 0 -1
    outer loop
      vertex 9.83651 104.181 0
      vertex 8.5 105 0
      vertex 9.71352 104.382 0
    endloop
  endfacet
  facet normal 0 0 -1
    outer loop
      vertex 0.0734148 103.964 0
      vertex 0 103.5 0
      vertex 0.0184669 103.735 0
    endloop
  endfacet
  facet normal -0.649781 0.760121 0
    outer loop
      vertex 0.618321 104.714 0
      vertex 0.43934 104.561 4
      vertex 0.618321 104.714 4
    endloop
  endfacet
  facet normal -0.649781 0.760121 0
    outer loop
      vertex 0.43934 104.561 4
      vertex 0.618321 104.714 0
      vertex 0.43934 104.561 0
    endloop
  endfacet
  facet normal 0.522551 0.852608 -0
    outer loop
      vertex 9.38168 104.714 0
      vertex 9.18099 104.837 4
      vertex 9.38168 104.714 4
    endloop
  endfacet
  facet normal 0.522551 0.852608 0
    outer loop
      vertex 9.18099 104.837 4
      vertex 9.38168 104.714 0
      vertex 9.18099 104.837 0
    endloop
  endfacet
  facet normal 0.649784 0.760119 -0
    outer loop
      vertex 9.56066 104.561 0
      vertex 9.38168 104.714 4
      vertex 9.56066 104.561 4
    endloop
  endfacet
  facet normal 0.649784 0.760119 0
    outer loop
      vertex 9.38168 104.714 4
      vertex 9.56066 104.561 0
      vertex 9.38168 104.714 0
    endloop
  endfacet
  facet normal -1 0 0
    outer loop
      vertex -4 -1.5 0
      vertex -4 0.5 4
      vertex -4 0.5 0
    endloop
  endfacet
  facet normal -1 -0 0
    outer loop
      vertex -4 0.5 4
      vertex -4 -1.5 0
      vertex -4 -1.5 4
    endloop
  endfacet
  facet normal -0.996917 0.0784696 0
    outer loop
      vertex -4 0.5 0
      vertex -3.98153 0.734652 4
      vertex -3.98153 0.734652 0
    endloop
  endfacet
  facet normal -0.996917 0.0784696 0
    outer loop
      vertex -3.98153 0.734652 4
      vertex -4 0.5 0
      vertex -4 0.5 4
    endloop
  endfacet
  facet normal 0.972416 0.233254 0
    outer loop
      vertex 13.9815 0.734652 4
      vertex 13.9266 0.963525 0
      vertex 13.9266 0.963525 4
    endloop
  endfacet
  facet normal 0.972416 0.233254 0
    outer loop
      vertex 13.9266 0.963525 0
      vertex 13.9815 0.734652 4
      vertex 13.9815 0.734652 0
    endloop
  endfacet
  facet normal -0.852627 -0.52252 0
    outer loop
      vertex -3.71352 -2.38168 0
      vertex -3.83651 -2.18099 4
      vertex -3.83651 -2.18099 0
    endloop
  endfacet
  facet normal -0.852627 -0.52252 0
    outer loop
      vertex -3.83651 -2.18099 4
      vertex -3.71352 -2.38168 0
      vertex -3.71352 -2.38168 4
    endloop
  endfacet
  facet normal -0.972368 0.233455 0
    outer loop
      vertex -3.98153 0.734652 0
      vertex -3.92658 0.963525 4
      vertex -3.92658 0.963525 0
    endloop
  endfacet
  facet normal -0.972368 0.233455 0
    outer loop
      vertex -3.92658 0.963525 4
      vertex -3.98153 0.734652 0
      vertex -3.98153 0.734652 4
    endloop
  endfacet
  facet normal 0.649398 0.760449 -0
    outer loop
      vertex 13.5607 1.56066 0
      vertex 13.3817 1.71352 4
      vertex 13.5607 1.56066 4
    endloop
  endfacet
  facet normal 0.649398 0.760449 0
    outer loop
      vertex 13.3817 1.71352 4
      vertex 13.5607 1.56066 0
      vertex 13.3817 1.71352 0
    endloop
  endfacet
  facet normal -0.972367 -0.233458 0
    outer loop
      vertex -3.92658 -1.96352 0
      vertex -3.98153 -1.73465 4
      vertex -3.98153 -1.73465 0
    endloop
  endfacet
  facet normal -0.972367 -0.233458 0
    outer loop
      vertex -3.98153 -1.73465 4
      vertex -3.92658 -1.96352 0
      vertex -3.92658 -1.96352 4
    endloop
  endfacet
  facet normal 0.599998 0.800002 -0
    outer loop
      vertex 13.3817 1.71352 0
      vertex 10 4.24978 4
      vertex 13.3817 1.71352 4
    endloop
  endfacet
  facet normal 0.599998 0.800002 0
    outer loop
      vertex 10 4.24978 4
      vertex 13.3817 1.71352 0
      vertex 10 4.24978 0
    endloop
  endfacet
  facet normal 0.972415 -0.233257 0
    outer loop
      vertex 13.9266 -1.96352 4
      vertex 13.9815 -1.73465 0
      vertex 13.9815 -1.73465 4
    endloop
  endfacet
  facet normal 0.972415 -0.233257 0
    outer loop
      vertex 13.9815 -1.73465 0
      vertex 13.9266 -1.96352 4
      vertex 13.9266 -1.96352 0
    endloop
  endfacet
  facet normal 1 -0 0
    outer loop
      vertex 14 -1.5 4
      vertex 14 0.5 0
      vertex 14 0.5 4
    endloop
  endfacet
  facet normal 1 0 0
    outer loop
      vertex 14 0.5 0
      vertex 14 -1.5 4
      vertex 14 -1.5 0
    endloop
  endfacet
  facet normal -0.923893 -0.382651 0
    outer loop
      vertex -3.83651 -2.18099 0
      vertex -3.92658 -1.96352 4
      vertex -3.92658 -1.96352 0
    endloop
  endfacet
  facet normal -0.923893 -0.382651 0
    outer loop
      vertex -3.92658 -1.96352 4
      vertex -3.83651 -2.18099 0
      vertex -3.83651 -2.18099 4
    endloop
  endfacet
  facet normal -0.233458 -0.972367 0
    outer loop
      vertex -2.96352 -2.92658 0
      vertex -2.73465 -2.98153 4
      vertex -2.96352 -2.92658 4
    endloop
  endfacet
  facet normal -0.233458 -0.972367 -0
    outer loop
      vertex -2.73465 -2.98153 4
      vertex -2.96352 -2.92658 0
      vertex -2.73465 -2.98153 0
    endloop
  endfacet
  facet normal -0.852627 0.52252 0
    outer loop
      vertex -3.83651 1.18099 0
      vertex -3.71352 1.38168 4
      vertex -3.71352 1.38168 0
    endloop
  endfacet
  facet normal -0.852627 0.52252 0
    outer loop
      vertex -3.71352 1.38168 4
      vertex -3.83651 1.18099 0
      vertex -3.83651 1.18099 4
    endloop
  endfacet
  facet normal -0.996916 -0.0784703 0
    outer loop
      vertex -3.98153 -1.73465 0
      vertex -4 -1.5 4
      vertex -4 -1.5 0
    endloop
  endfacet
  facet normal -0.996916 -0.0784703 0
    outer loop
      vertex -4 -1.5 4
      vertex -3.98153 -1.73465 0
      vertex -3.98153 -1.73465 4
    endloop
  endfacet
  facet normal -0.760413 0.64944 0
    outer loop
      vertex -3.71352 1.38168 0
      vertex -3.56066 1.56066 4
      vertex -3.56066 1.56066 0
    endloop
  endfacet
  facet normal -0.760413 0.64944 0
    outer loop
      vertex -3.56066 1.56066 4
      vertex -3.71352 1.38168 0
      vertex -3.71352 1.38168 4
    endloop
  endfacet
  facet normal -0.52252 -0.852627 0
    outer loop
      vertex -3.38168 -2.71352 0
      vertex -3.18099 -2.83651 4
      vertex -3.38168 -2.71352 4
    endloop
  endfacet
  facet normal -0.52252 -0.852627 -0
    outer loop
      vertex -3.18099 -2.83651 4
      vertex -3.38168 -2.71352 0
      vertex -3.18099 -2.83651 0
    endloop
  endfacet
  facet normal -0.64944 0.760413 0
    outer loop
      vertex -3.38168 1.71352 0
      vertex -3.56066 1.56066 4
      vertex -3.38168 1.71352 4
    endloop
  endfacet
  facet normal -0.64944 0.760413 0
    outer loop
      vertex -3.56066 1.56066 4
      vertex -3.38168 1.71352 0
      vertex -3.56066 1.56066 0
    endloop
  endfacet
  facet normal 0.760539 -0.649292 0
    outer loop
      vertex 13.5607 -2.56066 4
      vertex 13.7135 -2.38168 0
      vertex 13.7135 -2.38168 4
    endloop
  endfacet
  facet normal 0.760539 -0.649292 0
    outer loop
      vertex 13.7135 -2.38168 0
      vertex 13.5607 -2.56066 4
      vertex 13.5607 -2.56066 0
    endloop
  endfacet
  facet normal -0.6 0.8 0
    outer loop
      vertex 0 4.24978 0
      vertex -3.38168 1.71352 4
      vertex 0 4.24978 4
    endloop
  endfacet
  facet normal -0.6 0.8 0
    outer loop
      vertex -3.38168 1.71352 4
      vertex 0 4.24978 0
      vertex -3.38168 1.71352 0
    endloop
  endfacet
  facet normal 0.996907 0.0785963 0
    outer loop
      vertex 14 0.5 4
      vertex 13.9815 0.734652 0
      vertex 13.9815 0.734652 4
    endloop
  endfacet
  facet normal 0.996907 0.0785963 0
    outer loop
      vertex 13.9815 0.734652 0
      vertex 14 0.5 4
      vertex 14 0.5 0
    endloop
  endfacet
  facet normal -0.0784703 -0.996916 0
    outer loop
      vertex -2.73465 -2.98153 0
      vertex -2.5 -3 4
      vertex -2.73465 -2.98153 4
    endloop
  endfacet
  facet normal -0.0784703 -0.996916 -0
    outer loop
      vertex -2.5 -3 4
      vertex -2.73465 -2.98153 0
      vertex -2.5 -3 0
    endloop
  endfacet
  facet normal -0.92389 0.382658 0
    outer loop
      vertex -3.92658 0.963525 0
      vertex -3.83651 1.18099 4
      vertex -3.83651 1.18099 0
    endloop
  endfacet
  facet normal -0.92389 0.382658 0
    outer loop
      vertex -3.83651 1.18099 4
      vertex -3.92658 0.963525 0
      vertex -3.92658 0.963525 4
    endloop
  endfacet
  facet normal 0 -1 0
    outer loop
      vertex -2.5 -3 0
      vertex 12.5 -3 4
      vertex -2.5 -3 4
    endloop
  endfacet
  facet normal 0 -1 -0
    outer loop
      vertex 12.5 -3 4
      vertex -2.5 -3 0
      vertex 12.5 -3 0
    endloop
  endfacet
  facet normal 0.852608 0.522551 0
    outer loop
      vertex 13.8365 1.18099 4
      vertex 13.7135 1.38168 0
      vertex 13.7135 1.38168 4
    endloop
  endfacet
  facet normal 0.852608 0.522551 0
    outer loop
      vertex 13.7135 1.38168 0
      vertex 13.8365 1.18099 4
      vertex 13.8365 1.18099 0
    endloop
  endfacet
  facet normal 0.923845 0.382767 0
    outer loop
      vertex 13.9266 0.963525 4
      vertex 13.8365 1.18099 0
      vertex 13.8365 1.18099 4
    endloop
  endfacet
  facet normal 0.923845 0.382767 0
    outer loop
      vertex 13.8365 1.18099 0
      vertex 13.9266 0.963525 4
      vertex 13.9266 0.963525 0
    endloop
  endfacet
  facet normal 0.522501 -0.852638 0
    outer loop
      vertex 13.181 -2.83651 0
      vertex 13.3817 -2.71352 4
      vertex 13.181 -2.83651 4
    endloop
  endfacet
  facet normal 0.522501 -0.852638 0
    outer loop
      vertex 13.3817 -2.71352 4
      vertex 13.181 -2.83651 0
      vertex 13.3817 -2.71352 0
    endloop
  endfacet
  facet normal 0.382606 -0.923912 0
    outer loop
      vertex 12.9635 -2.92658 0
      vertex 13.181 -2.83651 4
      vertex 12.9635 -2.92658 4
    endloop
  endfacet
  facet normal 0.382606 -0.923912 0
    outer loop
      vertex 13.181 -2.83651 4
      vertex 12.9635 -2.92658 0
      vertex 13.181 -2.83651 0
    endloop
  endfacet
  facet normal 0.0784536 -0.996918 0
    outer loop
      vertex 12.5 -3 0
      vertex 12.7347 -2.98153 4
      vertex 12.5 -3 4
    endloop
  endfacet
  facet normal 0.0784536 -0.996918 0
    outer loop
      vertex 12.7347 -2.98153 4
      vertex 12.5 -3 0
      vertex 12.7347 -2.98153 0
    endloop
  endfacet
  facet normal 0.760539 0.649292 0
    outer loop
      vertex 13.7135 1.38168 4
      vertex 13.5607 1.56066 0
      vertex 13.5607 1.56066 4
    endloop
  endfacet
  facet normal 0.760539 0.649292 0
    outer loop
      vertex 13.5607 1.56066 0
      vertex 13.7135 1.38168 4
      vertex 13.7135 1.38168 0
    endloop
  endfacet
  facet normal -0.64944 -0.760413 0
    outer loop
      vertex -3.56066 -2.56066 0
      vertex -3.38168 -2.71352 4
      vertex -3.56066 -2.56066 4
    endloop
  endfacet
  facet normal -0.64944 -0.760413 -0
    outer loop
      vertex -3.38168 -2.71352 4
      vertex -3.56066 -2.56066 0
      vertex -3.38168 -2.71352 0
    endloop
  endfacet
  facet normal 0.996906 -0.0785969 0
    outer loop
      vertex 13.9815 -1.73465 4
      vertex 14 -1.5 0
      vertex 14 -1.5 4
    endloop
  endfacet
  facet normal 0.996906 -0.0785969 0
    outer loop
      vertex 14 -1.5 0
      vertex 13.9815 -1.73465 4
      vertex 13.9815 -1.73465 0
    endloop
  endfacet
  facet normal -0.760413 -0.64944 0
    outer loop
      vertex -3.56066 -2.56066 0
      vertex -3.71352 -2.38168 4
      vertex -3.71352 -2.38168 0
    endloop
  endfacet
  facet normal -0.760413 -0.64944 0
    outer loop
      vertex -3.71352 -2.38168 4
      vertex -3.56066 -2.56066 0
      vertex -3.56066 -2.56066 4
    endloop
  endfacet
  facet normal -0.382651 -0.923893 0
    outer loop
      vertex -3.18099 -2.83651 0
      vertex -2.96352 -2.92658 4
      vertex -3.18099 -2.83651 4
    endloop
  endfacet
  facet normal -0.382651 -0.923893 -0
    outer loop
      vertex -2.96352 -2.92658 4
      vertex -3.18099 -2.83651 0
      vertex -2.96352 -2.92658 0
    endloop
  endfacet
  facet normal 0.923848 -0.382759 0
    outer loop
      vertex 13.8365 -2.18099 4
      vertex 13.9266 -1.96352 0
      vertex 13.9266 -1.96352 4
    endloop
  endfacet
  facet normal 0.923848 -0.382759 0
    outer loop
      vertex 13.9266 -1.96352 0
      vertex 13.8365 -2.18099 4
      vertex 13.8365 -2.18099 0
    endloop
  endfacet
  facet normal 0.852608 -0.522551 0
    outer loop
      vertex 13.7135 -2.38168 4
      vertex 13.8365 -2.18099 0
      vertex 13.8365 -2.18099 4
    endloop
  endfacet
  facet normal 0.852608 -0.522551 0
    outer loop
      vertex 13.8365 -2.18099 0
      vertex 13.7135 -2.38168 4
      vertex 13.7135 -2.38168 0
    endloop
  endfacet
  facet normal 0.649398 -0.760449 0
    outer loop
      vertex 13.3817 -2.71352 0
      vertex 13.5607 -2.56066 4
      vertex 13.3817 -2.71352 4
    endloop
  endfacet
  facet normal 0.649398 -0.760449 0
    outer loop
      vertex 13.5607 -2.56066 4
      vertex 13.3817 -2.71352 0
      vertex 13.5607 -2.56066 0
    endloop
  endfacet
  facet normal 0.233526 -0.972351 0
    outer loop
      vertex 12.7347 -2.98153 0
      vertex 12.9635 -2.92658 4
      vertex 12.7347 -2.98153 4
    endloop
  endfacet
  facet normal 0.233526 -0.972351 0
    outer loop
      vertex 12.9635 -2.92658 4
      vertex 12.7347 -2.98153 0
      vertex 12.9635 -2.92658 0
    endloop
  endfacet
  facet normal -1 0 0
    outer loop
      vertex 7.65 99.9 0
      vertex 7.65 105 2.5
      vertex 7.65 105 0
    endloop
  endfacet
  facet normal -1 -0 0
    outer loop
      vertex 7.65 105 2.5
      vertex 7.65 99.9 0
      vertex 7.65 99.9 2.5
    endloop
  endfacet
  facet normal 0 0 -1
    outer loop
      vertex 2.35 99.9 2.5
      vertex 7.65 105 2.5
      vertex 7.65 99.9 2.5
    endloop
  endfacet
  facet normal -0 0 -1
    outer loop
      vertex 7.65 105 2.5
      vertex 2.35 99.9 2.5
      vertex 2.35 105 2.5
    endloop
  endfacet
  facet normal 1 -0 0
    outer loop
      vertex 2.35 99.9 2.5
      vertex 2.35 105 0
      vertex 2.35 105 2.5
    endloop
  endfacet
  facet normal 1 0 0
    outer loop
      vertex 2.35 105 0
      vertex 2.35 99.9 2.5
      vertex 2.35 99.9 0
    endloop
  endfacet
  facet normal 0 1 -0
    outer loop
      vertex 7.65 99.9 0
      vertex 2.35 99.9 2.5
      vertex 7.65 99.9 2.5
    endloop
  endfacet
  facet normal 0 1 0
    outer loop
      vertex 2.35 99.9 2.5
      vertex 7.65 99.9 0
      vertex 2.35 99.9 0
    endloop
  endfacet
endsolid OpenSCAD_Model
