solid OpenSCAD_Model
  facet normal -0 0 1
    outer loop
      vertex 30.5 5 140
      vertex 40.35 0 140
      vertex 40.35 5 140
    endloop
  endfacet
  facet normal 0 0 1
    outer loop
      vertex 40.35 0 140
      vertex 30.5 5 140
      vertex 30.5 0 140
    endloop
  endfacet
  facet normal -0 0 1
    outer loop
      vertex 44.65 5 140
      vertex 54.5 0 140
      vertex 54.5 5 140
    endloop
  endfacet
  facet normal 0 0 1
    outer loop
      vertex 54.5 0 140
      vertex 44.65 5 140
      vertex 44.65 0 140
    endloop
  endfacet
  facet normal -0.976762 0 0.214326
    outer loop
      vertex 2.96223 0 14.5
      vertex 30.5 5 140
      vertex 2.96223 5 14.5
    endloop
  endfacet
  facet normal -0.976762 0 0.214326
    outer loop
      vertex 30.5 5 140
      vertex 2.96223 0 14.5
      vertex 30.5 0 140
    endloop
  endfacet
  facet normal -0.976762 0 0.214326
    outer loop
      vertex 0 0 1
      vertex 2.41367 5 12
      vertex 0 5 1
    endloop
  endfacet
  facet normal -0.976762 0 0.214326
    outer loop
      vertex 2.41367 5 12
      vertex 0 0 1
      vertex 2.41367 0 12
    endloop
  endfacet
  facet normal -1 0 0
    outer loop
      vertex 0 0 0
      vertex 0 5 1
      vertex 0 5 0
    endloop
  endfacet
  facet normal -1 -0 0
    outer loop
      vertex 0 5 1
      vertex 0 0 0
      vertex 0 0 1
    endloop
  endfacet
  facet normal 0 0 -1
    outer loop
      vertex 0 0 0
      vertex 5 5 0
      vertex 5 0 0
    endloop
  endfacet
  facet normal -0 0 -1
    outer loop
      vertex 5 5 0
      vertex 0 0 0
      vertex 0 5 0
    endloop
  endfacet
  facet normal 0 -1 0
    outer loop
      vertex 34.6223 0 135
      vertex 40.35 0 140
      vertex 30.5 0 140
    endloop
  endfacet
  facet normal 0 -1 -0
    outer loop
      vertex 40.35 0 137
      vertex 34.6223 0 135
      vertex 44.65 0 137
    endloop
  endfacet
  facet normal 0 -1 -0
    outer loop
      vertex 40.35 0 140
      vertex 34.6223 0 135
      vertex 40.35 0 137
    endloop
  endfacet
  facet normal 0 -1 0
    outer loop
      vertex 2.96223 0 14.5
      vertex 34.6223 0 135
      vertex 30.5 0 140
    endloop
  endfacet
  facet normal 0 -1 0
    outer loop
      vertex 34.6223 0 135
      vertex 2.96223 0 14.5
      vertex 8.18165 0 14.5
    endloop
  endfacet
  facet normal 0 -1 0
    outer loop
      vertex 50.3777 0 135
      vertex 44.65 0 140
      vertex 44.65 0 137
    endloop
  endfacet
  facet normal 0 -1 0
    outer loop
      vertex 50.3777 0 135
      vertex 44.65 0 137
      vertex 34.6223 0 135
    endloop
  endfacet
  facet normal 0 -1 0
    outer loop
      vertex 44.65 0 140
      vertex 50.3777 0 135
      vertex 54.5 0 140
    endloop
  endfacet
  facet normal 0 -1 0
    outer loop
      vertex 82.0378 0 14.5
      vertex 50.3777 0 135
      vertex 76.8183 0 14.5
    endloop
  endfacet
  facet normal 0 -1 0
    outer loop
      vertex 50.3777 0 135
      vertex 82.0378 0 14.5
      vertex 54.5 0 140
    endloop
  endfacet
  facet normal 0 -1 0
    outer loop
      vertex 80 0 0
      vertex 82.5863 0 12
      vertex 77.3669 0 12
    endloop
  endfacet
  facet normal 0 -1 -0
    outer loop
      vertex 82.5863 0 12
      vertex 80 0 0
      vertex 85 0 1
    endloop
  endfacet
  facet normal 0 -1 -0
    outer loop
      vertex 85 0 1
      vertex 80 0 0
      vertex 85 0 0
    endloop
  endfacet
  facet normal 0 -1 0
    outer loop
      vertex 5 0 0
      vertex 2.41367 0 12
      vertex 0 0 1
    endloop
  endfacet
  facet normal 0 -1 0
    outer loop
      vertex 5 0 0
      vertex 0 0 1
      vertex 0 0 0
    endloop
  endfacet
  facet normal 0 -1 0
    outer loop
      vertex 2.41367 0 12
      vertex 5 0 0
      vertex 7.63309 0 12
    endloop
  endfacet
  facet normal 0 1 -0
    outer loop
      vertex 5 5 0
      vertex 2.41367 5 12
      vertex 7.63309 5 12
    endloop
  endfacet
  facet normal 0 1 0
    outer loop
      vertex 2.41367 5 12
      vertex 5 5 0
      vertex 0 5 1
    endloop
  endfacet
  facet normal 0 1 0
    outer loop
      vertex 0 5 1
      vertex 5 5 0
      vertex 0 5 0
    endloop
  endfacet
  facet normal 0 1 0
    outer loop
      vertex 80 5 0
      vertex 82.5863 5 12
      vertex 85 5 1
    endloop
  endfacet
  facet normal 0 1 0
    outer loop
      vertex 80 5 0
      vertex 85 5 1
      vertex 85 5 0
    endloop
  endfacet
  facet normal 0 1 0
    outer loop
      vertex 82.5863 5 12
      vertex 80 5 0
      vertex 77.3669 5 12
    endloop
  endfacet
  facet normal 0 1 -0
    outer loop
      vertex 82.5863 5 12
      vertex 82.0378 5 14.5
      vertex 85 5 14.5
    endloop
  endfacet
  facet normal 0 1 0
    outer loop
      vertex 77.3669 5 12
      vertex 82.0378 5 14.5
      vertex 82.5863 5 12
    endloop
  endfacet
  facet normal 0 1 0
    outer loop
      vertex 76.8183 5 14.5
      vertex 77.3669 5 12
      vertex 8.18165 5 14.5
    endloop
  endfacet
  facet normal 0 1 0
    outer loop
      vertex 7.63309 5 12
      vertex 8.18165 5 14.5
      vertex 77.3669 5 12
    endloop
  endfacet
  facet normal 0 1 0
    outer loop
      vertex 82.5863 5 12
      vertex 85 5 14.5
      vertex 85 5 12
    endloop
  endfacet
  facet normal 0 1 0
    outer loop
      vertex 82.0378 5 14.5
      vertex 77.3669 5 12
      vertex 76.8183 5 14.5
    endloop
  endfacet
  facet normal 0 1 0
    outer loop
      vertex 8.18165 5 14.5
      vertex 7.63309 5 12
      vertex 2.96223 5 14.5
    endloop
  endfacet
  facet normal 0 1 0
    outer loop
      vertex 2.41367 5 12
      vertex 2.96223 5 14.5
      vertex 7.63309 5 12
    endloop
  endfacet
  facet normal 0 1 0
    outer loop
      vertex 2.96223 5 14.5
      vertex 2.41367 5 12
      vertex 0 5 14.5
    endloop
  endfacet
  facet normal 0 1 0
    outer loop
      vertex 0 5 14.5
      vertex 2.41367 5 12
      vertex 0 5 12
    endloop
  endfacet
  facet normal 0 1 -0
    outer loop
      vertex 50.3777 5 135
      vertex 44.65 5 140
      vertex 54.5 5 140
    endloop
  endfacet
  facet normal 0 1 0
    outer loop
      vertex 44.65 5 137
      vertex 50.3777 5 135
      vertex 40.35 5 137
    endloop
  endfacet
  facet normal 0 1 0
    outer loop
      vertex 44.65 5 140
      vertex 50.3777 5 135
      vertex 44.65 5 137
    endloop
  endfacet
  facet normal 0 1 0
    outer loop
      vertex 82.0378 5 14.5
      vertex 50.3777 5 135
      vertex 54.5 5 140
    endloop
  endfacet
  facet normal 0 1 0
    outer loop
      vertex 50.3777 5 135
      vertex 82.0378 5 14.5
      vertex 76.8183 5 14.5
    endloop
  endfacet
  facet normal 0 1 0
    outer loop
      vertex 34.6223 5 135
      vertex 40.35 5 140
      vertex 40.35 5 137
    endloop
  endfacet
  facet normal 0 1 0
    outer loop
      vertex 34.6223 5 135
      vertex 40.35 5 137
      vertex 50.3777 5 135
    endloop
  endfacet
  facet normal 0 1 0
    outer loop
      vertex 40.35 5 140
      vertex 34.6223 5 135
      vertex 30.5 5 140
    endloop
  endfacet
  facet normal 0 1 0
    outer loop
      vertex 2.96223 5 14.5
      vertex 34.6223 5 135
      vertex 8.18165 5 14.5
    endloop
  endfacet
  facet normal 0 1 0
    outer loop
      vertex 34.6223 5 135
      vertex 2.96223 5 14.5
      vertex 30.5 5 140
    endloop
  endfacet
  facet normal 0.976762 0 -0.214325
    outer loop
      vertex 7.63309 0 12
      vertex 5 5 0
      vertex 7.63309 5 12
    endloop
  endfacet
  facet normal 0.976762 0 -0.214325
    outer loop
      vertex 5 5 0
      vertex 7.63309 0 12
      vertex 5 0 0
    endloop
  endfacet
  facet normal 0.976762 0 -0.214326
    outer loop
      vertex 34.6223 0 135
      vertex 8.18165 5 14.5
      vertex 34.6223 5 135
    endloop
  endfacet
  facet normal 0.976762 0 -0.214326
    outer loop
      vertex 8.18165 5 14.5
      vertex 34.6223 0 135
      vertex 8.18165 0 14.5
    endloop
  endfacet
  facet normal -0.976762 0 -0.214326
    outer loop
      vertex 80 0 0
      vertex 77.3669 5 12
      vertex 80 5 0
    endloop
  endfacet
  facet normal -0.976762 -0 -0.214326
    outer loop
      vertex 77.3669 5 12
      vertex 80 0 0
      vertex 77.3669 0 12
    endloop
  endfacet
  facet normal -0.976762 0 -0.214325
    outer loop
      vertex 76.8183 0 14.5
      vertex 50.3777 5 135
      vertex 76.8183 5 14.5
    endloop
  endfacet
  facet normal -0.976762 -0 -0.214325
    outer loop
      vertex 50.3777 5 135
      vertex 76.8183 0 14.5
      vertex 50.3777 0 135
    endloop
  endfacet
  facet normal 1 -0 0
    outer loop
      vertex 85 0 1
      vertex 85 5 0
      vertex 85 5 1
    endloop
  endfacet
  facet normal 1 0 0
    outer loop
      vertex 85 5 0
      vertex 85 0 1
      vertex 85 0 0
    endloop
  endfacet
  facet normal 0.976762 -0 0.214326
    outer loop
      vertex 54.5 0 140
      vertex 82.0378 5 14.5
      vertex 54.5 5 140
    endloop
  endfacet
  facet normal 0.976762 0 0.214326
    outer loop
      vertex 82.0378 5 14.5
      vertex 54.5 0 140
      vertex 82.0378 0 14.5
    endloop
  endfacet
  facet normal 0.976762 -0 0.214328
    outer loop
      vertex 82.5863 0 12
      vertex 85 5 1
      vertex 82.5863 5 12
    endloop
  endfacet
  facet normal 0.976762 0 0.214328
    outer loop
      vertex 85 5 1
      vertex 82.5863 0 12
      vertex 85 0 1
    endloop
  endfacet
  facet normal 0 0 -1
    outer loop
      vertex 80 0 0
      vertex 85 5 0
      vertex 85 0 0
    endloop
  endfacet
  facet normal -0 0 -1
    outer loop
      vertex 85 5 0
      vertex 80 0 0
      vertex 80 5 0
    endloop
  endfacet
  facet normal 1 -0 0
    outer loop
      vertex 85 -9 14.5
      vertex 85 5 12
      vertex 85 5 14.5
    endloop
  endfacet
  facet normal 1 0 0
    outer loop
      vertex 85 5 12
      vertex 85 -9 14.5
      vertex 85 -9 12
    endloop
  endfacet
  facet normal 0 0 1
    outer loop
      vertex 2.96223 5 14.5
      vertex 0 5 14.5
      vertex 2.96223 0 14.5
    endloop
  endfacet
  facet normal 0 0 1
    outer loop
      vertex 76.8183 5 14.5
      vertex 8.18165 5 14.5
      vertex 76.8183 0 14.5
    endloop
  endfacet
  facet normal 0 0 1
    outer loop
      vertex 82.0378 0 14.5
      vertex 85 5 14.5
      vertex 82.0378 5 14.5
    endloop
  endfacet
  facet normal 0 0 1
    outer loop
      vertex 85 5 14.5
      vertex 82.0378 0 14.5
      vertex 85 -9 14.5
    endloop
  endfacet
  facet normal -0 0 1
    outer loop
      vertex 76.8183 0 14.5
      vertex 85 -9 14.5
      vertex 82.0378 0 14.5
    endloop
  endfacet
  facet normal 0 0 1
    outer loop
      vertex 8.18165 0 14.5
      vertex 76.8183 0 14.5
      vertex 8.18165 5 14.5
    endloop
  endfacet
  facet normal 0 0 1
    outer loop
      vertex 76.8183 0 14.5
      vertex 8.18165 0 14.5
      vertex 85 -9 14.5
    endloop
  endfacet
  facet normal 0 0 1
    outer loop
      vertex 0 -9 14.5
      vertex 8.18165 0 14.5
      vertex 2.96223 0 14.5
    endloop
  endfacet
  facet normal 0 0 1
    outer loop
      vertex 8.18165 0 14.5
      vertex 0 -9 14.5
      vertex 85 -9 14.5
    endloop
  endfacet
  facet normal 0 0 1
    outer loop
      vertex 0 -9 14.5
      vertex 2.96223 0 14.5
      vertex 0 5 14.5
    endloop
  endfacet
  facet normal 0 0 -1
    outer loop
      vertex 85 -9 12
      vertex 82.5863 0 12
      vertex 85 5 12
    endloop
  endfacet
  facet normal 0 0 -1
    outer loop
      vertex 85 -9 12
      vertex 77.3669 0 12
      vertex 82.5863 0 12
    endloop
  endfacet
  facet normal 0 0 -1
    outer loop
      vertex 77.3669 0 12
      vertex 7.63309 0 12
      vertex 77.3669 5 12
    endloop
  endfacet
  facet normal 0 0 -1
    outer loop
      vertex 85 -9 12
      vertex 7.63309 0 12
      vertex 77.3669 0 12
    endloop
  endfacet
  facet normal 0 0 -1
    outer loop
      vertex 0 -9 12
      vertex 7.63309 0 12
      vertex 85 -9 12
    endloop
  endfacet
  facet normal -0 0 -1
    outer loop
      vertex 7.63309 0 12
      vertex 0 -9 12
      vertex 2.41367 0 12
    endloop
  endfacet
  facet normal 0 0 -1
    outer loop
      vertex 0 5 12
      vertex 2.41367 0 12
      vertex 0 -9 12
    endloop
  endfacet
  facet normal 0 0 -1
    outer loop
      vertex 2.41367 0 12
      vertex 0 5 12
      vertex 2.41367 5 12
    endloop
  endfacet
  facet normal -0 0 -1
    outer loop
      vertex 85 5 12
      vertex 82.5863 0 12
      vertex 82.5863 5 12
    endloop
  endfacet
  facet normal -0 0 -1
    outer loop
      vertex 77.3669 5 12
      vertex 7.63309 0 12
      vertex 7.63309 5 12
    endloop
  endfacet
  facet normal -1 0 0
    outer loop
      vertex 0 -9 12
      vertex 0 5 14.5
      vertex 0 5 12
    endloop
  endfacet
  facet normal -1 -0 0
    outer loop
      vertex 0 5 14.5
      vertex 0 -9 12
      vertex 0 -9 14.5
    endloop
  endfacet
  facet normal 0 -1 0
    outer loop
      vertex 0 -9 12
      vertex 85 -9 14.5
      vertex 0 -9 14.5
    endloop
  endfacet
  facet normal 0 -1 -0
    outer loop
      vertex 85 -9 14.5
      vertex 0 -9 12
      vertex 85 -9 12
    endloop
  endfacet
  facet normal 0 0 -1
    outer loop
      vertex 34.6223 0 135
      vertex 50.3777 5 135
      vertex 50.3777 0 135
    endloop
  endfacet
  facet normal -0 0 -1
    outer loop
      vertex 50.3777 5 135
      vertex 34.6223 0 135
      vertex 34.6223 5 135
    endloop
  endfacet
  facet normal -1 0 0
    outer loop
      vertex 44.65 0 137
      vertex 44.65 5 140
      vertex 44.65 5 137
    endloop
  endfacet
  facet normal -1 -0 0
    outer loop
      vertex 44.65 5 140
      vertex 44.65 0 137
      vertex 44.65 0 140
    endloop
  endfacet
  facet normal -0 0 1
    outer loop
      vertex 40.35 5 137
      vertex 44.65 0 137
      vertex 44.65 5 137
    endloop
  endfacet
  facet normal 0 0 1
    outer loop
      vertex 44.65 0 137
      vertex 40.35 5 137
      vertex 40.35 0 137
    endloop
  endfacet
  facet normal 1 -0 0
    outer loop
      vertex 40.35 0 140
      vertex 40.35 5 137
      vertex 40.35 5 140
    endloop
  endfacet
  facet normal 1 0 0
    outer loop
      vertex 40.35 5 137
      vertex 40.35 0 140
      vertex 40.35 0 137
    endloop
  endfacet
endsolid OpenSCAD_Model
