solid OpenSCAD_Model
  facet normal 0.972357 -0.233498 0
    outer loop
      vertex 89.8776 1.72746 5.3
      vertex 89.9692 2.10891 0
      vertex 89.9692 2.10891 5.3
    endloop
  endfacet
  facet normal 0.972357 -0.233498 0
    outer loop
      vertex 89.9692 2.10891 0
      vertex 89.8776 1.72746 5.3
      vertex 89.8776 1.72746 0
    endloop
  endfacet
  facet normal 0.996912 0.0785291 0
    outer loop
      vertex 90 104.3 5.3
      vertex 89.9692 104.691 0
      vertex 89.9692 104.691 5.3
    endloop
  endfacet
  facet normal 0.996912 0.0785291 0
    outer loop
      vertex 89.9692 104.691 0
      vertex 90 104.3 5.3
      vertex 90 104.3 0
    endloop
  endfacet
  facet normal 0.92374 0.38302 0
    outer loop
      vertex 89.8776 105.073 5.3
      vertex 89.7275 105.435 0
      vertex 89.7275 105.435 5.3
    endloop
  endfacet
  facet normal 0.92374 0.38302 0
    outer loop
      vertex 89.7275 105.435 0
      vertex 89.8776 105.073 5.3
      vertex 89.8776 105.073 0
    endloop
  endfacet
  facet normal 0.972433 0.23318 0
    outer loop
      vertex 89.9692 104.691 5.3
      vertex 89.8776 105.073 0
      vertex 89.8776 105.073 5.3
    endloop
  endfacet
  facet normal 0.972433 0.23318 0
    outer loop
      vertex 89.8776 105.073 0
      vertex 89.9692 104.691 5.3
      vertex 89.9692 104.691 0
    endloop
  endfacet
  facet normal 0.761248 0.648461 0
    outer loop
      vertex 89.5225 105.769 5.3
      vertex 89.2678 106.068 0
      vertex 89.2678 106.068 5.3
    endloop
  endfacet
  facet normal 0.761248 0.648461 0
    outer loop
      vertex 89.2678 106.068 0
      vertex 89.5225 105.769 5.3
      vertex 89.5225 105.769 0
    endloop
  endfacet
  facet normal -0.996916 0.0784756 0
    outer loop
      vertex 0 104.3 0
      vertex 0.0307789 104.691 5.3
      vertex 0.0307789 104.691 0
    endloop
  endfacet
  facet normal -0.996916 0.0784756 0
    outer loop
      vertex 0.0307789 104.691 5.3
      vertex 0 104.3 0
      vertex 0 104.3 5.3
    endloop
  endfacet
  facet normal -0.996917 -0.0784577 0
    outer loop
      vertex 0.0307789 2.10891 0
      vertex 0 2.5 5.3
      vertex 0 2.5 0
    endloop
  endfacet
  facet normal -0.996917 -0.0784577 0
    outer loop
      vertex 0 2.5 5.3
      vertex 0.0307789 2.10891 0
      vertex 0.0307789 2.10891 5.3
    endloop
  endfacet
  facet normal -0.852301 0.523052 0
    outer loop
      vertex 0.272483 105.435 0
      vertex 0.477457 105.769 5.3
      vertex 0.477457 105.769 0
    endloop
  endfacet
  facet normal -0.852301 0.523052 0
    outer loop
      vertex 0.477457 105.769 5.3
      vertex 0.272483 105.435 0
      vertex 0.272483 105.435 5.3
    endloop
  endfacet
  facet normal 0 0 -1
    outer loop
      vertex 87.5 0 0
      vertex 90 2.5 0
      vertex 89.9692 2.10891 0
    endloop
  endfacet
  facet normal 0 0 -1
    outer loop
      vertex 90 2.5 0
      vertex 78 13.5 0
      vertex 90 104.3 0
    endloop
  endfacet
  facet normal 0 0 -1
    outer loop
      vertex 87.5 0 0
      vertex 89.9692 2.10891 0
      vertex 89.8776 1.72746 0
    endloop
  endfacet
  facet normal 0 0 -1
    outer loop
      vertex 78 93.3 0
      vertex 90 104.3 0
      vertex 78 13.5 0
    endloop
  endfacet
  facet normal 0 0 -1
    outer loop
      vertex 87.5 0 0
      vertex 89.8776 1.72746 0
      vertex 89.7275 1.36502 0
    endloop
  endfacet
  facet normal 0 0 -1
    outer loop
      vertex 77.9815 93.5347 0
      vertex 90 104.3 0
      vertex 78 93.3 0
    endloop
  endfacet
  facet normal 0 0 -1
    outer loop
      vertex 87.5 0 0
      vertex 89.7275 1.36502 0
      vertex 89.5225 1.03054 0
    endloop
  endfacet
  facet normal 0 0 -1
    outer loop
      vertex 77.9266 93.7635 0
      vertex 90 104.3 0
      vertex 77.9815 93.5347 0
    endloop
  endfacet
  facet normal 0 0 -1
    outer loop
      vertex 87.5 0 0
      vertex 89.5225 1.03054 0
      vertex 89.2678 0.732232 0
    endloop
  endfacet
  facet normal 0 0 -1
    outer loop
      vertex 77.8365 93.981 0
      vertex 90 104.3 0
      vertex 77.9266 93.7635 0
    endloop
  endfacet
  facet normal 0 0 -1
    outer loop
      vertex 87.5 0 0
      vertex 89.2678 0.732232 0
      vertex 88.9695 0.477457 0
    endloop
  endfacet
  facet normal 0 0 -1
    outer loop
      vertex 77.7135 94.1817 0
      vertex 90 104.3 0
      vertex 77.8365 93.981 0
    endloop
  endfacet
  facet normal 0 0 -1
    outer loop
      vertex 87.5 0 0
      vertex 88.9695 0.477457 0
      vertex 88.635 0.272483 0
    endloop
  endfacet
  facet normal 0 0 -1
    outer loop
      vertex 77.5607 94.3607 0
      vertex 90 104.3 0
      vertex 77.7135 94.1817 0
    endloop
  endfacet
  facet normal 0 0 -1
    outer loop
      vertex 87.5 0 0
      vertex 88.635 0.272483 0
      vertex 88.2725 0.122358 0
    endloop
  endfacet
  facet normal 0 -0 -1
    outer loop
      vertex 87.5 106.8 0
      vertex 90 104.3 0
      vertex 77.5607 94.3607 0
    endloop
  endfacet
  facet normal 0 0 -1
    outer loop
      vertex 87.5 0 0
      vertex 88.2725 0.122358 0
      vertex 87.8911 0.0307789 0
    endloop
  endfacet
  facet normal 0 0 -1
    outer loop
      vertex 89.9692 104.691 0
      vertex 87.5 106.8 0
      vertex 89.8776 105.073 0
    endloop
  endfacet
  facet normal -0 0 -1
    outer loop
      vertex 90 2.5 0
      vertex 87.5 0 0
      vertex 77.5607 12.4393 0
    endloop
  endfacet
  facet normal 0 0 -1
    outer loop
      vertex 89.8776 105.073 0
      vertex 87.5 106.8 0
      vertex 89.7275 105.435 0
    endloop
  endfacet
  facet normal 0 0 -1
    outer loop
      vertex 89.5225 105.769 0
      vertex 87.5 106.8 0
      vertex 89.2678 106.068 0
    endloop
  endfacet
  facet normal 0 0 -1
    outer loop
      vertex 90 2.5 0
      vertex 77.9815 13.2653 0
      vertex 78 13.5 0
    endloop
  endfacet
  facet normal 0 0 -1
    outer loop
      vertex 90 2.5 0
      vertex 77.9266 13.0365 0
      vertex 77.9815 13.2653 0
    endloop
  endfacet
  facet normal 0 0 -1
    outer loop
      vertex 90 2.5 0
      vertex 77.8365 12.819 0
      vertex 77.9266 13.0365 0
    endloop
  endfacet
  facet normal 0 0 -1
    outer loop
      vertex 90 2.5 0
      vertex 77.7135 12.6183 0
      vertex 77.8365 12.819 0
    endloop
  endfacet
  facet normal 0 0 -1
    outer loop
      vertex 90 2.5 0
      vertex 77.5607 12.4393 0
      vertex 77.7135 12.6183 0
    endloop
  endfacet
  facet normal 0 0 -1
    outer loop
      vertex 87.5 0 0
      vertex 77.3817 12.2865 0
      vertex 77.5607 12.4393 0
    endloop
  endfacet
  facet normal 0 0 -1
    outer loop
      vertex 87.5 0 0
      vertex 77.181 12.1635 0
      vertex 77.3817 12.2865 0
    endloop
  endfacet
  facet normal 0 0 -1
    outer loop
      vertex 87.5 0 0
      vertex 76.9635 12.0734 0
      vertex 77.181 12.1635 0
    endloop
  endfacet
  facet normal 0 0 -1
    outer loop
      vertex 87.5 0 0
      vertex 76.7346 12.0185 0
      vertex 76.9635 12.0734 0
    endloop
  endfacet
  facet normal 0 0 -1
    outer loop
      vertex 87.5 0 0
      vertex 76.5 12 0
      vertex 76.7346 12.0185 0
    endloop
  endfacet
  facet normal 0 0 -1
    outer loop
      vertex 87.5 0 0
      vertex 13.5 12 0
      vertex 76.5 12 0
    endloop
  endfacet
  facet normal 0 0 -1
    outer loop
      vertex 2.5 0 0
      vertex 13.5 12 0
      vertex 87.5 0 0
    endloop
  endfacet
  facet normal -0 0 -1
    outer loop
      vertex 12.0185 13.2653 0
      vertex 0 2.5 0
      vertex 12 13.5 0
    endloop
  endfacet
  facet normal -0 0 -1
    outer loop
      vertex 12.0734 13.0365 0
      vertex 0 2.5 0
      vertex 12.0185 13.2653 0
    endloop
  endfacet
  facet normal -0 0 -1
    outer loop
      vertex 12.1635 12.819 0
      vertex 0 2.5 0
      vertex 12.0734 13.0365 0
    endloop
  endfacet
  facet normal -0 0 -1
    outer loop
      vertex 12.2865 12.6183 0
      vertex 0 2.5 0
      vertex 12.1635 12.819 0
    endloop
  endfacet
  facet normal -0 0 -1
    outer loop
      vertex 12.4393 12.4393 0
      vertex 0 2.5 0
      vertex 12.2865 12.6183 0
    endloop
  endfacet
  facet normal 0 0 -1
    outer loop
      vertex 0 2.5 0
      vertex 12.4393 12.4393 0
      vertex 2.5 0 0
    endloop
  endfacet
  facet normal -0 0 -1
    outer loop
      vertex 12.6183 12.2865 0
      vertex 2.5 0 0
      vertex 12.4393 12.4393 0
    endloop
  endfacet
  facet normal -0 0 -1
    outer loop
      vertex 12.819 12.1635 0
      vertex 2.5 0 0
      vertex 12.6183 12.2865 0
    endloop
  endfacet
  facet normal -0 0 -1
    outer loop
      vertex 13.0365 12.0734 0
      vertex 2.5 0 0
      vertex 12.819 12.1635 0
    endloop
  endfacet
  facet normal -0 0 -1
    outer loop
      vertex 13.2653 12.0185 0
      vertex 2.5 0 0
      vertex 13.0365 12.0734 0
    endloop
  endfacet
  facet normal -0 0 -1
    outer loop
      vertex 13.5 12 0
      vertex 2.5 0 0
      vertex 13.2653 12.0185 0
    endloop
  endfacet
  facet normal 0 0 -1
    outer loop
      vertex 89.2678 106.068 0
      vertex 87.5 106.8 0
      vertex 88.9695 106.323 0
    endloop
  endfacet
  facet normal 0 0 -1
    outer loop
      vertex 88.9695 106.323 0
      vertex 87.5 106.8 0
      vertex 88.635 106.528 0
    endloop
  endfacet
  facet normal 0 0 -1
    outer loop
      vertex 88.2725 106.678 0
      vertex 87.5 106.8 0
      vertex 87.8911 106.769 0
    endloop
  endfacet
  facet normal 0 0 -1
    outer loop
      vertex 88.635 106.528 0
      vertex 87.5 106.8 0
      vertex 88.2725 106.678 0
    endloop
  endfacet
  facet normal 0 0 -1
    outer loop
      vertex 89.7275 105.435 0
      vertex 87.5 106.8 0
      vertex 89.5225 105.769 0
    endloop
  endfacet
  facet normal 0 0 -1
    outer loop
      vertex 90 104.3 0
      vertex 87.5 106.8 0
      vertex 89.9692 104.691 0
    endloop
  endfacet
  facet normal 0 0 -1
    outer loop
      vertex 77.3817 94.5135 0
      vertex 87.5 106.8 0
      vertex 77.5607 94.3607 0
    endloop
  endfacet
  facet normal 0 0 -1
    outer loop
      vertex 77.181 94.6365 0
      vertex 87.5 106.8 0
      vertex 77.3817 94.5135 0
    endloop
  endfacet
  facet normal 0 0 -1
    outer loop
      vertex 76.9635 94.7266 0
      vertex 87.5 106.8 0
      vertex 77.181 94.6365 0
    endloop
  endfacet
  facet normal 0 0 -1
    outer loop
      vertex 76.7346 94.7815 0
      vertex 87.5 106.8 0
      vertex 76.9635 94.7266 0
    endloop
  endfacet
  facet normal 0 0 -1
    outer loop
      vertex 76.5 94.8 0
      vertex 87.5 106.8 0
      vertex 76.7346 94.7815 0
    endloop
  endfacet
  facet normal 0 0 -1
    outer loop
      vertex 13.5 94.8 0
      vertex 87.5 106.8 0
      vertex 76.5 94.8 0
    endloop
  endfacet
  facet normal 0 0 -1
    outer loop
      vertex 2.5 106.8 0
      vertex 13.5 94.8 0
      vertex 13.2653 94.7815 0
    endloop
  endfacet
  facet normal -0 0 -1
    outer loop
      vertex 12 13.5 0
      vertex 0 2.5 0
      vertex 12 93.3 0
    endloop
  endfacet
  facet normal 0 0 -1
    outer loop
      vertex 13.5 94.8 0
      vertex 2.5 106.8 0
      vertex 87.5 106.8 0
    endloop
  endfacet
  facet normal 0 0 -1
    outer loop
      vertex 13.0365 94.7266 0
      vertex 2.5 106.8 0
      vertex 13.2653 94.7815 0
    endloop
  endfacet
  facet normal 0 0 -1
    outer loop
      vertex 12.819 94.6365 0
      vertex 2.5 106.8 0
      vertex 13.0365 94.7266 0
    endloop
  endfacet
  facet normal 0 0 -1
    outer loop
      vertex 12.6183 94.5135 0
      vertex 2.5 106.8 0
      vertex 12.819 94.6365 0
    endloop
  endfacet
  facet normal 0 0 -1
    outer loop
      vertex 12.4393 94.3607 0
      vertex 2.5 106.8 0
      vertex 12.6183 94.5135 0
    endloop
  endfacet
  facet normal 0 0 -1
    outer loop
      vertex 0 104.3 0
      vertex 12.4393 94.3607 0
      vertex 12.2865 94.1817 0
    endloop
  endfacet
  facet normal 0 0 -1
    outer loop
      vertex 0 104.3 0
      vertex 12.2865 94.1817 0
      vertex 12.1635 93.981 0
    endloop
  endfacet
  facet normal 0 0 -1
    outer loop
      vertex 0 104.3 0
      vertex 12.1635 93.981 0
      vertex 12.0734 93.7635 0
    endloop
  endfacet
  facet normal 0 0 -1
    outer loop
      vertex 0 104.3 0
      vertex 12.0734 93.7635 0
      vertex 12.0185 93.5347 0
    endloop
  endfacet
  facet normal 0 0 -1
    outer loop
      vertex 0 104.3 0
      vertex 12 93.3 0
      vertex 0 2.5 0
    endloop
  endfacet
  facet normal 0 0 -1
    outer loop
      vertex 0 2.5 0
      vertex 2.5 0 0
      vertex 2.10891 0.0307789 0
    endloop
  endfacet
  facet normal 0 0 -1
    outer loop
      vertex 12 93.3 0
      vertex 0 104.3 0
      vertex 12.0185 93.5347 0
    endloop
  endfacet
  facet normal 0 0 -1
    outer loop
      vertex 0 2.5 0
      vertex 2.10891 0.0307789 0
      vertex 1.72746 0.122358 0
    endloop
  endfacet
  facet normal 0 0 -1
    outer loop
      vertex 12.4393 94.3607 0
      vertex 0 104.3 0
      vertex 2.5 106.8 0
    endloop
  endfacet
  facet normal 0 0 -1
    outer loop
      vertex 0 2.5 0
      vertex 1.72746 0.122358 0
      vertex 1.36502 0.272483 0
    endloop
  endfacet
  facet normal 0 0 -1
    outer loop
      vertex 2.5 106.8 0
      vertex 0 104.3 0
      vertex 2.10891 106.769 0
    endloop
  endfacet
  facet normal 0 0 -1
    outer loop
      vertex 0 2.5 0
      vertex 1.36502 0.272483 0
      vertex 1.03054 0.477457 0
    endloop
  endfacet
  facet normal 0 0 -1
    outer loop
      vertex 2.10891 106.769 0
      vertex 0 104.3 0
      vertex 1.72746 106.678 0
    endloop
  endfacet
  facet normal 0 0 -1
    outer loop
      vertex 0 2.5 0
      vertex 1.03054 0.477457 0
      vertex 0.732232 0.732232 0
    endloop
  endfacet
  facet normal 0 0 -1
    outer loop
      vertex 1.72746 106.678 0
      vertex 0 104.3 0
      vertex 1.36502 106.528 0
    endloop
  endfacet
  facet normal 0 0 -1
    outer loop
      vertex 0 2.5 0
      vertex 0.732232 0.732232 0
      vertex 0.477457 1.03054 0
    endloop
  endfacet
  facet normal 0 0 -1
    outer loop
      vertex 1.36502 106.528 0
      vertex 0 104.3 0
      vertex 1.03054 106.323 0
    endloop
  endfacet
  facet normal 0 0 -1
    outer loop
      vertex 0 2.5 0
      vertex 0.477457 1.03054 0
      vertex 0.272483 1.36502 0
    endloop
  endfacet
  facet normal 0 0 -1
    outer loop
      vertex 1.03054 106.323 0
      vertex 0 104.3 0
      vertex 0.732232 106.068 0
    endloop
  endfacet
  facet normal 0 0 -1
    outer loop
      vertex 0 2.5 0
      vertex 0.272483 1.36502 0
      vertex 0.122358 1.72746 0
    endloop
  endfacet
  facet normal 0 0 -1
    outer loop
      vertex 0.732232 106.068 0
      vertex 0 104.3 0
      vertex 0.477457 105.769 0
    endloop
  endfacet
  facet normal 0 0 -1
    outer loop
      vertex 0 2.5 0
      vertex 0.122358 1.72746 0
      vertex 0.0307789 2.10891 0
    endloop
  endfacet
  facet normal 0 0 -1
    outer loop
      vertex 0.477457 105.769 0
      vertex 0 104.3 0
      vertex 0.272483 105.435 0
    endloop
  endfacet
  facet normal 0 0 -1
    outer loop
      vertex 0.272483 105.435 0
      vertex 0 104.3 0
      vertex 0.122358 105.073 0
    endloop
  endfacet
  facet normal 0 0 -1
    outer loop
      vertex 0.122358 105.073 0
      vertex 0 104.3 0
      vertex 0.0307789 104.691 0
    endloop
  endfacet
  facet normal -0.0784577 -0.996917 0
    outer loop
      vertex 2.10891 0.0307789 0
      vertex 2.5 0 5.3
      vertex 2.10891 0.0307789 5.3
    endloop
  endfacet
  facet normal -0.0784577 -0.996917 -0
    outer loop
      vertex 2.5 0 5.3
      vertex 2.10891 0.0307789 0
      vertex 2.5 0 0
    endloop
  endfacet
  facet normal 0.852271 0.5231 0
    outer loop
      vertex 89.7275 105.435 5.3
      vertex 89.5225 105.769 0
      vertex 89.5225 105.769 5.3
    endloop
  endfacet
  facet normal 0.852271 0.5231 0
    outer loop
      vertex 89.5225 105.769 0
      vertex 89.7275 105.435 5.3
      vertex 89.7275 105.435 0
    endloop
  endfacet
  facet normal -0.233448 -0.972369 0
    outer loop
      vertex 1.72746 0.122358 0
      vertex 2.10891 0.0307789 5.3
      vertex 1.72746 0.122358 5.3
    endloop
  endfacet
  facet normal -0.233448 -0.972369 -0
    outer loop
      vertex 2.10891 0.0307789 5.3
      vertex 1.72746 0.122358 0
      vertex 2.10891 0.0307789 0
    endloop
  endfacet
  facet normal -1 0 0
    outer loop
      vertex 0 2.5 0
      vertex 0 104.3 5.3
      vertex 0 104.3 0
    endloop
  endfacet
  facet normal -1 -0 0
    outer loop
      vertex 0 104.3 5.3
      vertex 0 2.5 0
      vertex 0 2.5 5.3
    endloop
  endfacet
  facet normal -0.649442 -0.760411 0
    outer loop
      vertex 0.732232 0.732232 0
      vertex 1.03054 0.477457 5.3
      vertex 0.732232 0.732232 5.3
    endloop
  endfacet
  facet normal -0.649442 -0.760411 -0
    outer loop
      vertex 1.03054 0.477457 5.3
      vertex 0.732232 0.732232 0
      vertex 1.03054 0.477457 0
    endloop
  endfacet
  facet normal 0.649784 0.760119 -0
    outer loop
      vertex 89.2678 106.068 0
      vertex 88.9695 106.323 5.3
      vertex 89.2678 106.068 5.3
    endloop
  endfacet
  facet normal 0.649784 0.760119 0
    outer loop
      vertex 88.9695 106.323 5.3
      vertex 89.2678 106.068 0
      vertex 88.9695 106.323 0
    endloop
  endfacet
  facet normal 1 -0 0
    outer loop
      vertex 90 2.5 5.3
      vertex 90 104.3 0
      vertex 90 104.3 5.3
    endloop
  endfacet
  facet normal 1 0 0
    outer loop
      vertex 90 104.3 0
      vertex 90 2.5 5.3
      vertex 90 2.5 0
    endloop
  endfacet
  facet normal -0.649773 0.760128 0
    outer loop
      vertex 1.03054 106.323 0
      vertex 0.732232 106.068 5.3
      vertex 1.03054 106.323 5.3
    endloop
  endfacet
  facet normal -0.649773 0.760128 0
    outer loop
      vertex 0.732232 106.068 5.3
      vertex 1.03054 106.323 0
      vertex 0.732232 106.068 0
    endloop
  endfacet
  facet normal 0 -1 0
    outer loop
      vertex 2.5 0 0
      vertex 87.5 0 5.3
      vertex 2.5 0 5.3
    endloop
  endfacet
  facet normal 0 -1 -0
    outer loop
      vertex 87.5 0 5.3
      vertex 2.5 0 0
      vertex 87.5 0 0
    endloop
  endfacet
  facet normal 0.522532 0.85262 -0
    outer loop
      vertex 88.9695 106.323 0
      vertex 88.635 106.528 5.3
      vertex 88.9695 106.323 5.3
    endloop
  endfacet
  facet normal 0.522532 0.85262 0
    outer loop
      vertex 88.635 106.528 5.3
      vertex 88.9695 106.323 0
      vertex 88.635 106.528 0
    endloop
  endfacet
  facet normal 0 1 -0
    outer loop
      vertex 87.5 106.8 0
      vertex 2.5 106.8 5.3
      vertex 87.5 106.8 5.3
    endloop
  endfacet
  facet normal 0 1 0
    outer loop
      vertex 2.5 106.8 5.3
      vertex 87.5 106.8 0
      vertex 2.5 106.8 0
    endloop
  endfacet
  facet normal 0.23208 0.972697 -0
    outer loop
      vertex 88.2725 106.678 0
      vertex 87.8911 106.769 5.3
      vertex 88.2725 106.678 5.3
    endloop
  endfacet
  facet normal 0.23208 0.972697 0
    outer loop
      vertex 87.8911 106.769 5.3
      vertex 88.2725 106.678 0
      vertex 87.8911 106.769 0
    endloop
  endfacet
  facet normal -0.522555 0.852606 0
    outer loop
      vertex 1.36502 106.528 0
      vertex 1.03054 106.323 5.3
      vertex 1.36502 106.528 5.3
    endloop
  endfacet
  facet normal -0.522555 0.852606 0
    outer loop
      vertex 1.03054 106.323 5.3
      vertex 1.36502 106.528 0
      vertex 1.03054 106.323 0
    endloop
  endfacet
  facet normal 0.382352 0.924017 -0
    outer loop
      vertex 88.635 106.528 0
      vertex 88.2725 106.678 5.3
      vertex 88.635 106.528 5.3
    endloop
  endfacet
  facet normal 0.382352 0.924017 0
    outer loop
      vertex 88.2725 106.678 5.3
      vertex 88.635 106.528 0
      vertex 88.2725 106.678 0
    endloop
  endfacet
  facet normal 0.760506 -0.649331 0
    outer loop
      vertex 89.2678 0.732232 5.3
      vertex 89.5225 1.03054 0
      vertex 89.5225 1.03054 5.3
    endloop
  endfacet
  facet normal 0.760506 -0.649331 0
    outer loop
      vertex 89.5225 1.03054 0
      vertex 89.2678 0.732232 5.3
      vertex 89.2678 0.732232 0
    endloop
  endfacet
  facet normal -0.972446 0.23313 0
    outer loop
      vertex 0.0307789 104.691 0
      vertex 0.122358 105.073 5.3
      vertex 0.122358 105.073 0
    endloop
  endfacet
  facet normal -0.972446 0.23313 0
    outer loop
      vertex 0.122358 105.073 5.3
      vertex 0.0307789 104.691 0
      vertex 0.0307789 104.691 5.3
    endloop
  endfacet
  facet normal -0.923717 0.383075 0
    outer loop
      vertex 0.122358 105.073 0
      vertex 0.272483 105.435 5.3
      vertex 0.272483 105.435 0
    endloop
  endfacet
  facet normal -0.923717 0.383075 0
    outer loop
      vertex 0.272483 105.435 5.3
      vertex 0.122358 105.073 0
      vertex 0.122358 105.073 5.3
    endloop
  endfacet
  facet normal 0.996913 -0.0785112 0
    outer loop
      vertex 89.9692 2.10891 5.3
      vertex 90 2.5 0
      vertex 90 2.5 5.3
    endloop
  endfacet
  facet normal 0.996913 -0.0785112 0
    outer loop
      vertex 90 2.5 0
      vertex 89.9692 2.10891 5.3
      vertex 89.9692 2.10891 0
    endloop
  endfacet
  facet normal 0.649452 -0.760403 0
    outer loop
      vertex 88.9695 0.477457 0
      vertex 89.2678 0.732232 5.3
      vertex 88.9695 0.477457 5.3
    endloop
  endfacet
  facet normal 0.649452 -0.760403 0
    outer loop
      vertex 89.2678 0.732232 5.3
      vertex 88.9695 0.477457 0
      vertex 89.2678 0.732232 0
    endloop
  endfacet
  facet normal -0.760411 -0.649442 0
    outer loop
      vertex 0.732232 0.732232 0
      vertex 0.477457 1.03054 5.3
      vertex 0.477457 1.03054 0
    endloop
  endfacet
  facet normal -0.760411 -0.649442 0
    outer loop
      vertex 0.477457 1.03054 5.3
      vertex 0.732232 0.732232 0
      vertex 0.732232 0.732232 5.3
    endloop
  endfacet
  facet normal -0.382406 0.923994 0
    outer loop
      vertex 1.72746 106.678 0
      vertex 1.36502 106.528 5.3
      vertex 1.72746 106.678 5.3
    endloop
  endfacet
  facet normal -0.382406 0.923994 0
    outer loop
      vertex 1.36502 106.528 5.3
      vertex 1.72746 106.678 0
      vertex 1.36502 106.528 0
    endloop
  endfacet
  facet normal 0.0790158 0.996873 -0
    outer loop
      vertex 87.8911 106.769 0
      vertex 87.5 106.8 5.3
      vertex 87.8911 106.769 5.3
    endloop
  endfacet
  facet normal 0.0790158 0.996873 0
    outer loop
      vertex 87.5 106.8 5.3
      vertex 87.8911 106.769 0
      vertex 87.5 106.8 0
    endloop
  endfacet
  facet normal 0.233477 -0.972362 0
    outer loop
      vertex 87.8911 0.0307789 0
      vertex 88.2725 0.122358 5.3
      vertex 87.8911 0.0307789 5.3
    endloop
  endfacet
  facet normal 0.233477 -0.972362 0
    outer loop
      vertex 88.2725 0.122358 5.3
      vertex 87.8911 0.0307789 0
      vertex 88.2725 0.122358 0
    endloop
  endfacet
  facet normal -0.972369 -0.233448 0
    outer loop
      vertex 0.122358 1.72746 0
      vertex 0.0307789 2.10891 5.3
      vertex 0.0307789 2.10891 0
    endloop
  endfacet
  facet normal -0.972369 -0.233448 0
    outer loop
      vertex 0.0307789 2.10891 5.3
      vertex 0.122358 1.72746 0
      vertex 0.122358 1.72746 5.3
    endloop
  endfacet
  facet normal 0.852606 -0.522555 0
    outer loop
      vertex 89.5225 1.03054 5.3
      vertex 89.7275 1.36502 0
      vertex 89.7275 1.36502 5.3
    endloop
  endfacet
  facet normal 0.852606 -0.522555 0
    outer loop
      vertex 89.7275 1.36502 0
      vertex 89.5225 1.03054 5.3
      vertex 89.5225 1.03054 0
    endloop
  endfacet
  facet normal 0 0 1
    outer loop
      vertex 87.5 106.8 5.3
      vertex 90 104.3 5.3
      vertex 89.9692 104.691 5.3
    endloop
  endfacet
  facet normal 0 0 1
    outer loop
      vertex 90 104.3 5.3
      vertex 82.8 105.2 5.3
      vertex 90 2.5 5.3
    endloop
  endfacet
  facet normal 0 0 1
    outer loop
      vertex 87.5 106.8 5.3
      vertex 89.9692 104.691 5.3
      vertex 89.8776 105.073 5.3
    endloop
  endfacet
  facet normal 0 0 1
    outer loop
      vertex 82.8 1.6 5.3
      vertex 90 2.5 5.3
      vertex 82.8 105.2 5.3
    endloop
  endfacet
  facet normal 0 0 1
    outer loop
      vertex 87.5 106.8 5.3
      vertex 89.8776 105.073 5.3
      vertex 89.7275 105.435 5.3
    endloop
  endfacet
  facet normal 0 -0 1
    outer loop
      vertex 87.5 0 5.3
      vertex 90 2.5 5.3
      vertex 82.8 1.6 5.3
    endloop
  endfacet
  facet normal 0 0 1
    outer loop
      vertex 87.5 106.8 5.3
      vertex 89.7275 105.435 5.3
      vertex 89.5225 105.769 5.3
    endloop
  endfacet
  facet normal 0 0 1
    outer loop
      vertex 90 2.5 5.3
      vertex 87.5 0 5.3
      vertex 89.9692 2.10891 5.3
    endloop
  endfacet
  facet normal 0 0 1
    outer loop
      vertex 87.5 106.8 5.3
      vertex 89.5225 105.769 5.3
      vertex 89.2678 106.068 5.3
    endloop
  endfacet
  facet normal 0 0 1
    outer loop
      vertex 89.9692 2.10891 5.3
      vertex 87.5 0 5.3
      vertex 89.8776 1.72746 5.3
    endloop
  endfacet
  facet normal 0 0 1
    outer loop
      vertex 87.5 106.8 5.3
      vertex 89.2678 106.068 5.3
      vertex 88.9695 106.323 5.3
    endloop
  endfacet
  facet normal 0 0 1
    outer loop
      vertex 89.8776 1.72746 5.3
      vertex 87.5 0 5.3
      vertex 89.7275 1.36502 5.3
    endloop
  endfacet
  facet normal 0 0 1
    outer loop
      vertex 87.5 106.8 5.3
      vertex 88.9695 106.323 5.3
      vertex 88.635 106.528 5.3
    endloop
  endfacet
  facet normal 0 0 1
    outer loop
      vertex 89.7275 1.36502 5.3
      vertex 87.5 0 5.3
      vertex 89.5225 1.03054 5.3
    endloop
  endfacet
  facet normal 0 0 1
    outer loop
      vertex 87.5 106.8 5.3
      vertex 88.635 106.528 5.3
      vertex 88.2725 106.678 5.3
    endloop
  endfacet
  facet normal 0 0 1
    outer loop
      vertex 89.5225 1.03054 5.3
      vertex 87.5 0 5.3
      vertex 89.2678 0.732232 5.3
    endloop
  endfacet
  facet normal 0 0 1
    outer loop
      vertex 87.5 106.8 5.3
      vertex 88.2725 106.678 5.3
      vertex 87.8911 106.769 5.3
    endloop
  endfacet
  facet normal 0 0 1
    outer loop
      vertex 89.2678 0.732232 5.3
      vertex 87.5 0 5.3
      vertex 88.9695 0.477457 5.3
    endloop
  endfacet
  facet normal 0 0 1
    outer loop
      vertex 90 104.3 5.3
      vertex 87.5 106.8 5.3
      vertex 82.8 105.2 5.3
    endloop
  endfacet
  facet normal 0 0 1
    outer loop
      vertex 88.9695 0.477457 5.3
      vertex 87.5 0 5.3
      vertex 88.635 0.272483 5.3
    endloop
  endfacet
  facet normal 0 0 1
    outer loop
      vertex 88.635 0.272483 5.3
      vertex 87.5 0 5.3
      vertex 88.2725 0.122358 5.3
    endloop
  endfacet
  facet normal -0 0 1
    outer loop
      vertex 2.5 106.8 5.3
      vertex 82.8 105.2 5.3
      vertex 87.5 106.8 5.3
    endloop
  endfacet
  facet normal -0 0 1
    outer loop
      vertex 2.10891 106.769 5.3
      vertex 3.7 105.2 5.3
      vertex 2.5 106.8 5.3
    endloop
  endfacet
  facet normal 0 0 1
    outer loop
      vertex 82.8 105.2 5.3
      vertex 2.5 106.8 5.3
      vertex 3.7 105.2 5.3
    endloop
  endfacet
  facet normal 0 0 1
    outer loop
      vertex 88.2725 0.122358 5.3
      vertex 87.5 0 5.3
      vertex 87.8911 0.0307789 5.3
    endloop
  endfacet
  facet normal 0 0 1
    outer loop
      vertex 2.5 0 5.3
      vertex 82.8 1.6 5.3
      vertex 3.7 1.6 5.3
    endloop
  endfacet
  facet normal 0 0 1
    outer loop
      vertex 82.8 1.6 5.3
      vertex 2.5 0 5.3
      vertex 87.5 0 5.3
    endloop
  endfacet
  facet normal 0 0 1
    outer loop
      vertex 3.7 105.2 5.3
      vertex 0 104.3 5.3
      vertex 3.7 1.6 5.3
    endloop
  endfacet
  facet normal -0 0 1
    outer loop
      vertex 1.72746 106.678 5.3
      vertex 3.7 105.2 5.3
      vertex 2.10891 106.769 5.3
    endloop
  endfacet
  facet normal -0 0 1
    outer loop
      vertex 0 2.5 5.3
      vertex 3.7 1.6 5.3
      vertex 0 104.3 5.3
    endloop
  endfacet
  facet normal -0 0 1
    outer loop
      vertex 1.36502 106.528 5.3
      vertex 3.7 105.2 5.3
      vertex 1.72746 106.678 5.3
    endloop
  endfacet
  facet normal -0 -0 1
    outer loop
      vertex 0.0307789 2.10891 5.3
      vertex 3.7 1.6 5.3
      vertex 0 2.5 5.3
    endloop
  endfacet
  facet normal -0 0 1
    outer loop
      vertex 1.03054 106.323 5.3
      vertex 3.7 105.2 5.3
      vertex 1.36502 106.528 5.3
    endloop
  endfacet
  facet normal 0 0 1
    outer loop
      vertex 3.7 1.6 5.3
      vertex 2.10891 0.0307789 5.3
      vertex 2.5 0 5.3
    endloop
  endfacet
  facet normal -0 0 1
    outer loop
      vertex 0.732232 106.068 5.3
      vertex 3.7 105.2 5.3
      vertex 1.03054 106.323 5.3
    endloop
  endfacet
  facet normal 0 0 1
    outer loop
      vertex 3.7 1.6 5.3
      vertex 1.72746 0.122358 5.3
      vertex 2.10891 0.0307789 5.3
    endloop
  endfacet
  facet normal -0 0 1
    outer loop
      vertex 0.477457 105.769 5.3
      vertex 3.7 105.2 5.3
      vertex 0.732232 106.068 5.3
    endloop
  endfacet
  facet normal 0 0 1
    outer loop
      vertex 3.7 1.6 5.3
      vertex 1.36502 0.272483 5.3
      vertex 1.72746 0.122358 5.3
    endloop
  endfacet
  facet normal -0 0 1
    outer loop
      vertex 0.272483 105.435 5.3
      vertex 3.7 105.2 5.3
      vertex 0.477457 105.769 5.3
    endloop
  endfacet
  facet normal 0 0 1
    outer loop
      vertex 3.7 1.6 5.3
      vertex 1.03054 0.477457 5.3
      vertex 1.36502 0.272483 5.3
    endloop
  endfacet
  facet normal 0 0 1
    outer loop
      vertex 0.122358 105.073 5.3
      vertex 3.7 105.2 5.3
      vertex 0.272483 105.435 5.3
    endloop
  endfacet
  facet normal 0 0 1
    outer loop
      vertex 3.7 1.6 5.3
      vertex 0.732232 0.732232 5.3
      vertex 1.03054 0.477457 5.3
    endloop
  endfacet
  facet normal 0 0 1
    outer loop
      vertex 0.0307789 104.691 5.3
      vertex 3.7 105.2 5.3
      vertex 0.122358 105.073 5.3
    endloop
  endfacet
  facet normal 0 0 1
    outer loop
      vertex 3.7 1.6 5.3
      vertex 0.477457 1.03054 5.3
      vertex 0.732232 0.732232 5.3
    endloop
  endfacet
  facet normal 0 0 1
    outer loop
      vertex 3.7 105.2 5.3
      vertex 0.0307789 104.691 5.3
      vertex 0 104.3 5.3
    endloop
  endfacet
  facet normal 0 0 1
    outer loop
      vertex 3.7 1.6 5.3
      vertex 0.272483 1.36502 5.3
      vertex 0.477457 1.03054 5.3
    endloop
  endfacet
  facet normal 0 0 1
    outer loop
      vertex 3.7 1.6 5.3
      vertex 0.122358 1.72746 5.3
      vertex 0.272483 1.36502 5.3
    endloop
  endfacet
  facet normal 0 0 1
    outer loop
      vertex 3.7 1.6 5.3
      vertex 0.0307789 2.10891 5.3
      vertex 0.122358 1.72746 5.3
    endloop
  endfacet
  facet normal 0.522484 -0.852649 0
    outer loop
      vertex 88.635 0.272483 0
      vertex 88.9695 0.477457 5.3
      vertex 88.635 0.272483 5.3
    endloop
  endfacet
  facet normal 0.522484 -0.852649 0
    outer loop
      vertex 88.9695 0.477457 5.3
      vertex 88.635 0.272483 0
      vertex 88.9695 0.477457 0
    endloop
  endfacet
  facet normal 0.923904 -0.382623 0
    outer loop
      vertex 89.7275 1.36502 5.3
      vertex 89.8776 1.72746 0
      vertex 89.8776 1.72746 5.3
    endloop
  endfacet
  facet normal 0.923904 -0.382623 0
    outer loop
      vertex 89.8776 1.72746 0
      vertex 89.7275 1.36502 5.3
      vertex 89.7275 1.36502 0
    endloop
  endfacet
  facet normal 0.0784557 -0.996918 0
    outer loop
      vertex 87.5 0 0
      vertex 87.8911 0.0307789 5.3
      vertex 87.5 0 5.3
    endloop
  endfacet
  facet normal 0.0784557 -0.996918 0
    outer loop
      vertex 87.8911 0.0307789 5.3
      vertex 87.5 0 0
      vertex 87.8911 0.0307789 0
    endloop
  endfacet
  facet normal -0.232051 0.972704 0
    outer loop
      vertex 2.10891 106.769 0
      vertex 1.72746 106.678 5.3
      vertex 2.10891 106.769 5.3
    endloop
  endfacet
  facet normal -0.232051 0.972704 0
    outer loop
      vertex 1.72746 106.678 5.3
      vertex 2.10891 106.769 0
      vertex 1.72746 106.678 0
    endloop
  endfacet
  facet normal -0.923882 -0.382678 0
    outer loop
      vertex 0.272483 1.36502 0
      vertex 0.122358 1.72746 5.3
      vertex 0.122358 1.72746 0
    endloop
  endfacet
  facet normal -0.923882 -0.382678 0
    outer loop
      vertex 0.122358 1.72746 5.3
      vertex 0.272483 1.36502 0
      vertex 0.272483 1.36502 5.3
    endloop
  endfacet
  facet normal -0.0790178 0.996873 0
    outer loop
      vertex 2.5 106.8 0
      vertex 2.10891 106.769 5.3
      vertex 2.5 106.8 5.3
    endloop
  endfacet
  facet normal -0.0790178 0.996873 0
    outer loop
      vertex 2.10891 106.769 5.3
      vertex 2.5 106.8 0
      vertex 2.10891 106.769 0
    endloop
  endfacet
  facet normal -0.761154 0.648572 0
    outer loop
      vertex 0.477457 105.769 0
      vertex 0.732232 106.068 5.3
      vertex 0.732232 106.068 0
    endloop
  endfacet
  facet normal -0.761154 0.648572 0
    outer loop
      vertex 0.732232 106.068 5.3
      vertex 0.477457 105.769 0
      vertex 0.477457 105.769 5.3
    endloop
  endfacet
  facet normal -0.382678 -0.923882 0
    outer loop
      vertex 1.36502 0.272483 0
      vertex 1.72746 0.122358 5.3
      vertex 1.36502 0.272483 5.3
    endloop
  endfacet
  facet normal -0.382678 -0.923882 -0
    outer loop
      vertex 1.72746 0.122358 5.3
      vertex 1.36502 0.272483 0
      vertex 1.72746 0.122358 0
    endloop
  endfacet
  facet normal -0.852635 -0.522507 0
    outer loop
      vertex 0.477457 1.03054 0
      vertex 0.272483 1.36502 5.3
      vertex 0.272483 1.36502 0
    endloop
  endfacet
  facet normal -0.852635 -0.522507 0
    outer loop
      vertex 0.272483 1.36502 5.3
      vertex 0.477457 1.03054 0
      vertex 0.477457 1.03054 5.3
    endloop
  endfacet
  facet normal -0.522507 -0.852635 0
    outer loop
      vertex 1.03054 0.477457 0
      vertex 1.36502 0.272483 5.3
      vertex 1.03054 0.477457 5.3
    endloop
  endfacet
  facet normal -0.522507 -0.852635 -0
    outer loop
      vertex 1.36502 0.272483 5.3
      vertex 1.03054 0.477457 0
      vertex 1.36502 0.272483 0
    endloop
  endfacet
  facet normal 0.382624 -0.923904 0
    outer loop
      vertex 88.2725 0.122358 0
      vertex 88.635 0.272483 5.3
      vertex 88.2725 0.122358 5.3
    endloop
  endfacet
  facet normal 0.382624 -0.923904 0
    outer loop
      vertex 88.635 0.272483 5.3
      vertex 88.2725 0.122358 0
      vertex 88.635 0.272483 0
    endloop
  endfacet
  facet normal 0.522532 -0.85262 0
    outer loop
      vertex 12.6183 94.5135 0
      vertex 12.819 94.6365 2
      vertex 12.6183 94.5135 2
    endloop
  endfacet
  facet normal 0.522532 -0.85262 0
    outer loop
      vertex 12.819 94.6365 2
      vertex 12.6183 94.5135 0
      vertex 12.819 94.6365 0
    endloop
  endfacet
  facet normal -1 0 0
    outer loop
      vertex 78 13.5 0
      vertex 78 93.3 2
      vertex 78 93.3 0
    endloop
  endfacet
  facet normal -1 -0 0
    outer loop
      vertex 78 93.3 2
      vertex 78 13.5 0
      vertex 78 13.5 2
    endloop
  endfacet
  facet normal 0 -1 0
    outer loop
      vertex 13.5 94.8 0
      vertex 76.5 94.8 2
      vertex 13.5 94.8 2
    endloop
  endfacet
  facet normal 0 -1 -0
    outer loop
      vertex 76.5 94.8 2
      vertex 13.5 94.8 0
      vertex 76.5 94.8 0
    endloop
  endfacet
  facet normal -0.85262 0.522532 0
    outer loop
      vertex 77.7135 12.6183 0
      vertex 77.8365 12.819 2
      vertex 77.8365 12.819 0
    endloop
  endfacet
  facet normal -0.85262 0.522532 0
    outer loop
      vertex 77.8365 12.819 2
      vertex 77.7135 12.6183 0
      vertex 77.7135 12.6183 2
    endloop
  endfacet
  facet normal 0.972399 0.233325 0
    outer loop
      vertex 12.0734 13.0365 2
      vertex 12.0185 13.2653 0
      vertex 12.0185 13.2653 2
    endloop
  endfacet
  facet normal 0.972399 0.233325 0
    outer loop
      vertex 12.0185 13.2653 0
      vertex 12.0734 13.0365 2
      vertex 12.0734 13.0365 0
    endloop
  endfacet
  facet normal -0.923867 -0.382714 0
    outer loop
      vertex 77.9266 93.7635 0
      vertex 77.8365 93.981 2
      vertex 77.8365 93.981 0
    endloop
  endfacet
  facet normal -0.923867 -0.382714 0
    outer loop
      vertex 77.8365 93.981 2
      vertex 77.9266 93.7635 0
      vertex 77.9266 93.7635 2
    endloop
  endfacet
  facet normal 0.996908 -0.0785803 0
    outer loop
      vertex 12 93.3 2
      vertex 12.0185 93.5347 0
      vertex 12.0185 93.5347 2
    endloop
  endfacet
  facet normal 0.996908 -0.0785803 0
    outer loop
      vertex 12.0185 93.5347 0
      vertex 12 93.3 2
      vertex 12 93.3 0
    endloop
  endfacet
  facet normal 0.64925 -0.760575 0
    outer loop
      vertex 12.4393 94.3607 0
      vertex 12.6183 94.5135 2
      vertex 12.4393 94.3607 2
    endloop
  endfacet
  facet normal 0.64925 -0.760575 0
    outer loop
      vertex 12.6183 94.5135 2
      vertex 12.4393 94.3607 0
      vertex 12.6183 94.5135 0
    endloop
  endfacet
  facet normal -0.233228 -0.972422 0
    outer loop
      vertex 76.7346 94.7815 0
      vertex 76.9635 94.7266 2
      vertex 76.7346 94.7815 2
    endloop
  endfacet
  facet normal -0.233228 -0.972422 -0
    outer loop
      vertex 76.9635 94.7266 2
      vertex 76.7346 94.7815 0
      vertex 76.9635 94.7266 0
    endloop
  endfacet
  facet normal -0.382714 0.923867 0
    outer loop
      vertex 77.181 12.1635 0
      vertex 76.9635 12.0734 2
      vertex 77.181 12.1635 2
    endloop
  endfacet
  facet normal -0.382714 0.923867 0
    outer loop
      vertex 76.9635 12.0734 2
      vertex 77.181 12.1635 0
      vertex 76.9635 12.0734 0
    endloop
  endfacet
  facet normal -0.0786136 -0.996905 0
    outer loop
      vertex 76.5 94.8 0
      vertex 76.7346 94.7815 2
      vertex 76.5 94.8 2
    endloop
  endfacet
  facet normal -0.0786136 -0.996905 -0
    outer loop
      vertex 76.7346 94.7815 2
      vertex 76.5 94.8 0
      vertex 76.7346 94.7815 0
    endloop
  endfacet
  facet normal 0.0785803 -0.996908 0
    outer loop
      vertex 13.2653 94.7815 0
      vertex 13.5 94.8 2
      vertex 13.2653 94.7815 2
    endloop
  endfacet
  facet normal 0.0785803 -0.996908 0
    outer loop
      vertex 13.5 94.8 2
      vertex 13.2653 94.7815 0
      vertex 13.5 94.8 0
    endloop
  endfacet
  facet normal -0.0786136 0.996905 0
    outer loop
      vertex 76.7346 12.0185 0
      vertex 76.5 12 2
      vertex 76.7346 12.0185 2
    endloop
  endfacet
  facet normal -0.0786136 0.996905 0
    outer loop
      vertex 76.5 12 2
      vertex 76.7346 12.0185 0
      vertex 76.5 12 0
    endloop
  endfacet
  facet normal 0.923867 -0.382714 0
    outer loop
      vertex 12.0734 93.7635 2
      vertex 12.1635 93.981 0
      vertex 12.1635 93.981 2
    endloop
  endfacet
  facet normal 0.923867 -0.382714 0
    outer loop
      vertex 12.1635 93.981 0
      vertex 12.0734 93.7635 2
      vertex 12.0734 93.7635 0
    endloop
  endfacet
  facet normal -0.382714 -0.923867 0
    outer loop
      vertex 76.9635 94.7266 0
      vertex 77.181 94.6365 2
      vertex 76.9635 94.7266 2
    endloop
  endfacet
  facet normal -0.382714 -0.923867 -0
    outer loop
      vertex 77.181 94.6365 2
      vertex 76.9635 94.7266 0
      vertex 77.181 94.6365 0
    endloop
  endfacet
  facet normal 0.760575 -0.64925 0
    outer loop
      vertex 12.2865 94.1817 2
      vertex 12.4393 94.3607 0
      vertex 12.4393 94.3607 2
    endloop
  endfacet
  facet normal 0.760575 -0.64925 0
    outer loop
      vertex 12.4393 94.3607 0
      vertex 12.2865 94.1817 2
      vertex 12.2865 94.1817 0
    endloop
  endfacet
  facet normal 1 -0 0
    outer loop
      vertex 12 13.5 2
      vertex 12 93.3 0
      vertex 12 93.3 2
    endloop
  endfacet
  facet normal 1 0 0
    outer loop
      vertex 12 93.3 0
      vertex 12 13.5 2
      vertex 12 13.5 0
    endloop
  endfacet
  facet normal 0 1 -0
    outer loop
      vertex 76.5 12 0
      vertex 13.5 12 2
      vertex 76.5 12 2
    endloop
  endfacet
  facet normal 0 1 0
    outer loop
      vertex 13.5 12 2
      vertex 76.5 12 0
      vertex 13.5 12 0
    endloop
  endfacet
  facet normal -0.64925 -0.760575 0
    outer loop
      vertex 77.3817 94.5135 0
      vertex 77.5607 94.3607 2
      vertex 77.3817 94.5135 2
    endloop
  endfacet
  facet normal -0.64925 -0.760575 -0
    outer loop
      vertex 77.5607 94.3607 2
      vertex 77.3817 94.5135 0
      vertex 77.5607 94.3607 0
    endloop
  endfacet
  facet normal -0.996908 0.0785803 0
    outer loop
      vertex 77.9815 13.2653 0
      vertex 78 13.5 2
      vertex 78 13.5 0
    endloop
  endfacet
  facet normal -0.996908 0.0785803 0
    outer loop
      vertex 78 13.5 2
      vertex 77.9815 13.2653 0
      vertex 77.9815 13.2653 2
    endloop
  endfacet
  facet normal -0.923867 0.382714 0
    outer loop
      vertex 77.8365 12.819 0
      vertex 77.9266 13.0365 2
      vertex 77.9266 13.0365 0
    endloop
  endfacet
  facet normal -0.923867 0.382714 0
    outer loop
      vertex 77.9266 13.0365 2
      vertex 77.8365 12.819 0
      vertex 77.8365 12.819 2
    endloop
  endfacet
  facet normal -0.972399 0.233325 0
    outer loop
      vertex 77.9266 13.0365 0
      vertex 77.9815 13.2653 2
      vertex 77.9815 13.2653 0
    endloop
  endfacet
  facet normal -0.972399 0.233325 0
    outer loop
      vertex 77.9815 13.2653 2
      vertex 77.9266 13.0365 0
      vertex 77.9266 13.0365 2
    endloop
  endfacet
  facet normal -0.64925 0.760575 0
    outer loop
      vertex 77.5607 12.4393 0
      vertex 77.3817 12.2865 2
      vertex 77.5607 12.4393 2
    endloop
  endfacet
  facet normal -0.64925 0.760575 0
    outer loop
      vertex 77.3817 12.2865 2
      vertex 77.5607 12.4393 0
      vertex 77.3817 12.2865 0
    endloop
  endfacet
  facet normal -0.996908 -0.0785803 0
    outer loop
      vertex 78 93.3 0
      vertex 77.9815 93.5347 2
      vertex 77.9815 93.5347 0
    endloop
  endfacet
  facet normal -0.996908 -0.0785803 0
    outer loop
      vertex 77.9815 93.5347 2
      vertex 78 93.3 0
      vertex 78 93.3 2
    endloop
  endfacet
  facet normal 0.760575 0.64925 0
    outer loop
      vertex 12.4393 12.4393 2
      vertex 12.2865 12.6183 0
      vertex 12.2865 12.6183 2
    endloop
  endfacet
  facet normal 0.760575 0.64925 0
    outer loop
      vertex 12.2865 12.6183 0
      vertex 12.4393 12.4393 2
      vertex 12.4393 12.4393 0
    endloop
  endfacet
  facet normal 0.996908 0.0785803 0
    outer loop
      vertex 12.0185 13.2653 2
      vertex 12 13.5 0
      vertex 12 13.5 2
    endloop
  endfacet
  facet normal 0.996908 0.0785803 0
    outer loop
      vertex 12 13.5 0
      vertex 12.0185 13.2653 2
      vertex 12.0185 13.2653 0
    endloop
  endfacet
  facet normal -0.233228 0.972422 0
    outer loop
      vertex 76.9635 12.0734 0
      vertex 76.7346 12.0185 2
      vertex 76.9635 12.0734 2
    endloop
  endfacet
  facet normal -0.233228 0.972422 0
    outer loop
      vertex 76.7346 12.0185 2
      vertex 76.9635 12.0734 0
      vertex 76.7346 12.0185 0
    endloop
  endfacet
  facet normal 0.85262 0.522532 0
    outer loop
      vertex 12.2865 12.6183 2
      vertex 12.1635 12.819 0
      vertex 12.1635 12.819 2
    endloop
  endfacet
  facet normal 0.85262 0.522532 0
    outer loop
      vertex 12.1635 12.819 0
      vertex 12.2865 12.6183 2
      vertex 12.2865 12.6183 0
    endloop
  endfacet
  facet normal 0.233325 -0.972399 0
    outer loop
      vertex 13.0365 94.7266 0
      vertex 13.2653 94.7815 2
      vertex 13.0365 94.7266 2
    endloop
  endfacet
  facet normal 0.233325 -0.972399 0
    outer loop
      vertex 13.2653 94.7815 2
      vertex 13.0365 94.7266 0
      vertex 13.2653 94.7815 0
    endloop
  endfacet
  facet normal 0.0785803 0.996908 -0
    outer loop
      vertex 13.5 12 0
      vertex 13.2653 12.0185 2
      vertex 13.5 12 2
    endloop
  endfacet
  facet normal 0.0785803 0.996908 0
    outer loop
      vertex 13.2653 12.0185 2
      vertex 13.5 12 0
      vertex 13.2653 12.0185 0
    endloop
  endfacet
  facet normal 0.923867 0.382714 0
    outer loop
      vertex 12.1635 12.819 2
      vertex 12.0734 13.0365 0
      vertex 12.0734 13.0365 2
    endloop
  endfacet
  facet normal 0.923867 0.382714 0
    outer loop
      vertex 12.0734 13.0365 0
      vertex 12.1635 12.819 2
      vertex 12.1635 12.819 0
    endloop
  endfacet
  facet normal -0.85262 -0.522532 0
    outer loop
      vertex 77.8365 93.981 0
      vertex 77.7135 94.1817 2
      vertex 77.7135 94.1817 0
    endloop
  endfacet
  facet normal -0.85262 -0.522532 0
    outer loop
      vertex 77.7135 94.1817 2
      vertex 77.8365 93.981 0
      vertex 77.8365 93.981 2
    endloop
  endfacet
  facet normal 0.64925 0.760575 -0
    outer loop
      vertex 12.6183 12.2865 0
      vertex 12.4393 12.4393 2
      vertex 12.6183 12.2865 2
    endloop
  endfacet
  facet normal 0.64925 0.760575 0
    outer loop
      vertex 12.4393 12.4393 2
      vertex 12.6183 12.2865 0
      vertex 12.4393 12.4393 0
    endloop
  endfacet
  facet normal 0.972399 -0.233325 0
    outer loop
      vertex 12.0185 93.5347 2
      vertex 12.0734 93.7635 0
      vertex 12.0734 93.7635 2
    endloop
  endfacet
  facet normal 0.972399 -0.233325 0
    outer loop
      vertex 12.0734 93.7635 0
      vertex 12.0185 93.5347 2
      vertex 12.0185 93.5347 0
    endloop
  endfacet
  facet normal 0.522532 0.85262 -0
    outer loop
      vertex 12.819 12.1635 0
      vertex 12.6183 12.2865 2
      vertex 12.819 12.1635 2
    endloop
  endfacet
  facet normal 0.522532 0.85262 0
    outer loop
      vertex 12.6183 12.2865 2
      vertex 12.819 12.1635 0
      vertex 12.6183 12.2865 0
    endloop
  endfacet
  facet normal 0.85262 -0.522532 0
    outer loop
      vertex 12.1635 93.981 2
      vertex 12.2865 94.1817 0
      vertex 12.2865 94.1817 2
    endloop
  endfacet
  facet normal 0.85262 -0.522532 0
    outer loop
      vertex 12.2865 94.1817 0
      vertex 12.1635 93.981 2
      vertex 12.1635 93.981 0
    endloop
  endfacet
  facet normal -0.760575 0.64925 0
    outer loop
      vertex 77.5607 12.4393 0
      vertex 77.7135 12.6183 2
      vertex 77.7135 12.6183 0
    endloop
  endfacet
  facet normal -0.760575 0.64925 0
    outer loop
      vertex 77.7135 12.6183 2
      vertex 77.5607 12.4393 0
      vertex 77.5607 12.4393 2
    endloop
  endfacet
  facet normal -0.522532 0.85262 0
    outer loop
      vertex 77.3817 12.2865 0
      vertex 77.181 12.1635 2
      vertex 77.3817 12.2865 2
    endloop
  endfacet
  facet normal -0.522532 0.85262 0
    outer loop
      vertex 77.181 12.1635 2
      vertex 77.3817 12.2865 0
      vertex 77.181 12.1635 0
    endloop
  endfacet
  facet normal 0.382714 -0.923867 0
    outer loop
      vertex 12.819 94.6365 0
      vertex 13.0365 94.7266 2
      vertex 12.819 94.6365 2
    endloop
  endfacet
  facet normal 0.382714 -0.923867 0
    outer loop
      vertex 13.0365 94.7266 2
      vertex 12.819 94.6365 0
      vertex 13.0365 94.7266 0
    endloop
  endfacet
  facet normal -0.760575 -0.64925 0
    outer loop
      vertex 77.7135 94.1817 0
      vertex 77.5607 94.3607 2
      vertex 77.5607 94.3607 0
    endloop
  endfacet
  facet normal -0.760575 -0.64925 0
    outer loop
      vertex 77.5607 94.3607 2
      vertex 77.7135 94.1817 0
      vertex 77.7135 94.1817 2
    endloop
  endfacet
  facet normal -0.522532 -0.85262 0
    outer loop
      vertex 77.181 94.6365 0
      vertex 77.3817 94.5135 2
      vertex 77.181 94.6365 2
    endloop
  endfacet
  facet normal -0.522532 -0.85262 -0
    outer loop
      vertex 77.3817 94.5135 2
      vertex 77.181 94.6365 0
      vertex 77.3817 94.5135 0
    endloop
  endfacet
  facet normal -0.972399 -0.233325 0
    outer loop
      vertex 77.9815 93.5347 0
      vertex 77.9266 93.7635 2
      vertex 77.9266 93.7635 0
    endloop
  endfacet
  facet normal -0.972399 -0.233325 0
    outer loop
      vertex 77.9266 93.7635 2
      vertex 77.9815 93.5347 0
      vertex 77.9815 93.5347 2
    endloop
  endfacet
  facet normal 0.382714 0.923867 -0
    outer loop
      vertex 13.0365 12.0734 0
      vertex 12.819 12.1635 2
      vertex 13.0365 12.0734 2
    endloop
  endfacet
  facet normal 0.382714 0.923867 0
    outer loop
      vertex 12.819 12.1635 2
      vertex 13.0365 12.0734 0
      vertex 12.819 12.1635 0
    endloop
  endfacet
  facet normal 0.233325 0.972399 -0
    outer loop
      vertex 13.2653 12.0185 0
      vertex 13.0365 12.0734 2
      vertex 13.2653 12.0185 2
    endloop
  endfacet
  facet normal 0.233325 0.972399 0
    outer loop
      vertex 13.0365 12.0734 2
      vertex 13.2653 12.0185 0
      vertex 13.0365 12.0734 0
    endloop
  endfacet
  facet normal -1 0 0
    outer loop
      vertex 82.8 1.6 2
      vertex 82.8 105.2 5.3
      vertex 82.8 105.2 2
    endloop
  endfacet
  facet normal -1 -0 0
    outer loop
      vertex 82.8 105.2 5.3
      vertex 82.8 1.6 2
      vertex 82.8 1.6 5.3
    endloop
  endfacet
  facet normal -0 0 1
    outer loop
      vertex 5 68.85 2
      vertex 6 40.8 2
      vertex 6 68.85 2
    endloop
  endfacet
  facet normal 0 0 1
    outer loop
      vertex 6 40.8 2
      vertex 5 68.85 2
      vertex 5 40.8 2
    endloop
  endfacet
  facet normal -0 0 1
    outer loop
      vertex 80.5 68.85 2
      vertex 81.5 40.8 2
      vertex 81.5 68.85 2
    endloop
  endfacet
  facet normal 0 0 1
    outer loop
      vertex 81.5 40.8 2
      vertex 80.5 68.85 2
      vertex 80.5 40.8 2
    endloop
  endfacet
  facet normal 0 0 1
    outer loop
      vertex 81.5 68.85 2
      vertex 82.8 105.2 2
      vertex 81.5 76.85 2
    endloop
  endfacet
  facet normal -0 0 1
    outer loop
      vertex 78 93.3 2
      vertex 81.5 76.85 2
      vertex 82.8 105.2 2
    endloop
  endfacet
  facet normal 0 0 1
    outer loop
      vertex 78 93.3 2
      vertex 80.5 68.85 2
      vertex 80.5 76.85 2
    endloop
  endfacet
  facet normal 0 0 1
    outer loop
      vertex 80.5 68.85 2
      vertex 78 93.3 2
      vertex 80.5 40.8 2
    endloop
  endfacet
  facet normal 0 0 1
    outer loop
      vertex 78 13.5 2
      vertex 80.5 40.8 2
      vertex 78 93.3 2
    endloop
  endfacet
  facet normal 0 0 1
    outer loop
      vertex 81.5 76.85 2
      vertex 78 93.3 2
      vertex 80.5 76.85 2
    endloop
  endfacet
  facet normal 0 0 1
    outer loop
      vertex 82.8 105.2 2
      vertex 77.9815 93.5347 2
      vertex 78 93.3 2
    endloop
  endfacet
  facet normal 0 0 1
    outer loop
      vertex 82.8 105.2 2
      vertex 77.9266 93.7635 2
      vertex 77.9815 93.5347 2
    endloop
  endfacet
  facet normal 0 0 1
    outer loop
      vertex 82.8 105.2 2
      vertex 77.8365 93.981 2
      vertex 77.9266 93.7635 2
    endloop
  endfacet
  facet normal 0 0 1
    outer loop
      vertex 82.8 105.2 2
      vertex 77.7135 94.1817 2
      vertex 77.8365 93.981 2
    endloop
  endfacet
  facet normal 0 0 1
    outer loop
      vertex 82.8 105.2 2
      vertex 77.5607 94.3607 2
      vertex 77.7135 94.1817 2
    endloop
  endfacet
  facet normal 0 0 1
    outer loop
      vertex 82.8 105.2 2
      vertex 77.3817 94.5135 2
      vertex 77.5607 94.3607 2
    endloop
  endfacet
  facet normal 0 0 1
    outer loop
      vertex 82.8 105.2 2
      vertex 77.181 94.6365 2
      vertex 77.3817 94.5135 2
    endloop
  endfacet
  facet normal 0 0 1
    outer loop
      vertex 82.8 105.2 2
      vertex 76.9635 94.7266 2
      vertex 77.181 94.6365 2
    endloop
  endfacet
  facet normal 0 0 1
    outer loop
      vertex 82.8 105.2 2
      vertex 76.7346 94.7815 2
      vertex 76.9635 94.7266 2
    endloop
  endfacet
  facet normal 0 0 1
    outer loop
      vertex 82.8 105.2 2
      vertex 76.5 94.8 2
      vertex 76.7346 94.7815 2
    endloop
  endfacet
  facet normal 0 0 1
    outer loop
      vertex 82.8 105.2 2
      vertex 59.1 103.9 2
      vertex 76.5 94.8 2
    endloop
  endfacet
  facet normal 0 0 1
    outer loop
      vertex 82.8 105.2 2
      vertex 51.1 103.9 2
      vertex 59.1 103.9 2
    endloop
  endfacet
  facet normal 0 0 1
    outer loop
      vertex 51.1 103.9 2
      vertex 35.55 103.9 2
      vertex 51.1 102.9 2
    endloop
  endfacet
  facet normal 0 0 1
    outer loop
      vertex 82.8 105.2 2
      vertex 35.55 103.9 2
      vertex 51.1 103.9 2
    endloop
  endfacet
  facet normal -0 0 1
    outer loop
      vertex 3.7 105.2 2
      vertex 35.55 103.9 2
      vertex 82.8 105.2 2
    endloop
  endfacet
  facet normal 0 0 1
    outer loop
      vertex 27.55 103.9 2
      vertex 13.5 94.8 2
      vertex 27.55 102.9 2
    endloop
  endfacet
  facet normal 0 0 1
    outer loop
      vertex 3.7 105.2 2
      vertex 13.5 94.8 2
      vertex 27.55 103.9 2
    endloop
  endfacet
  facet normal 0 0 1
    outer loop
      vertex 13.5 94.8 2
      vertex 3.7 105.2 2
      vertex 13.2653 94.7815 2
    endloop
  endfacet
  facet normal 0 0 1
    outer loop
      vertex 13.2653 94.7815 2
      vertex 3.7 105.2 2
      vertex 13.0365 94.7266 2
    endloop
  endfacet
  facet normal 0 0 1
    outer loop
      vertex 13.0365 94.7266 2
      vertex 3.7 105.2 2
      vertex 12.819 94.6365 2
    endloop
  endfacet
  facet normal 0 0 1
    outer loop
      vertex 6 68.85 2
      vertex 12 93.3 2
      vertex 6 76.85 2
    endloop
  endfacet
  facet normal 0 0 1
    outer loop
      vertex 3.7 105.2 2
      vertex 12 93.3 2
      vertex 12.0185 93.5347 2
    endloop
  endfacet
  facet normal 0 0 1
    outer loop
      vertex 3.7 105.2 2
      vertex 12.0185 93.5347 2
      vertex 12.0734 93.7635 2
    endloop
  endfacet
  facet normal 0 0 1
    outer loop
      vertex 12 93.3 2
      vertex 5 76.85 2
      vertex 6 76.85 2
    endloop
  endfacet
  facet normal 0 0 1
    outer loop
      vertex 3.7 105.2 2
      vertex 12.0734 93.7635 2
      vertex 12.1635 93.981 2
    endloop
  endfacet
  facet normal 0 0 1
    outer loop
      vertex 3.7 105.2 2
      vertex 5 68.85 2
      vertex 5 76.85 2
    endloop
  endfacet
  facet normal 0 0 1
    outer loop
      vertex 5 68.85 2
      vertex 3.7 105.2 2
      vertex 5 40.8 2
    endloop
  endfacet
  facet normal 0 0 1
    outer loop
      vertex 3.7 1.6 2
      vertex 5 40.8 2
      vertex 3.7 105.2 2
    endloop
  endfacet
  facet normal 0 0 1
    outer loop
      vertex 12 93.3 2
      vertex 3.7 105.2 2
      vertex 5 76.85 2
    endloop
  endfacet
  facet normal 0 0 1
    outer loop
      vertex 12.2865 94.1817 2
      vertex 3.7 105.2 2
      vertex 12.1635 93.981 2
    endloop
  endfacet
  facet normal 0 0 1
    outer loop
      vertex 12.4393 94.3607 2
      vertex 3.7 105.2 2
      vertex 12.2865 94.1817 2
    endloop
  endfacet
  facet normal 0 0 1
    outer loop
      vertex 12.6183 94.5135 2
      vertex 3.7 105.2 2
      vertex 12.4393 94.3607 2
    endloop
  endfacet
  facet normal 0 0 1
    outer loop
      vertex 12.819 94.6365 2
      vertex 3.7 105.2 2
      vertex 12.6183 94.5135 2
    endloop
  endfacet
  facet normal 0 0 1
    outer loop
      vertex 35.55 103.9 2
      vertex 3.7 105.2 2
      vertex 27.55 103.9 2
    endloop
  endfacet
  facet normal 0 0 1
    outer loop
      vertex 82.8 105.2 2
      vertex 81.5 68.85 2
      vertex 82.8 1.6 2
    endloop
  endfacet
  facet normal -0 0 1
    outer loop
      vertex 81.5 40.8 2
      vertex 82.8 1.6 2
      vertex 81.5 68.85 2
    endloop
  endfacet
  facet normal -0 0 1
    outer loop
      vertex 81.5 32.8 2
      vertex 82.8 1.6 2
      vertex 81.5 40.8 2
    endloop
  endfacet
  facet normal 0 0 1
    outer loop
      vertex 78 13.5 2
      vertex 81.5 32.8 2
      vertex 80.5 32.8 2
    endloop
  endfacet
  facet normal 0 0 1
    outer loop
      vertex 80.5 40.8 2
      vertex 78 13.5 2
      vertex 80.5 32.8 2
    endloop
  endfacet
  facet normal 0 0 1
    outer loop
      vertex 81.5 32.8 2
      vertex 78 13.5 2
      vertex 82.8 1.6 2
    endloop
  endfacet
  facet normal -0 0 1
    outer loop
      vertex 77.9815 13.2653 2
      vertex 82.8 1.6 2
      vertex 78 13.5 2
    endloop
  endfacet
  facet normal -0 0 1
    outer loop
      vertex 77.9266 13.0365 2
      vertex 82.8 1.6 2
      vertex 77.9815 13.2653 2
    endloop
  endfacet
  facet normal -0 0 1
    outer loop
      vertex 77.8365 12.819 2
      vertex 82.8 1.6 2
      vertex 77.9266 13.0365 2
    endloop
  endfacet
  facet normal -0 0 1
    outer loop
      vertex 77.7135 12.6183 2
      vertex 82.8 1.6 2
      vertex 77.8365 12.819 2
    endloop
  endfacet
  facet normal -0 0 1
    outer loop
      vertex 77.5607 12.4393 2
      vertex 82.8 1.6 2
      vertex 77.7135 12.6183 2
    endloop
  endfacet
  facet normal -0 0 1
    outer loop
      vertex 77.3817 12.2865 2
      vertex 82.8 1.6 2
      vertex 77.5607 12.4393 2
    endloop
  endfacet
  facet normal -0 0 1
    outer loop
      vertex 77.181 12.1635 2
      vertex 82.8 1.6 2
      vertex 77.3817 12.2865 2
    endloop
  endfacet
  facet normal -0 0 1
    outer loop
      vertex 76.9635 12.0734 2
      vertex 82.8 1.6 2
      vertex 77.181 12.1635 2
    endloop
  endfacet
  facet normal -0 0 1
    outer loop
      vertex 76.7346 12.0185 2
      vertex 82.8 1.6 2
      vertex 76.9635 12.0734 2
    endloop
  endfacet
  facet normal -0 0 1
    outer loop
      vertex 76.5 12 2
      vertex 82.8 1.6 2
      vertex 76.7346 12.0185 2
    endloop
  endfacet
  facet normal -0 0 1
    outer loop
      vertex 13.5 12 2
      vertex 82.8 1.6 2
      vertex 76.5 12 2
    endloop
  endfacet
  facet normal 0 0 1
    outer loop
      vertex 3.7 1.6 2
      vertex 13.5 12 2
      vertex 13.2653 12.0185 2
    endloop
  endfacet
  facet normal 0 0 1
    outer loop
      vertex 6 40.8 2
      vertex 12 93.3 2
      vertex 6 68.85 2
    endloop
  endfacet
  facet normal 0 0 1
    outer loop
      vertex 12 93.3 2
      vertex 6 40.8 2
      vertex 12 13.5 2
    endloop
  endfacet
  facet normal -0 0 1
    outer loop
      vertex 6 32.8 2
      vertex 12 13.5 2
      vertex 6 40.8 2
    endloop
  endfacet
  facet normal -0 0 1
    outer loop
      vertex 5 32.8 2
      vertex 12 13.5 2
      vertex 6 32.8 2
    endloop
  endfacet
  facet normal 0 0 1
    outer loop
      vertex 3.7 1.6 2
      vertex 12 13.5 2
      vertex 5 32.8 2
    endloop
  endfacet
  facet normal 0 0 1
    outer loop
      vertex 12 13.5 2
      vertex 3.7 1.6 2
      vertex 12.0185 13.2653 2
    endloop
  endfacet
  facet normal 0 0 1
    outer loop
      vertex 13.5 12 2
      vertex 3.7 1.6 2
      vertex 82.8 1.6 2
    endloop
  endfacet
  facet normal 0 0 1
    outer loop
      vertex 13.0365 12.0734 2
      vertex 3.7 1.6 2
      vertex 13.2653 12.0185 2
    endloop
  endfacet
  facet normal 0 0 1
    outer loop
      vertex 12.819 12.1635 2
      vertex 3.7 1.6 2
      vertex 13.0365 12.0734 2
    endloop
  endfacet
  facet normal 0 0 1
    outer loop
      vertex 12.6183 12.2865 2
      vertex 3.7 1.6 2
      vertex 12.819 12.1635 2
    endloop
  endfacet
  facet normal 0 0 1
    outer loop
      vertex 12.4393 12.4393 2
      vertex 3.7 1.6 2
      vertex 12.6183 12.2865 2
    endloop
  endfacet
  facet normal 0 0 1
    outer loop
      vertex 12.2865 12.6183 2
      vertex 3.7 1.6 2
      vertex 12.4393 12.4393 2
    endloop
  endfacet
  facet normal 0 0 1
    outer loop
      vertex 12.1635 12.819 2
      vertex 3.7 1.6 2
      vertex 12.2865 12.6183 2
    endloop
  endfacet
  facet normal 0 0 1
    outer loop
      vertex 12.0734 13.0365 2
      vertex 3.7 1.6 2
      vertex 12.1635 12.819 2
    endloop
  endfacet
  facet normal 0 0 1
    outer loop
      vertex 12.0185 13.2653 2
      vertex 3.7 1.6 2
      vertex 12.0734 13.0365 2
    endloop
  endfacet
  facet normal 0 0 1
    outer loop
      vertex 5 40.8 2
      vertex 3.7 1.6 2
      vertex 5 32.8 2
    endloop
  endfacet
  facet normal -0 0 1
    outer loop
      vertex 59.1 102.9 2
      vertex 76.5 94.8 2
      vertex 59.1 103.9 2
    endloop
  endfacet
  facet normal -0 0 1
    outer loop
      vertex 51.1 102.9 2
      vertex 76.5 94.8 2
      vertex 59.1 102.9 2
    endloop
  endfacet
  facet normal 0 0 1
    outer loop
      vertex 35.55 102.9 2
      vertex 51.1 102.9 2
      vertex 35.55 103.9 2
    endloop
  endfacet
  facet normal 0 0 1
    outer loop
      vertex 13.5 94.8 2
      vertex 51.1 102.9 2
      vertex 35.55 102.9 2
    endloop
  endfacet
  facet normal 0 0 1
    outer loop
      vertex 13.5 94.8 2
      vertex 35.55 102.9 2
      vertex 27.55 102.9 2
    endloop
  endfacet
  facet normal 0 0 1
    outer loop
      vertex 51.1 102.9 2
      vertex 13.5 94.8 2
      vertex 76.5 94.8 2
    endloop
  endfacet
  facet normal 1 -0 0
    outer loop
      vertex 3.7 1.6 5.3
      vertex 3.7 105.2 2
      vertex 3.7 105.2 5.3
    endloop
  endfacet
  facet normal 1 0 0
    outer loop
      vertex 3.7 105.2 2
      vertex 3.7 1.6 5.3
      vertex 3.7 1.6 2
    endloop
  endfacet
  facet normal 0 -1 0
    outer loop
      vertex 3.7 105.2 2
      vertex 82.8 105.2 5.3
      vertex 3.7 105.2 5.3
    endloop
  endfacet
  facet normal 0 -1 -0
    outer loop
      vertex 82.8 105.2 5.3
      vertex 3.7 105.2 2
      vertex 82.8 105.2 2
    endloop
  endfacet
  facet normal 0 1 -0
    outer loop
      vertex 82.8 1.6 2
      vertex 3.7 1.6 5.3
      vertex 82.8 1.6 5.3
    endloop
  endfacet
  facet normal 0 1 0
    outer loop
      vertex 3.7 1.6 5.3
      vertex 82.8 1.6 2
      vertex 3.7 1.6 2
    endloop
  endfacet
  facet normal 1 -0 0
    outer loop
      vertex 6 32.8 3.5
      vertex 6 40.8 2
      vertex 6 40.8 3.5
    endloop
  endfacet
  facet normal 1 0 0
    outer loop
      vertex 6 40.8 2
      vertex 6 32.8 3.5
      vertex 6 32.8 2
    endloop
  endfacet
  facet normal -0 0 1
    outer loop
      vertex 5 40.8 3.5
      vertex 6 32.8 3.5
      vertex 6 40.8 3.5
    endloop
  endfacet
  facet normal 0 0 1
    outer loop
      vertex 6 32.8 3.5
      vertex 5 40.8 3.5
      vertex 5 32.8 3.5
    endloop
  endfacet
  facet normal -1 0 0
    outer loop
      vertex 5 32.8 2
      vertex 5 40.8 3.5
      vertex 5 40.8 2
    endloop
  endfacet
  facet normal -1 -0 0
    outer loop
      vertex 5 40.8 3.5
      vertex 5 32.8 2
      vertex 5 32.8 3.5
    endloop
  endfacet
  facet normal 0 1 -0
    outer loop
      vertex 6 40.8 2
      vertex 5 40.8 3.5
      vertex 6 40.8 3.5
    endloop
  endfacet
  facet normal 0 1 0
    outer loop
      vertex 5 40.8 3.5
      vertex 6 40.8 2
      vertex 5 40.8 2
    endloop
  endfacet
  facet normal 0 -1 0
    outer loop
      vertex 5 32.8 2
      vertex 6 32.8 3.5
      vertex 5 32.8 3.5
    endloop
  endfacet
  facet normal 0 -1 -0
    outer loop
      vertex 6 32.8 3.5
      vertex 5 32.8 2
      vertex 6 32.8 2
    endloop
  endfacet
  facet normal 1 -0 0
    outer loop
      vertex 6 68.85 3.5
      vertex 6 76.85 2
      vertex 6 76.85 3.5
    endloop
  endfacet
  facet normal 1 0 0
    outer loop
      vertex 6 76.85 2
      vertex 6 68.85 3.5
      vertex 6 68.85 2
    endloop
  endfacet
  facet normal -0 0 1
    outer loop
      vertex 5 76.85 3.5
      vertex 6 68.85 3.5
      vertex 6 76.85 3.5
    endloop
  endfacet
  facet normal 0 0 1
    outer loop
      vertex 6 68.85 3.5
      vertex 5 76.85 3.5
      vertex 5 68.85 3.5
    endloop
  endfacet
  facet normal -1 0 0
    outer loop
      vertex 5 68.85 2
      vertex 5 76.85 3.5
      vertex 5 76.85 2
    endloop
  endfacet
  facet normal -1 -0 0
    outer loop
      vertex 5 76.85 3.5
      vertex 5 68.85 2
      vertex 5 68.85 3.5
    endloop
  endfacet
  facet normal 0 1 -0
    outer loop
      vertex 6 76.85 2
      vertex 5 76.85 3.5
      vertex 6 76.85 3.5
    endloop
  endfacet
  facet normal 0 1 0
    outer loop
      vertex 5 76.85 3.5
      vertex 6 76.85 2
      vertex 5 76.85 2
    endloop
  endfacet
  facet normal 0 -1 0
    outer loop
      vertex 5 68.85 2
      vertex 6 68.85 3.5
      vertex 5 68.85 3.5
    endloop
  endfacet
  facet normal 0 -1 -0
    outer loop
      vertex 6 68.85 3.5
      vertex 5 68.85 2
      vertex 6 68.85 2
    endloop
  endfacet
  facet normal 1 -0 0
    outer loop
      vertex 81.5 32.8 3.5
      vertex 81.5 40.8 2
      vertex 81.5 40.8 3.5
    endloop
  endfacet
  facet normal 1 0 0
    outer loop
      vertex 81.5 40.8 2
      vertex 81.5 32.8 3.5
      vertex 81.5 32.8 2
    endloop
  endfacet
  facet normal -0 0 1
    outer loop
      vertex 80.5 40.8 3.5
      vertex 81.5 32.8 3.5
      vertex 81.5 40.8 3.5
    endloop
  endfacet
  facet normal 0 0 1
    outer loop
      vertex 81.5 32.8 3.5
      vertex 80.5 40.8 3.5
      vertex 80.5 32.8 3.5
    endloop
  endfacet
  facet normal -1 0 0
    outer loop
      vertex 80.5 32.8 2
      vertex 80.5 40.8 3.5
      vertex 80.5 40.8 2
    endloop
  endfacet
  facet normal -1 -0 0
    outer loop
      vertex 80.5 40.8 3.5
      vertex 80.5 32.8 2
      vertex 80.5 32.8 3.5
    endloop
  endfacet
  facet normal 0 1 -0
    outer loop
      vertex 81.5 40.8 2
      vertex 80.5 40.8 3.5
      vertex 81.5 40.8 3.5
    endloop
  endfacet
  facet normal 0 1 0
    outer loop
      vertex 80.5 40.8 3.5
      vertex 81.5 40.8 2
      vertex 80.5 40.8 2
    endloop
  endfacet
  facet normal 0 -1 0
    outer loop
      vertex 80.5 32.8 2
      vertex 81.5 32.8 3.5
      vertex 80.5 32.8 3.5
    endloop
  endfacet
  facet normal 0 -1 -0
    outer loop
      vertex 81.5 32.8 3.5
      vertex 80.5 32.8 2
      vertex 81.5 32.8 2
    endloop
  endfacet
  facet normal 1 -0 0
    outer loop
      vertex 81.5 68.85 3.5
      vertex 81.5 76.85 2
      vertex 81.5 76.85 3.5
    endloop
  endfacet
  facet normal 1 0 0
    outer loop
      vertex 81.5 76.85 2
      vertex 81.5 68.85 3.5
      vertex 81.5 68.85 2
    endloop
  endfacet
  facet normal -0 0 1
    outer loop
      vertex 80.5 76.85 3.5
      vertex 81.5 68.85 3.5
      vertex 81.5 76.85 3.5
    endloop
  endfacet
  facet normal 0 0 1
    outer loop
      vertex 81.5 68.85 3.5
      vertex 80.5 76.85 3.5
      vertex 80.5 68.85 3.5
    endloop
  endfacet
  facet normal -1 0 0
    outer loop
      vertex 80.5 68.85 2
      vertex 80.5 76.85 3.5
      vertex 80.5 76.85 2
    endloop
  endfacet
  facet normal -1 -0 0
    outer loop
      vertex 80.5 76.85 3.5
      vertex 80.5 68.85 2
      vertex 80.5 68.85 3.5
    endloop
  endfacet
  facet normal 0 1 -0
    outer loop
      vertex 81.5 76.85 2
      vertex 80.5 76.85 3.5
      vertex 81.5 76.85 3.5
    endloop
  endfacet
  facet normal 0 1 0
    outer loop
      vertex 80.5 76.85 3.5
      vertex 81.5 76.85 2
      vertex 80.5 76.85 2
    endloop
  endfacet
  facet normal 0 -1 0
    outer loop
      vertex 80.5 68.85 2
      vertex 81.5 68.85 3.5
      vertex 80.5 68.85 3.5
    endloop
  endfacet
  facet normal 0 -1 -0
    outer loop
      vertex 81.5 68.85 3.5
      vertex 80.5 68.85 2
      vertex 81.5 68.85 2
    endloop
  endfacet
  facet normal 1 -0 0
    outer loop
      vertex 35.55 102.9 3.5
      vertex 35.55 103.9 2
      vertex 35.55 103.9 3.5
    endloop
  endfacet
  facet normal 1 0 0
    outer loop
      vertex 35.55 103.9 2
      vertex 35.55 102.9 3.5
      vertex 35.55 102.9 2
    endloop
  endfacet
  facet normal -0 0 1
    outer loop
      vertex 27.55 103.9 3.5
      vertex 35.55 102.9 3.5
      vertex 35.55 103.9 3.5
    endloop
  endfacet
  facet normal 0 0 1
    outer loop
      vertex 35.55 102.9 3.5
      vertex 27.55 103.9 3.5
      vertex 27.55 102.9 3.5
    endloop
  endfacet
  facet normal -1 0 0
    outer loop
      vertex 27.55 102.9 2
      vertex 27.55 103.9 3.5
      vertex 27.55 103.9 2
    endloop
  endfacet
  facet normal -1 -0 0
    outer loop
      vertex 27.55 103.9 3.5
      vertex 27.55 102.9 2
      vertex 27.55 102.9 3.5
    endloop
  endfacet
  facet normal 0 1 -0
    outer loop
      vertex 35.55 103.9 2
      vertex 27.55 103.9 3.5
      vertex 35.55 103.9 3.5
    endloop
  endfacet
  facet normal 0 1 0
    outer loop
      vertex 27.55 103.9 3.5
      vertex 35.55 103.9 2
      vertex 27.55 103.9 2
    endloop
  endfacet
  facet normal 0 -1 0
    outer loop
      vertex 27.55 102.9 2
      vertex 35.55 102.9 3.5
      vertex 27.55 102.9 3.5
    endloop
  endfacet
  facet normal 0 -1 -0
    outer loop
      vertex 35.55 102.9 3.5
      vertex 27.55 102.9 2
      vertex 35.55 102.9 2
    endloop
  endfacet
  facet normal 1 -0 0
    outer loop
      vertex 59.1 102.9 3.5
      vertex 59.1 103.9 2
      vertex 59.1 103.9 3.5
    endloop
  endfacet
  facet normal 1 0 0
    outer loop
      vertex 59.1 103.9 2
      vertex 59.1 102.9 3.5
      vertex 59.1 102.9 2
    endloop
  endfacet
  facet normal -0 0 1
    outer loop
      vertex 51.1 103.9 3.5
      vertex 59.1 102.9 3.5
      vertex 59.1 103.9 3.5
    endloop
  endfacet
  facet normal 0 0 1
    outer loop
      vertex 59.1 102.9 3.5
      vertex 51.1 103.9 3.5
      vertex 51.1 102.9 3.5
    endloop
  endfacet
  facet normal -1 0 0
    outer loop
      vertex 51.1 102.9 2
      vertex 51.1 103.9 3.5
      vertex 51.1 103.9 2
    endloop
  endfacet
  facet normal -1 -0 0
    outer loop
      vertex 51.1 103.9 3.5
      vertex 51.1 102.9 2
      vertex 51.1 102.9 3.5
    endloop
  endfacet
  facet normal 0 1 -0
    outer loop
      vertex 59.1 103.9 2
      vertex 51.1 103.9 3.5
      vertex 59.1 103.9 3.5
    endloop
  endfacet
  facet normal 0 1 0
    outer loop
      vertex 51.1 103.9 3.5
      vertex 59.1 103.9 2
      vertex 51.1 103.9 2
    endloop
  endfacet
  facet normal 0 -1 0
    outer loop
      vertex 51.1 102.9 2
      vertex 59.1 102.9 3.5
      vertex 51.1 102.9 3.5
    endloop
  endfacet
  facet normal 0 -1 -0
    outer loop
      vertex 59.1 102.9 3.5
      vertex 51.1 102.9 2
      vertex 59.1 102.9 2
    endloop
  endfacet
endsolid OpenSCAD_Model
