solid OpenSCAD_Model
  facet normal -1 0 0
    outer loop
      vertex 0 2.5 0
      vertex 0 121.5 6.3
      vertex 0 121.5 0
    endloop
  endfacet
  facet normal -1 -0 0
    outer loop
      vertex 0 121.5 6.3
      vertex 0 2.5 0
      vertex 0 2.5 6.3
    endloop
  endfacet
  facet normal 0.522484 -0.852649 0
    outer loop
      vertex 85.635 0.272483 0
      vertex 85.9695 0.477457 6.3
      vertex 85.635 0.272483 6.3
    endloop
  endfacet
  facet normal 0.522484 -0.852649 0
    outer loop
      vertex 85.9695 0.477457 6.3
      vertex 85.635 0.272483 0
      vertex 85.9695 0.477457 0
    endloop
  endfacet
  facet normal 0.996913 -0.0785112 0
    outer loop
      vertex 86.9692 2.10891 6.3
      vertex 87 2.5 0
      vertex 87 2.5 6.3
    endloop
  endfacet
  facet normal 0.996913 -0.0785112 0
    outer loop
      vertex 87 2.5 0
      vertex 86.9692 2.10891 6.3
      vertex 86.9692 2.10891 0
    endloop
  endfacet
  facet normal 0.761248 0.648461 0
    outer loop
      vertex 86.5225 122.969 6.3
      vertex 86.2678 123.268 0
      vertex 86.2678 123.268 6.3
    endloop
  endfacet
  facet normal 0.761248 0.648461 0
    outer loop
      vertex 86.2678 123.268 0
      vertex 86.5225 122.969 6.3
      vertex 86.5225 122.969 0
    endloop
  endfacet
  facet normal -0.852301 0.523052 0
    outer loop
      vertex 0.272483 122.635 0
      vertex 0.477457 122.969 6.3
      vertex 0.477457 122.969 0
    endloop
  endfacet
  facet normal -0.852301 0.523052 0
    outer loop
      vertex 0.477457 122.969 6.3
      vertex 0.272483 122.635 0
      vertex 0.272483 122.635 6.3
    endloop
  endfacet
  facet normal 0.972433 0.23318 0
    outer loop
      vertex 86.9692 121.891 6.3
      vertex 86.8776 122.273 0
      vertex 86.8776 122.273 6.3
    endloop
  endfacet
  facet normal 0.972433 0.23318 0
    outer loop
      vertex 86.8776 122.273 0
      vertex 86.9692 121.891 6.3
      vertex 86.9692 121.891 0
    endloop
  endfacet
  facet normal -0.382406 0.923994 0
    outer loop
      vertex 1.72746 123.878 0
      vertex 1.36502 123.728 6.3
      vertex 1.72746 123.878 6.3
    endloop
  endfacet
  facet normal -0.382406 0.923994 0
    outer loop
      vertex 1.36502 123.728 6.3
      vertex 1.72746 123.878 0
      vertex 1.36502 123.728 0
    endloop
  endfacet
  facet normal -0.972446 0.23313 0
    outer loop
      vertex 0.0307789 121.891 0
      vertex 0.122358 122.273 6.3
      vertex 0.122358 122.273 0
    endloop
  endfacet
  facet normal -0.972446 0.23313 0
    outer loop
      vertex 0.122358 122.273 6.3
      vertex 0.0307789 121.891 0
      vertex 0.0307789 121.891 6.3
    endloop
  endfacet
  facet normal 0 0 -1
    outer loop
      vertex 84.5 0 0
      vertex 87 2.5 0
      vertex 86.9692 2.10891 0
    endloop
  endfacet
  facet normal 0 0 -1
    outer loop
      vertex 87 2.5 0
      vertex 75 30.5 0
      vertex 87 121.5 0
    endloop
  endfacet
  facet normal 0 0 -1
    outer loop
      vertex 84.5 0 0
      vertex 86.9692 2.10891 0
      vertex 86.8776 1.72746 0
    endloop
  endfacet
  facet normal 0 0 -1
    outer loop
      vertex 75 110.5 0
      vertex 87 121.5 0
      vertex 75 30.5 0
    endloop
  endfacet
  facet normal 0 0 -1
    outer loop
      vertex 84.5 0 0
      vertex 86.8776 1.72746 0
      vertex 86.7275 1.36502 0
    endloop
  endfacet
  facet normal 0 0 -1
    outer loop
      vertex 74.9815 110.735 0
      vertex 87 121.5 0
      vertex 75 110.5 0
    endloop
  endfacet
  facet normal 0 0 -1
    outer loop
      vertex 84.5 0 0
      vertex 86.7275 1.36502 0
      vertex 86.5225 1.03054 0
    endloop
  endfacet
  facet normal 0 0 -1
    outer loop
      vertex 74.9266 110.964 0
      vertex 87 121.5 0
      vertex 74.9815 110.735 0
    endloop
  endfacet
  facet normal 0 0 -1
    outer loop
      vertex 84.5 0 0
      vertex 86.5225 1.03054 0
      vertex 86.2678 0.732232 0
    endloop
  endfacet
  facet normal 0 0 -1
    outer loop
      vertex 74.8365 111.181 0
      vertex 87 121.5 0
      vertex 74.9266 110.964 0
    endloop
  endfacet
  facet normal 0 0 -1
    outer loop
      vertex 84.5 0 0
      vertex 86.2678 0.732232 0
      vertex 85.9695 0.477457 0
    endloop
  endfacet
  facet normal 0 0 -1
    outer loop
      vertex 74.7135 111.382 0
      vertex 87 121.5 0
      vertex 74.8365 111.181 0
    endloop
  endfacet
  facet normal 0 0 -1
    outer loop
      vertex 84.5 0 0
      vertex 85.9695 0.477457 0
      vertex 85.635 0.272483 0
    endloop
  endfacet
  facet normal 0 0 -1
    outer loop
      vertex 74.5607 111.561 0
      vertex 87 121.5 0
      vertex 74.7135 111.382 0
    endloop
  endfacet
  facet normal 0 0 -1
    outer loop
      vertex 84.5 0 0
      vertex 85.635 0.272483 0
      vertex 85.2725 0.122358 0
    endloop
  endfacet
  facet normal 0 -0 -1
    outer loop
      vertex 84.5 124 0
      vertex 87 121.5 0
      vertex 74.5607 111.561 0
    endloop
  endfacet
  facet normal 0 0 -1
    outer loop
      vertex 84.5 0 0
      vertex 85.2725 0.122358 0
      vertex 84.8911 0.0307789 0
    endloop
  endfacet
  facet normal 0 0 -1
    outer loop
      vertex 86.9692 121.891 0
      vertex 84.5 124 0
      vertex 86.8776 122.273 0
    endloop
  endfacet
  facet normal 0 0 -1
    outer loop
      vertex 73.5 29 0
      vertex 87 2.5 0
      vertex 84.5 0 0
    endloop
  endfacet
  facet normal 0 0 -1
    outer loop
      vertex 86.8776 122.273 0
      vertex 84.5 124 0
      vertex 86.7275 122.635 0
    endloop
  endfacet
  facet normal 0 0 -1
    outer loop
      vertex 86.5225 122.969 0
      vertex 84.5 124 0
      vertex 86.2678 123.268 0
    endloop
  endfacet
  facet normal 0 0 -1
    outer loop
      vertex 87 2.5 0
      vertex 74.9815 30.2653 0
      vertex 75 30.5 0
    endloop
  endfacet
  facet normal 0 0 -1
    outer loop
      vertex 87 2.5 0
      vertex 74.9266 30.0365 0
      vertex 74.9815 30.2653 0
    endloop
  endfacet
  facet normal 0 0 -1
    outer loop
      vertex 87 2.5 0
      vertex 74.8365 29.819 0
      vertex 74.9266 30.0365 0
    endloop
  endfacet
  facet normal 0 0 -1
    outer loop
      vertex 87 2.5 0
      vertex 74.7135 29.6183 0
      vertex 74.8365 29.819 0
    endloop
  endfacet
  facet normal 0 0 -1
    outer loop
      vertex 87 2.5 0
      vertex 74.5607 29.4393 0
      vertex 74.7135 29.6183 0
    endloop
  endfacet
  facet normal 0 0 -1
    outer loop
      vertex 87 2.5 0
      vertex 74.3817 29.2865 0
      vertex 74.5607 29.4393 0
    endloop
  endfacet
  facet normal 0 0 -1
    outer loop
      vertex 87 2.5 0
      vertex 74.181 29.1635 0
      vertex 74.3817 29.2865 0
    endloop
  endfacet
  facet normal 0 0 -1
    outer loop
      vertex 87 2.5 0
      vertex 73.9635 29.0734 0
      vertex 74.181 29.1635 0
    endloop
  endfacet
  facet normal 0 0 -1
    outer loop
      vertex 87 2.5 0
      vertex 73.7346 29.0185 0
      vertex 73.9635 29.0734 0
    endloop
  endfacet
  facet normal 0 0 -1
    outer loop
      vertex 87 2.5 0
      vertex 73.5 29 0
      vertex 73.7346 29.0185 0
    endloop
  endfacet
  facet normal 0 0 -1
    outer loop
      vertex 84.5 0 0
      vertex 13.5 29 0
      vertex 73.5 29 0
    endloop
  endfacet
  facet normal 0 0 -1
    outer loop
      vertex 2.5 0 0
      vertex 13.5 29 0
      vertex 84.5 0 0
    endloop
  endfacet
  facet normal 0 0 -1
    outer loop
      vertex 0 2.5 0
      vertex 13.5 29 0
      vertex 2.5 0 0
    endloop
  endfacet
  facet normal -0 0 -1
    outer loop
      vertex 12.0185 30.2653 0
      vertex 0 2.5 0
      vertex 12 30.5 0
    endloop
  endfacet
  facet normal -0 0 -1
    outer loop
      vertex 12.0734 30.0365 0
      vertex 0 2.5 0
      vertex 12.0185 30.2653 0
    endloop
  endfacet
  facet normal -0 0 -1
    outer loop
      vertex 12.1635 29.819 0
      vertex 0 2.5 0
      vertex 12.0734 30.0365 0
    endloop
  endfacet
  facet normal -0 0 -1
    outer loop
      vertex 12.2865 29.6183 0
      vertex 0 2.5 0
      vertex 12.1635 29.819 0
    endloop
  endfacet
  facet normal -0 0 -1
    outer loop
      vertex 12.4393 29.4393 0
      vertex 0 2.5 0
      vertex 12.2865 29.6183 0
    endloop
  endfacet
  facet normal -0 0 -1
    outer loop
      vertex 12.6183 29.2865 0
      vertex 0 2.5 0
      vertex 12.4393 29.4393 0
    endloop
  endfacet
  facet normal -0 0 -1
    outer loop
      vertex 12.819 29.1635 0
      vertex 0 2.5 0
      vertex 12.6183 29.2865 0
    endloop
  endfacet
  facet normal -0 0 -1
    outer loop
      vertex 13.0365 29.0734 0
      vertex 0 2.5 0
      vertex 12.819 29.1635 0
    endloop
  endfacet
  facet normal -0 0 -1
    outer loop
      vertex 13.2653 29.0185 0
      vertex 0 2.5 0
      vertex 13.0365 29.0734 0
    endloop
  endfacet
  facet normal -0 0 -1
    outer loop
      vertex 13.5 29 0
      vertex 0 2.5 0
      vertex 13.2653 29.0185 0
    endloop
  endfacet
  facet normal 0 0 -1
    outer loop
      vertex 86.2678 123.268 0
      vertex 84.5 124 0
      vertex 85.9695 123.523 0
    endloop
  endfacet
  facet normal 0 0 -1
    outer loop
      vertex 85.9695 123.523 0
      vertex 84.5 124 0
      vertex 85.635 123.728 0
    endloop
  endfacet
  facet normal 0 0 -1
    outer loop
      vertex 85.2725 123.878 0
      vertex 84.5 124 0
      vertex 84.8911 123.969 0
    endloop
  endfacet
  facet normal 0 0 -1
    outer loop
      vertex 85.635 123.728 0
      vertex 84.5 124 0
      vertex 85.2725 123.878 0
    endloop
  endfacet
  facet normal 0 0 -1
    outer loop
      vertex 86.7275 122.635 0
      vertex 84.5 124 0
      vertex 86.5225 122.969 0
    endloop
  endfacet
  facet normal 0 0 -1
    outer loop
      vertex 87 121.5 0
      vertex 84.5 124 0
      vertex 86.9692 121.891 0
    endloop
  endfacet
  facet normal 0 0 -1
    outer loop
      vertex 74.3817 111.714 0
      vertex 84.5 124 0
      vertex 74.5607 111.561 0
    endloop
  endfacet
  facet normal 0 0 -1
    outer loop
      vertex 74.181 111.837 0
      vertex 84.5 124 0
      vertex 74.3817 111.714 0
    endloop
  endfacet
  facet normal 0 0 -1
    outer loop
      vertex 73.9635 111.927 0
      vertex 84.5 124 0
      vertex 74.181 111.837 0
    endloop
  endfacet
  facet normal 0 0 -1
    outer loop
      vertex 73.7346 111.982 0
      vertex 84.5 124 0
      vertex 73.9635 111.927 0
    endloop
  endfacet
  facet normal 0 0 -1
    outer loop
      vertex 73.5 112 0
      vertex 84.5 124 0
      vertex 73.7346 111.982 0
    endloop
  endfacet
  facet normal 0 0 -1
    outer loop
      vertex 13.5 112 0
      vertex 84.5 124 0
      vertex 73.5 112 0
    endloop
  endfacet
  facet normal 0 0 -1
    outer loop
      vertex 2.5 124 0
      vertex 13.5 112 0
      vertex 13.2653 111.982 0
    endloop
  endfacet
  facet normal 0 0 -1
    outer loop
      vertex 0 121.5 0
      vertex 12 30.5 0
      vertex 0 2.5 0
    endloop
  endfacet
  facet normal 0 0 -1
    outer loop
      vertex 13.5 112 0
      vertex 2.5 124 0
      vertex 84.5 124 0
    endloop
  endfacet
  facet normal 0 0 -1
    outer loop
      vertex 13.0365 111.927 0
      vertex 2.5 124 0
      vertex 13.2653 111.982 0
    endloop
  endfacet
  facet normal 0 0 -1
    outer loop
      vertex 12.819 111.837 0
      vertex 2.5 124 0
      vertex 13.0365 111.927 0
    endloop
  endfacet
  facet normal 0 0 -1
    outer loop
      vertex 12.6183 111.714 0
      vertex 2.5 124 0
      vertex 12.819 111.837 0
    endloop
  endfacet
  facet normal 0 0 -1
    outer loop
      vertex 12.4393 111.561 0
      vertex 2.5 124 0
      vertex 12.6183 111.714 0
    endloop
  endfacet
  facet normal 0 0 -1
    outer loop
      vertex 0 121.5 0
      vertex 12.4393 111.561 0
      vertex 12.2865 111.382 0
    endloop
  endfacet
  facet normal 0 0 -1
    outer loop
      vertex 0 121.5 0
      vertex 12.2865 111.382 0
      vertex 12.1635 111.181 0
    endloop
  endfacet
  facet normal 0 0 -1
    outer loop
      vertex 0 121.5 0
      vertex 12.1635 111.181 0
      vertex 12.0734 110.964 0
    endloop
  endfacet
  facet normal 0 0 -1
    outer loop
      vertex 0 121.5 0
      vertex 12.0734 110.964 0
      vertex 12.0185 110.735 0
    endloop
  endfacet
  facet normal 0 0 -1
    outer loop
      vertex 12 30.5 0
      vertex 0 121.5 0
      vertex 12 110.5 0
    endloop
  endfacet
  facet normal 0 0 -1
    outer loop
      vertex 0 2.5 0
      vertex 2.5 0 0
      vertex 2.10891 0.0307789 0
    endloop
  endfacet
  facet normal 0 0 -1
    outer loop
      vertex 12 110.5 0
      vertex 0 121.5 0
      vertex 12.0185 110.735 0
    endloop
  endfacet
  facet normal 0 0 -1
    outer loop
      vertex 0 2.5 0
      vertex 2.10891 0.0307789 0
      vertex 1.72746 0.122358 0
    endloop
  endfacet
  facet normal 0 0 -1
    outer loop
      vertex 12.4393 111.561 0
      vertex 0 121.5 0
      vertex 2.5 124 0
    endloop
  endfacet
  facet normal 0 0 -1
    outer loop
      vertex 0 2.5 0
      vertex 1.72746 0.122358 0
      vertex 1.36502 0.272483 0
    endloop
  endfacet
  facet normal 0 0 -1
    outer loop
      vertex 2.5 124 0
      vertex 0 121.5 0
      vertex 2.10891 123.969 0
    endloop
  endfacet
  facet normal 0 0 -1
    outer loop
      vertex 0 2.5 0
      vertex 1.36502 0.272483 0
      vertex 1.03054 0.477457 0
    endloop
  endfacet
  facet normal 0 0 -1
    outer loop
      vertex 2.10891 123.969 0
      vertex 0 121.5 0
      vertex 1.72746 123.878 0
    endloop
  endfacet
  facet normal 0 0 -1
    outer loop
      vertex 0 2.5 0
      vertex 1.03054 0.477457 0
      vertex 0.732232 0.732232 0
    endloop
  endfacet
  facet normal 0 0 -1
    outer loop
      vertex 1.72746 123.878 0
      vertex 0 121.5 0
      vertex 1.36502 123.728 0
    endloop
  endfacet
  facet normal 0 0 -1
    outer loop
      vertex 0 2.5 0
      vertex 0.732232 0.732232 0
      vertex 0.477457 1.03054 0
    endloop
  endfacet
  facet normal 0 0 -1
    outer loop
      vertex 1.36502 123.728 0
      vertex 0 121.5 0
      vertex 1.03054 123.523 0
    endloop
  endfacet
  facet normal 0 0 -1
    outer loop
      vertex 0 2.5 0
      vertex 0.477457 1.03054 0
      vertex 0.272483 1.36502 0
    endloop
  endfacet
  facet normal 0 0 -1
    outer loop
      vertex 1.03054 123.523 0
      vertex 0 121.5 0
      vertex 0.732232 123.268 0
    endloop
  endfacet
  facet normal 0 0 -1
    outer loop
      vertex 0 2.5 0
      vertex 0.272483 1.36502 0
      vertex 0.122358 1.72746 0
    endloop
  endfacet
  facet normal 0 0 -1
    outer loop
      vertex 0.732232 123.268 0
      vertex 0 121.5 0
      vertex 0.477457 122.969 0
    endloop
  endfacet
  facet normal 0 0 -1
    outer loop
      vertex 0 2.5 0
      vertex 0.122358 1.72746 0
      vertex 0.0307789 2.10891 0
    endloop
  endfacet
  facet normal 0 0 -1
    outer loop
      vertex 0.477457 122.969 0
      vertex 0 121.5 0
      vertex 0.272483 122.635 0
    endloop
  endfacet
  facet normal 0 0 -1
    outer loop
      vertex 0.272483 122.635 0
      vertex 0 121.5 0
      vertex 0.122358 122.273 0
    endloop
  endfacet
  facet normal 0 0 -1
    outer loop
      vertex 0.122358 122.273 0
      vertex 0 121.5 0
      vertex 0.0307789 121.891 0
    endloop
  endfacet
  facet normal 0.0784557 -0.996918 0
    outer loop
      vertex 84.5 0 0
      vertex 84.8911 0.0307789 6.3
      vertex 84.5 0 6.3
    endloop
  endfacet
  facet normal 0.0784557 -0.996918 0
    outer loop
      vertex 84.8911 0.0307789 6.3
      vertex 84.5 0 0
      vertex 84.8911 0.0307789 0
    endloop
  endfacet
  facet normal -0.522555 0.852606 0
    outer loop
      vertex 1.36502 123.728 0
      vertex 1.03054 123.523 6.3
      vertex 1.36502 123.728 6.3
    endloop
  endfacet
  facet normal -0.522555 0.852606 0
    outer loop
      vertex 1.03054 123.523 6.3
      vertex 1.36502 123.728 0
      vertex 1.03054 123.523 0
    endloop
  endfacet
  facet normal 0 -1 0
    outer loop
      vertex 2.5 0 0
      vertex 84.5 0 6.3
      vertex 2.5 0 6.3
    endloop
  endfacet
  facet normal 0 -1 -0
    outer loop
      vertex 84.5 0 6.3
      vertex 2.5 0 0
      vertex 84.5 0 0
    endloop
  endfacet
  facet normal 0.852271 0.5231 0
    outer loop
      vertex 86.7275 122.635 6.3
      vertex 86.5225 122.969 0
      vertex 86.5225 122.969 6.3
    endloop
  endfacet
  facet normal 0.852271 0.5231 0
    outer loop
      vertex 86.5225 122.969 0
      vertex 86.7275 122.635 6.3
      vertex 86.7275 122.635 0
    endloop
  endfacet
  facet normal 0.382624 -0.923904 0
    outer loop
      vertex 85.2725 0.122358 0
      vertex 85.635 0.272483 6.3
      vertex 85.2725 0.122358 6.3
    endloop
  endfacet
  facet normal 0.382624 -0.923904 0
    outer loop
      vertex 85.635 0.272483 6.3
      vertex 85.2725 0.122358 0
      vertex 85.635 0.272483 0
    endloop
  endfacet
  facet normal -0.923882 -0.382678 0
    outer loop
      vertex 0.272483 1.36502 0
      vertex 0.122358 1.72746 6.3
      vertex 0.122358 1.72746 0
    endloop
  endfacet
  facet normal -0.923882 -0.382678 0
    outer loop
      vertex 0.122358 1.72746 6.3
      vertex 0.272483 1.36502 0
      vertex 0.272483 1.36502 6.3
    endloop
  endfacet
  facet normal 0.760506 -0.649331 0
    outer loop
      vertex 86.2678 0.732232 6.3
      vertex 86.5225 1.03054 0
      vertex 86.5225 1.03054 6.3
    endloop
  endfacet
  facet normal 0.760506 -0.649331 0
    outer loop
      vertex 86.5225 1.03054 0
      vertex 86.2678 0.732232 6.3
      vertex 86.2678 0.732232 0
    endloop
  endfacet
  facet normal -0.649773 0.760128 0
    outer loop
      vertex 1.03054 123.523 0
      vertex 0.732232 123.268 6.3
      vertex 1.03054 123.523 6.3
    endloop
  endfacet
  facet normal -0.649773 0.760128 0
    outer loop
      vertex 0.732232 123.268 6.3
      vertex 1.03054 123.523 0
      vertex 0.732232 123.268 0
    endloop
  endfacet
  facet normal -0.0790178 0.996873 0
    outer loop
      vertex 2.5 124 0
      vertex 2.10891 123.969 6.3
      vertex 2.5 124 6.3
    endloop
  endfacet
  facet normal -0.0790178 0.996873 0
    outer loop
      vertex 2.10891 123.969 6.3
      vertex 2.5 124 0
      vertex 2.10891 123.969 0
    endloop
  endfacet
  facet normal 1 -0 0
    outer loop
      vertex 87 2.5 6.3
      vertex 87 121.5 0
      vertex 87 121.5 6.3
    endloop
  endfacet
  facet normal 1 0 0
    outer loop
      vertex 87 121.5 0
      vertex 87 2.5 6.3
      vertex 87 2.5 0
    endloop
  endfacet
  facet normal -0.852635 -0.522507 0
    outer loop
      vertex 0.477457 1.03054 0
      vertex 0.272483 1.36502 6.3
      vertex 0.272483 1.36502 0
    endloop
  endfacet
  facet normal -0.852635 -0.522507 0
    outer loop
      vertex 0.272483 1.36502 6.3
      vertex 0.477457 1.03054 0
      vertex 0.477457 1.03054 6.3
    endloop
  endfacet
  facet normal 0.996912 0.0785291 0
    outer loop
      vertex 87 121.5 6.3
      vertex 86.9692 121.891 0
      vertex 86.9692 121.891 6.3
    endloop
  endfacet
  facet normal 0.996912 0.0785291 0
    outer loop
      vertex 86.9692 121.891 0
      vertex 87 121.5 6.3
      vertex 87 121.5 0
    endloop
  endfacet
  facet normal -0.522507 -0.852635 0
    outer loop
      vertex 1.03054 0.477457 0
      vertex 1.36502 0.272483 6.3
      vertex 1.03054 0.477457 6.3
    endloop
  endfacet
  facet normal -0.522507 -0.852635 -0
    outer loop
      vertex 1.36502 0.272483 6.3
      vertex 1.03054 0.477457 0
      vertex 1.36502 0.272483 0
    endloop
  endfacet
  facet normal 0 1 -0
    outer loop
      vertex 84.5 124 0
      vertex 2.5 124 6.3
      vertex 84.5 124 6.3
    endloop
  endfacet
  facet normal 0 1 0
    outer loop
      vertex 2.5 124 6.3
      vertex 84.5 124 0
      vertex 2.5 124 0
    endloop
  endfacet
  facet normal -0.761154 0.648572 0
    outer loop
      vertex 0.477457 122.969 0
      vertex 0.732232 123.268 6.3
      vertex 0.732232 123.268 0
    endloop
  endfacet
  facet normal -0.761154 0.648572 0
    outer loop
      vertex 0.732232 123.268 6.3
      vertex 0.477457 122.969 0
      vertex 0.477457 122.969 6.3
    endloop
  endfacet
  facet normal 0.522532 0.85262 -0
    outer loop
      vertex 85.9695 123.523 0
      vertex 85.635 123.728 6.3
      vertex 85.9695 123.523 6.3
    endloop
  endfacet
  facet normal 0.522532 0.85262 0
    outer loop
      vertex 85.635 123.728 6.3
      vertex 85.9695 123.523 0
      vertex 85.635 123.728 0
    endloop
  endfacet
  facet normal -0.996916 0.0784756 0
    outer loop
      vertex 0 121.5 0
      vertex 0.0307789 121.891 6.3
      vertex 0.0307789 121.891 0
    endloop
  endfacet
  facet normal -0.996916 0.0784756 0
    outer loop
      vertex 0.0307789 121.891 6.3
      vertex 0 121.5 0
      vertex 0 121.5 6.3
    endloop
  endfacet
  facet normal -0.232051 0.972704 0
    outer loop
      vertex 2.10891 123.969 0
      vertex 1.72746 123.878 6.3
      vertex 2.10891 123.969 6.3
    endloop
  endfacet
  facet normal -0.232051 0.972704 0
    outer loop
      vertex 1.72746 123.878 6.3
      vertex 2.10891 123.969 0
      vertex 1.72746 123.878 0
    endloop
  endfacet
  facet normal -0.233448 -0.972369 0
    outer loop
      vertex 1.72746 0.122358 0
      vertex 2.10891 0.0307789 6.3
      vertex 1.72746 0.122358 6.3
    endloop
  endfacet
  facet normal -0.233448 -0.972369 -0
    outer loop
      vertex 2.10891 0.0307789 6.3
      vertex 1.72746 0.122358 0
      vertex 2.10891 0.0307789 0
    endloop
  endfacet
  facet normal -0.0784577 -0.996917 0
    outer loop
      vertex 2.10891 0.0307789 0
      vertex 2.5 0 6.3
      vertex 2.10891 0.0307789 6.3
    endloop
  endfacet
  facet normal -0.0784577 -0.996917 -0
    outer loop
      vertex 2.5 0 6.3
      vertex 2.10891 0.0307789 0
      vertex 2.5 0 0
    endloop
  endfacet
  facet normal 0.23208 0.972697 -0
    outer loop
      vertex 85.2725 123.878 0
      vertex 84.8911 123.969 6.3
      vertex 85.2725 123.878 6.3
    endloop
  endfacet
  facet normal 0.23208 0.972697 0
    outer loop
      vertex 84.8911 123.969 6.3
      vertex 85.2725 123.878 0
      vertex 84.8911 123.969 0
    endloop
  endfacet
  facet normal 0.382352 0.924017 -0
    outer loop
      vertex 85.635 123.728 0
      vertex 85.2725 123.878 6.3
      vertex 85.635 123.728 6.3
    endloop
  endfacet
  facet normal 0.382352 0.924017 0
    outer loop
      vertex 85.2725 123.878 6.3
      vertex 85.635 123.728 0
      vertex 85.2725 123.878 0
    endloop
  endfacet
  facet normal -0.649442 -0.760411 0
    outer loop
      vertex 0.732232 0.732232 0
      vertex 1.03054 0.477457 6.3
      vertex 0.732232 0.732232 6.3
    endloop
  endfacet
  facet normal -0.649442 -0.760411 -0
    outer loop
      vertex 1.03054 0.477457 6.3
      vertex 0.732232 0.732232 0
      vertex 1.03054 0.477457 0
    endloop
  endfacet
  facet normal 0.0790158 0.996873 -0
    outer loop
      vertex 84.8911 123.969 0
      vertex 84.5 124 6.3
      vertex 84.8911 123.969 6.3
    endloop
  endfacet
  facet normal 0.0790158 0.996873 0
    outer loop
      vertex 84.5 124 6.3
      vertex 84.8911 123.969 0
      vertex 84.5 124 0
    endloop
  endfacet
  facet normal 0.92374 0.38302 0
    outer loop
      vertex 86.8776 122.273 6.3
      vertex 86.7275 122.635 0
      vertex 86.7275 122.635 6.3
    endloop
  endfacet
  facet normal 0.92374 0.38302 0
    outer loop
      vertex 86.7275 122.635 0
      vertex 86.8776 122.273 6.3
      vertex 86.8776 122.273 0
    endloop
  endfacet
  facet normal 0.923904 -0.382623 0
    outer loop
      vertex 86.7275 1.36502 6.3
      vertex 86.8776 1.72746 0
      vertex 86.8776 1.72746 6.3
    endloop
  endfacet
  facet normal 0.923904 -0.382623 0
    outer loop
      vertex 86.8776 1.72746 0
      vertex 86.7275 1.36502 6.3
      vertex 86.7275 1.36502 0
    endloop
  endfacet
  facet normal -0.382678 -0.923882 0
    outer loop
      vertex 1.36502 0.272483 0
      vertex 1.72746 0.122358 6.3
      vertex 1.36502 0.272483 6.3
    endloop
  endfacet
  facet normal -0.382678 -0.923882 -0
    outer loop
      vertex 1.72746 0.122358 6.3
      vertex 1.36502 0.272483 0
      vertex 1.72746 0.122358 0
    endloop
  endfacet
  facet normal 0.972357 -0.233498 0
    outer loop
      vertex 86.8776 1.72746 6.3
      vertex 86.9692 2.10891 0
      vertex 86.9692 2.10891 6.3
    endloop
  endfacet
  facet normal 0.972357 -0.233498 0
    outer loop
      vertex 86.9692 2.10891 0
      vertex 86.8776 1.72746 6.3
      vertex 86.8776 1.72746 0
    endloop
  endfacet
  facet normal 0.649784 0.760119 -0
    outer loop
      vertex 86.2678 123.268 0
      vertex 85.9695 123.523 6.3
      vertex 86.2678 123.268 6.3
    endloop
  endfacet
  facet normal 0.649784 0.760119 0
    outer loop
      vertex 85.9695 123.523 6.3
      vertex 86.2678 123.268 0
      vertex 85.9695 123.523 0
    endloop
  endfacet
  facet normal 0.852606 -0.522555 0
    outer loop
      vertex 86.5225 1.03054 6.3
      vertex 86.7275 1.36502 0
      vertex 86.7275 1.36502 6.3
    endloop
  endfacet
  facet normal 0.852606 -0.522555 0
    outer loop
      vertex 86.7275 1.36502 0
      vertex 86.5225 1.03054 6.3
      vertex 86.5225 1.03054 0
    endloop
  endfacet
  facet normal -0.923717 0.383075 0
    outer loop
      vertex 0.122358 122.273 0
      vertex 0.272483 122.635 6.3
      vertex 0.272483 122.635 0
    endloop
  endfacet
  facet normal -0.923717 0.383075 0
    outer loop
      vertex 0.272483 122.635 6.3
      vertex 0.122358 122.273 0
      vertex 0.122358 122.273 6.3
    endloop
  endfacet
  facet normal 0.233477 -0.972362 0
    outer loop
      vertex 84.8911 0.0307789 0
      vertex 85.2725 0.122358 6.3
      vertex 84.8911 0.0307789 6.3
    endloop
  endfacet
  facet normal 0.233477 -0.972362 0
    outer loop
      vertex 85.2725 0.122358 6.3
      vertex 84.8911 0.0307789 0
      vertex 85.2725 0.122358 0
    endloop
  endfacet
  facet normal -0.996917 -0.0784577 0
    outer loop
      vertex 0.0307789 2.10891 0
      vertex 0 2.5 6.3
      vertex 0 2.5 0
    endloop
  endfacet
  facet normal -0.996917 -0.0784577 0
    outer loop
      vertex 0 2.5 6.3
      vertex 0.0307789 2.10891 0
      vertex 0.0307789 2.10891 6.3
    endloop
  endfacet
  facet normal 0 0 1
    outer loop
      vertex 86 123 6.3
      vertex 87 121.5 6.3
      vertex 86.9692 121.891 6.3
    endloop
  endfacet
  facet normal 0 0 1
    outer loop
      vertex 87 121.5 6.3
      vertex 86 123 6.3
      vertex 87 2.5 6.3
    endloop
  endfacet
  facet normal 0 0 1
    outer loop
      vertex 86 123 6.3
      vertex 86.9692 121.891 6.3
      vertex 86.8776 122.273 6.3
    endloop
  endfacet
  facet normal 0 0 1
    outer loop
      vertex 86 1 6.3
      vertex 87 2.5 6.3
      vertex 86 123 6.3
    endloop
  endfacet
  facet normal 0 0 1
    outer loop
      vertex 86 123 6.3
      vertex 86.8776 122.273 6.3
      vertex 86.7275 122.635 6.3
    endloop
  endfacet
  facet normal 0 0 1
    outer loop
      vertex 87 2.5 6.3
      vertex 86 1 6.3
      vertex 86.9692 2.10891 6.3
    endloop
  endfacet
  facet normal 0 0 1
    outer loop
      vertex 86 123 6.3
      vertex 86.7275 122.635 6.3
      vertex 86.5225 122.969 6.3
    endloop
  endfacet
  facet normal 0 0 1
    outer loop
      vertex 86.9692 2.10891 6.3
      vertex 86 1 6.3
      vertex 86.8776 1.72746 6.3
    endloop
  endfacet
  facet normal -0 0 1
    outer loop
      vertex 86 123 6.3
      vertex 86.5225 122.969 6.3
      vertex 86.2678 123.268 6.3
    endloop
  endfacet
  facet normal 0 0 1
    outer loop
      vertex 86.8776 1.72746 6.3
      vertex 86 1 6.3
      vertex 86.7275 1.36502 6.3
    endloop
  endfacet
  facet normal 0 0 1
    outer loop
      vertex 86.7275 1.36502 6.3
      vertex 86 1 6.3
      vertex 86.5225 1.03054 6.3
    endloop
  endfacet
  facet normal 0 0 1
    outer loop
      vertex 85.9695 123.523 6.3
      vertex 86 123 6.3
      vertex 86.2678 123.268 6.3
    endloop
  endfacet
  facet normal 0 0 1
    outer loop
      vertex 85.635 123.728 6.3
      vertex 86 123 6.3
      vertex 85.9695 123.523 6.3
    endloop
  endfacet
  facet normal 0 0 1
    outer loop
      vertex 85.2725 123.878 6.3
      vertex 86 123 6.3
      vertex 85.635 123.728 6.3
    endloop
  endfacet
  facet normal 0 0 1
    outer loop
      vertex 84.8911 123.969 6.3
      vertex 86 123 6.3
      vertex 85.2725 123.878 6.3
    endloop
  endfacet
  facet normal 0 0 1
    outer loop
      vertex 84.5 124 6.3
      vertex 86 123 6.3
      vertex 84.8911 123.969 6.3
    endloop
  endfacet
  facet normal -0 0 1
    outer loop
      vertex 2.5 124 6.3
      vertex 86 123 6.3
      vertex 84.5 124 6.3
    endloop
  endfacet
  facet normal 0 0 1
    outer loop
      vertex 1 123 6.3
      vertex 2.5 124 6.3
      vertex 2.10891 123.969 6.3
    endloop
  endfacet
  facet normal 0 0 1
    outer loop
      vertex 1 123 6.3
      vertex 2.10891 123.969 6.3
      vertex 1.72746 123.878 6.3
    endloop
  endfacet
  facet normal 0 0 1
    outer loop
      vertex 1 123 6.3
      vertex 1.72746 123.878 6.3
      vertex 1.36502 123.728 6.3
    endloop
  endfacet
  facet normal 0 0 1
    outer loop
      vertex 1 123 6.3
      vertex 1.36502 123.728 6.3
      vertex 1.03054 123.523 6.3
    endloop
  endfacet
  facet normal 0 0 1
    outer loop
      vertex 2.5 124 6.3
      vertex 1 123 6.3
      vertex 86 123 6.3
    endloop
  endfacet
  facet normal 0 0 1
    outer loop
      vertex 0.477457 122.969 6.3
      vertex 1 123 6.3
      vertex 0.732232 123.268 6.3
    endloop
  endfacet
  facet normal -0 0 1
    outer loop
      vertex 0.732232 123.268 6.3
      vertex 1 123 6.3
      vertex 1.03054 123.523 6.3
    endloop
  endfacet
  facet normal 0 0 1
    outer loop
      vertex 86.5225 1.03054 6.3
      vertex 86 1 6.3
      vertex 86.2678 0.732232 6.3
    endloop
  endfacet
  facet normal 0 0 1
    outer loop
      vertex 86 1 6.3
      vertex 85.9695 0.477457 6.3
      vertex 86.2678 0.732232 6.3
    endloop
  endfacet
  facet normal 0 0 1
    outer loop
      vertex 86 1 6.3
      vertex 85.635 0.272483 6.3
      vertex 85.9695 0.477457 6.3
    endloop
  endfacet
  facet normal 0 0 1
    outer loop
      vertex 86 1 6.3
      vertex 85.2725 0.122358 6.3
      vertex 85.635 0.272483 6.3
    endloop
  endfacet
  facet normal 0 0 1
    outer loop
      vertex 86 1 6.3
      vertex 84.8911 0.0307789 6.3
      vertex 85.2725 0.122358 6.3
    endloop
  endfacet
  facet normal 0 0 1
    outer loop
      vertex 86 1 6.3
      vertex 84.5 0 6.3
      vertex 84.8911 0.0307789 6.3
    endloop
  endfacet
  facet normal 0 0 1
    outer loop
      vertex 86 1 6.3
      vertex 2.5 0 6.3
      vertex 84.5 0 6.3
    endloop
  endfacet
  facet normal -0 0 1
    outer loop
      vertex 1 1 6.3
      vertex 2.5 0 6.3
      vertex 86 1 6.3
    endloop
  endfacet
  facet normal 0 0 1
    outer loop
      vertex 2.5 0 6.3
      vertex 1 1 6.3
      vertex 2.10891 0.0307789 6.3
    endloop
  endfacet
  facet normal 0 0 1
    outer loop
      vertex 2.10891 0.0307789 6.3
      vertex 1 1 6.3
      vertex 1.72746 0.122358 6.3
    endloop
  endfacet
  facet normal 0 0 1
    outer loop
      vertex 1.72746 0.122358 6.3
      vertex 1 1 6.3
      vertex 1.36502 0.272483 6.3
    endloop
  endfacet
  facet normal 0 0 1
    outer loop
      vertex 1.36502 0.272483 6.3
      vertex 1 1 6.3
      vertex 1.03054 0.477457 6.3
    endloop
  endfacet
  facet normal 0 0 1
    outer loop
      vertex 1 1 6.3
      vertex 0.732232 0.732232 6.3
      vertex 1.03054 0.477457 6.3
    endloop
  endfacet
  facet normal 0 0 1
    outer loop
      vertex 1 123 6.3
      vertex 0 121.5 6.3
      vertex 1 1 6.3
    endloop
  endfacet
  facet normal 0 0 1
    outer loop
      vertex 0.272483 122.635 6.3
      vertex 1 123 6.3
      vertex 0.477457 122.969 6.3
    endloop
  endfacet
  facet normal -0 0 1
    outer loop
      vertex 0 2.5 6.3
      vertex 1 1 6.3
      vertex 0 121.5 6.3
    endloop
  endfacet
  facet normal 0 0 1
    outer loop
      vertex 0.122358 122.273 6.3
      vertex 1 123 6.3
      vertex 0.272483 122.635 6.3
    endloop
  endfacet
  facet normal -0 -0 1
    outer loop
      vertex 0.0307789 2.10891 6.3
      vertex 1 1 6.3
      vertex 0 2.5 6.3
    endloop
  endfacet
  facet normal 0 0 1
    outer loop
      vertex 0.0307789 121.891 6.3
      vertex 1 123 6.3
      vertex 0.122358 122.273 6.3
    endloop
  endfacet
  facet normal 0 0 1
    outer loop
      vertex 1 1 6.3
      vertex 0.477457 1.03054 6.3
      vertex 0.732232 0.732232 6.3
    endloop
  endfacet
  facet normal 0 0 1
    outer loop
      vertex 1 123 6.3
      vertex 0.0307789 121.891 6.3
      vertex 0 121.5 6.3
    endloop
  endfacet
  facet normal 0 0 1
    outer loop
      vertex 1 1 6.3
      vertex 0.272483 1.36502 6.3
      vertex 0.477457 1.03054 6.3
    endloop
  endfacet
  facet normal 0 0 1
    outer loop
      vertex 1 1 6.3
      vertex 0.122358 1.72746 6.3
      vertex 0.272483 1.36502 6.3
    endloop
  endfacet
  facet normal 0 0 1
    outer loop
      vertex 1 1 6.3
      vertex 0.0307789 2.10891 6.3
      vertex 0.122358 1.72746 6.3
    endloop
  endfacet
  facet normal 0.649452 -0.760403 0
    outer loop
      vertex 85.9695 0.477457 0
      vertex 86.2678 0.732232 6.3
      vertex 85.9695 0.477457 6.3
    endloop
  endfacet
  facet normal 0.649452 -0.760403 0
    outer loop
      vertex 86.2678 0.732232 6.3
      vertex 85.9695 0.477457 0
      vertex 86.2678 0.732232 0
    endloop
  endfacet
  facet normal -0.760411 -0.649442 0
    outer loop
      vertex 0.732232 0.732232 0
      vertex 0.477457 1.03054 6.3
      vertex 0.477457 1.03054 0
    endloop
  endfacet
  facet normal -0.760411 -0.649442 0
    outer loop
      vertex 0.477457 1.03054 6.3
      vertex 0.732232 0.732232 0
      vertex 0.732232 0.732232 6.3
    endloop
  endfacet
  facet normal -0.972369 -0.233448 0
    outer loop
      vertex 0.122358 1.72746 0
      vertex 0.0307789 2.10891 6.3
      vertex 0.0307789 2.10891 0
    endloop
  endfacet
  facet normal -0.972369 -0.233448 0
    outer loop
      vertex 0.0307789 2.10891 6.3
      vertex 0.122358 1.72746 0
      vertex 0.122358 1.72746 6.3
    endloop
  endfacet
  facet normal 0 -1 0
    outer loop
      vertex 13.5 112 0
      vertex 73.5 112 2
      vertex 13.5 112 2
    endloop
  endfacet
  facet normal 0 -1 -0
    outer loop
      vertex 73.5 112 2
      vertex 13.5 112 0
      vertex 73.5 112 0
    endloop
  endfacet
  facet normal 0.760575 0.64925 0
    outer loop
      vertex 12.4393 29.4393 2
      vertex 12.2865 29.6183 0
      vertex 12.2865 29.6183 2
    endloop
  endfacet
  facet normal 0.760575 0.64925 0
    outer loop
      vertex 12.2865 29.6183 0
      vertex 12.4393 29.4393 2
      vertex 12.4393 29.4393 0
    endloop
  endfacet
  facet normal 1 -0 0
    outer loop
      vertex 12 30.5 2
      vertex 12 110.5 0
      vertex 12 110.5 2
    endloop
  endfacet
  facet normal 1 0 0
    outer loop
      vertex 12 110.5 0
      vertex 12 30.5 2
      vertex 12 30.5 0
    endloop
  endfacet
  facet normal -0.233228 0.972422 0
    outer loop
      vertex 73.9635 29.0734 0
      vertex 73.7346 29.0185 2
      vertex 73.9635 29.0734 2
    endloop
  endfacet
  facet normal -0.233228 0.972422 0
    outer loop
      vertex 73.7346 29.0185 2
      vertex 73.9635 29.0734 0
      vertex 73.7346 29.0185 0
    endloop
  endfacet
  facet normal -0.64925 0.760575 0
    outer loop
      vertex 74.5607 29.4393 0
      vertex 74.3817 29.2865 2
      vertex 74.5607 29.4393 2
    endloop
  endfacet
  facet normal -0.64925 0.760575 0
    outer loop
      vertex 74.3817 29.2865 2
      vertex 74.5607 29.4393 0
      vertex 74.3817 29.2865 0
    endloop
  endfacet
  facet normal 0.522532 -0.85262 0
    outer loop
      vertex 12.6183 111.714 0
      vertex 12.819 111.837 2
      vertex 12.6183 111.714 2
    endloop
  endfacet
  facet normal 0.522532 -0.85262 0
    outer loop
      vertex 12.819 111.837 2
      vertex 12.6183 111.714 0
      vertex 12.819 111.837 0
    endloop
  endfacet
  facet normal -0.972445 -0.233132 0
    outer loop
      vertex 74.9815 110.735 0
      vertex 74.9266 110.964 2
      vertex 74.9266 110.964 0
    endloop
  endfacet
  facet normal -0.972445 -0.233132 0
    outer loop
      vertex 74.9266 110.964 2
      vertex 74.9815 110.735 0
      vertex 74.9815 110.735 2
    endloop
  endfacet
  facet normal 0 1 -0
    outer loop
      vertex 73.5 29 0
      vertex 13.5 29 2
      vertex 73.5 29 2
    endloop
  endfacet
  facet normal 0 1 0
    outer loop
      vertex 13.5 29 2
      vertex 73.5 29 0
      vertex 13.5 29 0
    endloop
  endfacet
  facet normal -0.0765015 -0.997069 0
    outer loop
      vertex 73.5 112 0
      vertex 73.7346 111.982 2
      vertex 73.5 112 2
    endloop
  endfacet
  facet normal -0.0765015 -0.997069 -0
    outer loop
      vertex 73.7346 111.982 2
      vertex 73.5 112 0
      vertex 73.7346 111.982 0
    endloop
  endfacet
  facet normal -0.649742 -0.760155 0
    outer loop
      vertex 74.3817 111.714 0
      vertex 74.5607 111.561 2
      vertex 74.3817 111.714 2
    endloop
  endfacet
  facet normal -0.649742 -0.760155 -0
    outer loop
      vertex 74.5607 111.561 2
      vertex 74.3817 111.714 0
      vertex 74.5607 111.561 0
    endloop
  endfacet
  facet normal -0.522532 -0.85262 0
    outer loop
      vertex 74.181 111.837 0
      vertex 74.3817 111.714 2
      vertex 74.181 111.837 2
    endloop
  endfacet
  facet normal -0.522532 -0.85262 -0
    outer loop
      vertex 74.3817 111.714 2
      vertex 74.181 111.837 0
      vertex 74.3817 111.714 0
    endloop
  endfacet
  facet normal 0.382714 0.923867 -0
    outer loop
      vertex 13.0365 29.0734 0
      vertex 12.819 29.1635 2
      vertex 13.0365 29.0734 2
    endloop
  endfacet
  facet normal 0.382714 0.923867 0
    outer loop
      vertex 12.819 29.1635 2
      vertex 13.0365 29.0734 0
      vertex 12.819 29.1635 0
    endloop
  endfacet
  facet normal -0.923867 0.382714 0
    outer loop
      vertex 74.8365 29.819 0
      vertex 74.9266 30.0365 2
      vertex 74.9266 30.0365 0
    endloop
  endfacet
  facet normal -0.923867 0.382714 0
    outer loop
      vertex 74.9266 30.0365 2
      vertex 74.8365 29.819 0
      vertex 74.8365 29.819 2
    endloop
  endfacet
  facet normal -0.852967 -0.521965 0
    outer loop
      vertex 74.8365 111.181 0
      vertex 74.7135 111.382 2
      vertex 74.7135 111.382 0
    endloop
  endfacet
  facet normal -0.852967 -0.521965 0
    outer loop
      vertex 74.7135 111.382 2
      vertex 74.8365 111.181 0
      vertex 74.8365 111.181 2
    endloop
  endfacet
  facet normal 0.0785803 0.996908 -0
    outer loop
      vertex 13.5 29 0
      vertex 13.2653 29.0185 2
      vertex 13.5 29 2
    endloop
  endfacet
  facet normal 0.0785803 0.996908 0
    outer loop
      vertex 13.2653 29.0185 2
      vertex 13.5 29 0
      vertex 13.2653 29.0185 0
    endloop
  endfacet
  facet normal 0.64925 0.760575 -0
    outer loop
      vertex 12.6183 29.2865 0
      vertex 12.4393 29.4393 2
      vertex 12.6183 29.2865 2
    endloop
  endfacet
  facet normal 0.64925 0.760575 0
    outer loop
      vertex 12.4393 29.4393 2
      vertex 12.6183 29.2865 0
      vertex 12.4393 29.4393 0
    endloop
  endfacet
  facet normal -0.522532 0.85262 0
    outer loop
      vertex 74.3817 29.2865 0
      vertex 74.181 29.1635 2
      vertex 74.3817 29.2865 2
    endloop
  endfacet
  facet normal -0.522532 0.85262 0
    outer loop
      vertex 74.181 29.1635 2
      vertex 74.3817 29.2865 0
      vertex 74.181 29.1635 0
    endloop
  endfacet
  facet normal -0.996908 0.0785803 0
    outer loop
      vertex 74.9815 30.2653 0
      vertex 75 30.5 2
      vertex 75 30.5 0
    endloop
  endfacet
  facet normal -0.996908 0.0785803 0
    outer loop
      vertex 75 30.5 2
      vertex 74.9815 30.2653 0
      vertex 74.9815 30.2653 2
    endloop
  endfacet
  facet normal 0.522532 0.85262 -0
    outer loop
      vertex 12.819 29.1635 0
      vertex 12.6183 29.2865 2
      vertex 12.819 29.1635 2
    endloop
  endfacet
  facet normal 0.522532 0.85262 0
    outer loop
      vertex 12.6183 29.2865 2
      vertex 12.819 29.1635 0
      vertex 12.6183 29.2865 0
    endloop
  endfacet
  facet normal -0.23363 -0.972326 0
    outer loop
      vertex 73.7346 111.982 0
      vertex 73.9635 111.927 2
      vertex 73.7346 111.982 2
    endloop
  endfacet
  facet normal -0.23363 -0.972326 -0
    outer loop
      vertex 73.9635 111.927 2
      vertex 73.7346 111.982 0
      vertex 73.9635 111.927 0
    endloop
  endfacet
  facet normal -0.382352 -0.924017 0
    outer loop
      vertex 73.9635 111.927 0
      vertex 74.181 111.837 2
      vertex 73.9635 111.927 2
    endloop
  endfacet
  facet normal -0.382352 -0.924017 -0
    outer loop
      vertex 74.181 111.837 2
      vertex 73.9635 111.927 0
      vertex 74.181 111.837 0
    endloop
  endfacet
  facet normal -1 0 0
    outer loop
      vertex 75 30.5 0
      vertex 75 110.5 2
      vertex 75 110.5 0
    endloop
  endfacet
  facet normal -1 -0 0
    outer loop
      vertex 75 110.5 2
      vertex 75 30.5 0
      vertex 75 30.5 2
    endloop
  endfacet
  facet normal -0.996916 -0.0784806 0
    outer loop
      vertex 75 110.5 0
      vertex 74.9815 110.735 2
      vertex 74.9815 110.735 0
    endloop
  endfacet
  facet normal -0.996916 -0.0784806 0
    outer loop
      vertex 74.9815 110.735 2
      vertex 75 110.5 0
      vertex 75 110.5 2
    endloop
  endfacet
  facet normal 0.923555 -0.383467 0
    outer loop
      vertex 12.0734 110.964 2
      vertex 12.1635 111.181 0
      vertex 12.1635 111.181 2
    endloop
  endfacet
  facet normal 0.923555 -0.383467 0
    outer loop
      vertex 12.1635 111.181 0
      vertex 12.0734 110.964 2
      vertex 12.0734 110.964 0
    endloop
  endfacet
  facet normal -0.0786136 0.996905 0
    outer loop
      vertex 73.7346 29.0185 0
      vertex 73.5 29 2
      vertex 73.7346 29.0185 2
    endloop
  endfacet
  facet normal -0.0786136 0.996905 0
    outer loop
      vertex 73.5 29 2
      vertex 73.7346 29.0185 0
      vertex 73.5 29 0
    endloop
  endfacet
  facet normal 0.0764691 -0.997072 0
    outer loop
      vertex 13.2653 111.982 0
      vertex 13.5 112 2
      vertex 13.2653 111.982 2
    endloop
  endfacet
  facet normal 0.0764691 -0.997072 0
    outer loop
      vertex 13.5 112 2
      vertex 13.2653 111.982 0
      vertex 13.5 112 0
    endloop
  endfacet
  facet normal 0.233727 -0.972302 0
    outer loop
      vertex 13.0365 111.927 0
      vertex 13.2653 111.982 2
      vertex 13.0365 111.927 2
    endloop
  endfacet
  facet normal 0.233727 -0.972302 0
    outer loop
      vertex 13.2653 111.982 2
      vertex 13.0365 111.927 0
      vertex 13.2653 111.982 0
    endloop
  endfacet
  facet normal -0.382714 0.923867 0
    outer loop
      vertex 74.181 29.1635 0
      vertex 73.9635 29.0734 2
      vertex 74.181 29.1635 2
    endloop
  endfacet
  facet normal -0.382714 0.923867 0
    outer loop
      vertex 73.9635 29.0734 2
      vertex 74.181 29.1635 0
      vertex 73.9635 29.0734 0
    endloop
  endfacet
  facet normal 0.649742 -0.760155 0
    outer loop
      vertex 12.4393 111.561 0
      vertex 12.6183 111.714 2
      vertex 12.4393 111.561 2
    endloop
  endfacet
  facet normal 0.649742 -0.760155 0
    outer loop
      vertex 12.6183 111.714 2
      vertex 12.4393 111.561 0
      vertex 12.6183 111.714 0
    endloop
  endfacet
  facet normal -0.760575 0.64925 0
    outer loop
      vertex 74.5607 29.4393 0
      vertex 74.7135 29.6183 2
      vertex 74.7135 29.6183 0
    endloop
  endfacet
  facet normal -0.760575 0.64925 0
    outer loop
      vertex 74.7135 29.6183 2
      vertex 74.5607 29.4393 0
      vertex 74.5607 29.4393 2
    endloop
  endfacet
  facet normal 0.972445 -0.233132 0
    outer loop
      vertex 12.0185 110.735 2
      vertex 12.0734 110.964 0
      vertex 12.0734 110.964 2
    endloop
  endfacet
  facet normal 0.972445 -0.233132 0
    outer loop
      vertex 12.0734 110.964 0
      vertex 12.0185 110.735 2
      vertex 12.0185 110.735 0
    endloop
  endfacet
  facet normal 0.996916 -0.0784806 0
    outer loop
      vertex 12 110.5 2
      vertex 12.0185 110.735 0
      vertex 12.0185 110.735 2
    endloop
  endfacet
  facet normal 0.996916 -0.0784806 0
    outer loop
      vertex 12.0185 110.735 0
      vertex 12 110.5 2
      vertex 12 110.5 0
    endloop
  endfacet
  facet normal 0.972399 0.233325 0
    outer loop
      vertex 12.0734 30.0365 2
      vertex 12.0185 30.2653 0
      vertex 12.0185 30.2653 2
    endloop
  endfacet
  facet normal 0.972399 0.233325 0
    outer loop
      vertex 12.0185 30.2653 0
      vertex 12.0734 30.0365 2
      vertex 12.0734 30.0365 0
    endloop
  endfacet
  facet normal -0.972399 0.233325 0
    outer loop
      vertex 74.9266 30.0365 0
      vertex 74.9815 30.2653 2
      vertex 74.9815 30.2653 0
    endloop
  endfacet
  facet normal -0.972399 0.233325 0
    outer loop
      vertex 74.9815 30.2653 2
      vertex 74.9266 30.0365 0
      vertex 74.9266 30.0365 2
    endloop
  endfacet
  facet normal 0.233325 0.972399 -0
    outer loop
      vertex 13.2653 29.0185 0
      vertex 13.0365 29.0734 2
      vertex 13.2653 29.0185 2
    endloop
  endfacet
  facet normal 0.233325 0.972399 0
    outer loop
      vertex 13.0365 29.0734 2
      vertex 13.2653 29.0185 0
      vertex 13.0365 29.0734 0
    endloop
  endfacet
  facet normal 0.996908 0.0785803 0
    outer loop
      vertex 12.0185 30.2653 2
      vertex 12 30.5 0
      vertex 12 30.5 2
    endloop
  endfacet
  facet normal 0.996908 0.0785803 0
    outer loop
      vertex 12 30.5 0
      vertex 12.0185 30.2653 2
      vertex 12.0185 30.2653 0
    endloop
  endfacet
  facet normal 0.852967 -0.521965 0
    outer loop
      vertex 12.1635 111.181 2
      vertex 12.2865 111.382 0
      vertex 12.2865 111.382 2
    endloop
  endfacet
  facet normal 0.852967 -0.521965 0
    outer loop
      vertex 12.2865 111.382 0
      vertex 12.1635 111.181 2
      vertex 12.1635 111.181 0
    endloop
  endfacet
  facet normal 0.85262 0.522532 0
    outer loop
      vertex 12.2865 29.6183 2
      vertex 12.1635 29.819 0
      vertex 12.1635 29.819 2
    endloop
  endfacet
  facet normal 0.85262 0.522532 0
    outer loop
      vertex 12.1635 29.819 0
      vertex 12.2865 29.6183 2
      vertex 12.2865 29.6183 0
    endloop
  endfacet
  facet normal 0.382352 -0.924017 0
    outer loop
      vertex 12.819 111.837 0
      vertex 13.0365 111.927 2
      vertex 12.819 111.837 2
    endloop
  endfacet
  facet normal 0.382352 -0.924017 0
    outer loop
      vertex 13.0365 111.927 2
      vertex 12.819 111.837 0
      vertex 13.0365 111.927 0
    endloop
  endfacet
  facet normal -0.85262 0.522532 0
    outer loop
      vertex 74.7135 29.6183 0
      vertex 74.8365 29.819 2
      vertex 74.8365 29.819 0
    endloop
  endfacet
  facet normal -0.85262 0.522532 0
    outer loop
      vertex 74.8365 29.819 2
      vertex 74.7135 29.6183 0
      vertex 74.7135 29.6183 2
    endloop
  endfacet
  facet normal 0.923867 0.382714 0
    outer loop
      vertex 12.1635 29.819 2
      vertex 12.0734 30.0365 0
      vertex 12.0734 30.0365 2
    endloop
  endfacet
  facet normal 0.923867 0.382714 0
    outer loop
      vertex 12.0734 30.0365 0
      vertex 12.1635 29.819 2
      vertex 12.1635 29.819 0
    endloop
  endfacet
  facet normal -0.923555 -0.383467 0
    outer loop
      vertex 74.9266 110.964 0
      vertex 74.8365 111.181 2
      vertex 74.8365 111.181 0
    endloop
  endfacet
  facet normal -0.923555 -0.383467 0
    outer loop
      vertex 74.8365 111.181 2
      vertex 74.9266 110.964 0
      vertex 74.9266 110.964 2
    endloop
  endfacet
  facet normal -0.760575 -0.64925 0
    outer loop
      vertex 74.7135 111.382 0
      vertex 74.5607 111.561 2
      vertex 74.5607 111.561 0
    endloop
  endfacet
  facet normal -0.760575 -0.64925 0
    outer loop
      vertex 74.5607 111.561 2
      vertex 74.7135 111.382 0
      vertex 74.7135 111.382 2
    endloop
  endfacet
  facet normal 0.760575 -0.64925 0
    outer loop
      vertex 12.2865 111.382 2
      vertex 12.4393 111.561 0
      vertex 12.4393 111.561 2
    endloop
  endfacet
  facet normal 0.760575 -0.64925 0
    outer loop
      vertex 12.4393 111.561 0
      vertex 12.2865 111.382 2
      vertex 12.2865 111.382 0
    endloop
  endfacet
  facet normal -1 0 0
    outer loop
      vertex 86 1 2
      vertex 86 123 6.3
      vertex 86 123 2
    endloop
  endfacet
  facet normal -1 -0 0
    outer loop
      vertex 86 123 6.3
      vertex 86 1 2
      vertex 86 1 6.3
    endloop
  endfacet
  facet normal 0 0 1
    outer loop
      vertex 3 29 2
      vertex 12 110.5 2
      vertex 3 116 2
    endloop
  endfacet
  facet normal 0 0 1
    outer loop
      vertex 12 110.5 2
      vertex 3 29 2
      vertex 8 29 2
    endloop
  endfacet
  facet normal 0 0 1
    outer loop
      vertex 79.5 116 2
      vertex 75 110.5 2
      vertex 79.5 29 2
    endloop
  endfacet
  facet normal 0 0 1
    outer loop
      vertex 79.5 116 2
      vertex 74.9815 110.735 2
      vertex 75 110.5 2
    endloop
  endfacet
  facet normal 0 0 1
    outer loop
      vertex 79.5 116 2
      vertex 74.9266 110.964 2
      vertex 74.9815 110.735 2
    endloop
  endfacet
  facet normal 0 0 1
    outer loop
      vertex 79.5 116 2
      vertex 74.8365 111.181 2
      vertex 74.9266 110.964 2
    endloop
  endfacet
  facet normal 0 0 1
    outer loop
      vertex 79.5 116 2
      vertex 74.7135 111.382 2
      vertex 74.8365 111.181 2
    endloop
  endfacet
  facet normal 0 0 1
    outer loop
      vertex 79.5 116 2
      vertex 74.5607 111.561 2
      vertex 74.7135 111.382 2
    endloop
  endfacet
  facet normal -0 0 1
    outer loop
      vertex 74.5 116 2
      vertex 74.5607 111.561 2
      vertex 79.5 116 2
    endloop
  endfacet
  facet normal 0 0 1
    outer loop
      vertex 74.5607 111.561 2
      vertex 74.5 116 2
      vertex 74.3817 111.714 2
    endloop
  endfacet
  facet normal 0 0 1
    outer loop
      vertex 79.5 116 2
      vertex 86 123 2
      vertex 79.5 121 2
    endloop
  endfacet
  facet normal 0 0 1
    outer loop
      vertex 86 123 2
      vertex 74.5 121 2
      vertex 79.5 121 2
    endloop
  endfacet
  facet normal 0 0 1
    outer loop
      vertex 73.5 112 2
      vertex 74.5 116 2
      vertex 74.5 121 2
    endloop
  endfacet
  facet normal 0 0 1
    outer loop
      vertex 74.5 116 2
      vertex 74.181 111.837 2
      vertex 74.3817 111.714 2
    endloop
  endfacet
  facet normal 0 0 1
    outer loop
      vertex 74.5 116 2
      vertex 73.9635 111.927 2
      vertex 74.181 111.837 2
    endloop
  endfacet
  facet normal 0 0 1
    outer loop
      vertex 74.5 116 2
      vertex 73.7346 111.982 2
      vertex 73.9635 111.927 2
    endloop
  endfacet
  facet normal 0 0 1
    outer loop
      vertex 74.5 116 2
      vertex 73.5 112 2
      vertex 73.7346 111.982 2
    endloop
  endfacet
  facet normal 0 0 1
    outer loop
      vertex 74.5 121 2
      vertex 13.5 112 2
      vertex 73.5 112 2
    endloop
  endfacet
  facet normal -0 0 1
    outer loop
      vertex 1 123 2
      vertex 74.5 121 2
      vertex 86 123 2
    endloop
  endfacet
  facet normal 0 0 1
    outer loop
      vertex 74.5 121 2
      vertex 8 121 2
      vertex 13.5 112 2
    endloop
  endfacet
  facet normal 0 0 1
    outer loop
      vertex 12.0185 110.735 2
      vertex 8 116 2
      vertex 12 110.5 2
    endloop
  endfacet
  facet normal 0 0 1
    outer loop
      vertex 12.0734 110.964 2
      vertex 8 116 2
      vertex 12.0185 110.735 2
    endloop
  endfacet
  facet normal 0 0 1
    outer loop
      vertex 12.1635 111.181 2
      vertex 8 116 2
      vertex 12.0734 110.964 2
    endloop
  endfacet
  facet normal 0 0 1
    outer loop
      vertex 12.2865 111.382 2
      vertex 8 116 2
      vertex 12.1635 111.181 2
    endloop
  endfacet
  facet normal 0 0 1
    outer loop
      vertex 12.4393 111.561 2
      vertex 8 116 2
      vertex 12.2865 111.382 2
    endloop
  endfacet
  facet normal 0 0 1
    outer loop
      vertex 12.6183 111.714 2
      vertex 8 116 2
      vertex 12.4393 111.561 2
    endloop
  endfacet
  facet normal 0 0 1
    outer loop
      vertex 12.819 111.837 2
      vertex 8 116 2
      vertex 12.6183 111.714 2
    endloop
  endfacet
  facet normal 0 0 1
    outer loop
      vertex 13.0365 111.927 2
      vertex 8 116 2
      vertex 12.819 111.837 2
    endloop
  endfacet
  facet normal 0 0 1
    outer loop
      vertex 13.2653 111.982 2
      vertex 8 116 2
      vertex 13.0365 111.927 2
    endloop
  endfacet
  facet normal 0 0 1
    outer loop
      vertex 13.5 112 2
      vertex 8 116 2
      vertex 13.2653 111.982 2
    endloop
  endfacet
  facet normal -0 0 1
    outer loop
      vertex 8 116 2
      vertex 13.5 112 2
      vertex 8 121 2
    endloop
  endfacet
  facet normal 0 0 1
    outer loop
      vertex 74.5 121 2
      vertex 1 123 2
      vertex 8 121 2
    endloop
  endfacet
  facet normal 0 0 1
    outer loop
      vertex 1 123 2
      vertex 3 116 2
      vertex 3 121 2
    endloop
  endfacet
  facet normal 0 0 1
    outer loop
      vertex 3 116 2
      vertex 1 123 2
      vertex 3 29 2
    endloop
  endfacet
  facet normal 0 0 1
    outer loop
      vertex 1 1 2
      vertex 3 29 2
      vertex 1 123 2
    endloop
  endfacet
  facet normal 0 0 1
    outer loop
      vertex 8 121 2
      vertex 1 123 2
      vertex 3 121 2
    endloop
  endfacet
  facet normal 0 0 1
    outer loop
      vertex 79.5 29 2
      vertex 86 123 2
      vertex 79.5 116 2
    endloop
  endfacet
  facet normal 0 0 1
    outer loop
      vertex 86 123 2
      vertex 79.5 29 2
      vertex 86 1 2
    endloop
  endfacet
  facet normal -0 0 1
    outer loop
      vertex 79.5 24 2
      vertex 86 1 2
      vertex 79.5 29 2
    endloop
  endfacet
  facet normal -0 0 1
    outer loop
      vertex 74.5 24 2
      vertex 86 1 2
      vertex 79.5 24 2
    endloop
  endfacet
  facet normal -0 0 1
    outer loop
      vertex 73.9635 29.0734 2
      vertex 74.5 29 2
      vertex 74.181 29.1635 2
    endloop
  endfacet
  facet normal -0 0 1
    outer loop
      vertex 73.7346 29.0185 2
      vertex 74.5 29 2
      vertex 73.9635 29.0734 2
    endloop
  endfacet
  facet normal 0 0 1
    outer loop
      vertex 74.5 29 2
      vertex 73.7346 29.0185 2
      vertex 74.5 24 2
    endloop
  endfacet
  facet normal -0 0 1
    outer loop
      vertex 73.5 29 2
      vertex 74.5 24 2
      vertex 73.7346 29.0185 2
    endloop
  endfacet
  facet normal -0 0 1
    outer loop
      vertex 13.5 29 2
      vertex 74.5 24 2
      vertex 73.5 29 2
    endloop
  endfacet
  facet normal 0 0 1
    outer loop
      vertex 1 1 2
      vertex 74.5 24 2
      vertex 13.5 29 2
    endloop
  endfacet
  facet normal 0 0 1
    outer loop
      vertex 8 24 2
      vertex 13.5 29 2
      vertex 13.2653 29.0185 2
    endloop
  endfacet
  facet normal 0 0 1
    outer loop
      vertex 8 24 2
      vertex 13.2653 29.0185 2
      vertex 13.0365 29.0734 2
    endloop
  endfacet
  facet normal -0 0 1
    outer loop
      vertex 3 116 2
      vertex 12 110.5 2
      vertex 8 116 2
    endloop
  endfacet
  facet normal 0 0 1
    outer loop
      vertex 12 110.5 2
      vertex 8 29 2
      vertex 12 30.5 2
    endloop
  endfacet
  facet normal 0 0 1
    outer loop
      vertex 8 29 2
      vertex 12.0185 30.2653 2
      vertex 12 30.5 2
    endloop
  endfacet
  facet normal 0 0 1
    outer loop
      vertex 8 29 2
      vertex 12.0734 30.0365 2
      vertex 12.0185 30.2653 2
    endloop
  endfacet
  facet normal 0 0 1
    outer loop
      vertex 8 29 2
      vertex 12.1635 29.819 2
      vertex 12.0734 30.0365 2
    endloop
  endfacet
  facet normal 0 0 1
    outer loop
      vertex 8 29 2
      vertex 12.2865 29.6183 2
      vertex 12.1635 29.819 2
    endloop
  endfacet
  facet normal 0 0 1
    outer loop
      vertex 8 29 2
      vertex 12.4393 29.4393 2
      vertex 12.2865 29.6183 2
    endloop
  endfacet
  facet normal 0 0 1
    outer loop
      vertex 8 29 2
      vertex 12.6183 29.2865 2
      vertex 12.4393 29.4393 2
    endloop
  endfacet
  facet normal 0 0 1
    outer loop
      vertex 8 24 2
      vertex 12.6183 29.2865 2
      vertex 8 29 2
    endloop
  endfacet
  facet normal 0 0 1
    outer loop
      vertex 12.6183 29.2865 2
      vertex 8 24 2
      vertex 12.819 29.1635 2
    endloop
  endfacet
  facet normal 0 0 1
    outer loop
      vertex 12.819 29.1635 2
      vertex 8 24 2
      vertex 13.0365 29.0734 2
    endloop
  endfacet
  facet normal 0 0 1
    outer loop
      vertex 13.5 29 2
      vertex 8 24 2
      vertex 1 1 2
    endloop
  endfacet
  facet normal 0 0 1
    outer loop
      vertex 1 1 2
      vertex 8 24 2
      vertex 3 24 2
    endloop
  endfacet
  facet normal 0 0 1
    outer loop
      vertex 74.5 24 2
      vertex 1 1 2
      vertex 86 1 2
    endloop
  endfacet
  facet normal 0 0 1
    outer loop
      vertex 3 29 2
      vertex 1 1 2
      vertex 3 24 2
    endloop
  endfacet
  facet normal -0 0 1
    outer loop
      vertex 75 30.5 2
      vertex 79.5 29 2
      vertex 75 110.5 2
    endloop
  endfacet
  facet normal -0 0 1
    outer loop
      vertex 74.9815 30.2653 2
      vertex 79.5 29 2
      vertex 75 30.5 2
    endloop
  endfacet
  facet normal -0 0 1
    outer loop
      vertex 74.9266 30.0365 2
      vertex 79.5 29 2
      vertex 74.9815 30.2653 2
    endloop
  endfacet
  facet normal -0 0 1
    outer loop
      vertex 74.8365 29.819 2
      vertex 79.5 29 2
      vertex 74.9266 30.0365 2
    endloop
  endfacet
  facet normal 0 0 1
    outer loop
      vertex 74.5 29 2
      vertex 74.8365 29.819 2
      vertex 74.7135 29.6183 2
    endloop
  endfacet
  facet normal 0 0 1
    outer loop
      vertex 74.5 29 2
      vertex 74.7135 29.6183 2
      vertex 74.5607 29.4393 2
    endloop
  endfacet
  facet normal 0 0 1
    outer loop
      vertex 74.8365 29.819 2
      vertex 74.5 29 2
      vertex 79.5 29 2
    endloop
  endfacet
  facet normal -0 0 1
    outer loop
      vertex 74.181 29.1635 2
      vertex 74.5 29 2
      vertex 74.3817 29.2865 2
    endloop
  endfacet
  facet normal -0 0 1
    outer loop
      vertex 74.3817 29.2865 2
      vertex 74.5 29 2
      vertex 74.5607 29.4393 2
    endloop
  endfacet
  facet normal 1 -0 0
    outer loop
      vertex 1 1 6.3
      vertex 1 123 2
      vertex 1 123 6.3
    endloop
  endfacet
  facet normal 1 0 0
    outer loop
      vertex 1 123 2
      vertex 1 1 6.3
      vertex 1 1 2
    endloop
  endfacet
  facet normal 0 -1 0
    outer loop
      vertex 1 123 2
      vertex 86 123 6.3
      vertex 1 123 6.3
    endloop
  endfacet
  facet normal 0 -1 -0
    outer loop
      vertex 86 123 6.3
      vertex 1 123 2
      vertex 86 123 2
    endloop
  endfacet
  facet normal 0 1 -0
    outer loop
      vertex 86 1 2
      vertex 1 1 6.3
      vertex 86 1 6.3
    endloop
  endfacet
  facet normal 0 1 0
    outer loop
      vertex 1 1 6.3
      vertex 86 1 2
      vertex 1 1 2
    endloop
  endfacet
  facet normal 1 -0 0
    outer loop
      vertex 8 24 3.5
      vertex 8 29 2
      vertex 8 29 3.5
    endloop
  endfacet
  facet normal 1 0 0
    outer loop
      vertex 8 29 2
      vertex 8 24 3.5
      vertex 8 24 2
    endloop
  endfacet
  facet normal -0 0 1
    outer loop
      vertex 3 29 3.5
      vertex 8 24 3.5
      vertex 8 29 3.5
    endloop
  endfacet
  facet normal 0 0 1
    outer loop
      vertex 8 24 3.5
      vertex 3 29 3.5
      vertex 3 24 3.5
    endloop
  endfacet
  facet normal -1 0 0
    outer loop
      vertex 3 24 2
      vertex 3 29 3.5
      vertex 3 29 2
    endloop
  endfacet
  facet normal -1 -0 0
    outer loop
      vertex 3 29 3.5
      vertex 3 24 2
      vertex 3 24 3.5
    endloop
  endfacet
  facet normal 0 1 -0
    outer loop
      vertex 8 29 2
      vertex 3 29 3.5
      vertex 8 29 3.5
    endloop
  endfacet
  facet normal 0 1 0
    outer loop
      vertex 3 29 3.5
      vertex 8 29 2
      vertex 3 29 2
    endloop
  endfacet
  facet normal 0 -1 0
    outer loop
      vertex 3 24 2
      vertex 8 24 3.5
      vertex 3 24 3.5
    endloop
  endfacet
  facet normal 0 -1 -0
    outer loop
      vertex 8 24 3.5
      vertex 3 24 2
      vertex 8 24 2
    endloop
  endfacet
  facet normal 1 -0 0
    outer loop
      vertex 79.5 24 3.5
      vertex 79.5 29 2
      vertex 79.5 29 3.5
    endloop
  endfacet
  facet normal 1 0 0
    outer loop
      vertex 79.5 29 2
      vertex 79.5 24 3.5
      vertex 79.5 24 2
    endloop
  endfacet
  facet normal -0 0 1
    outer loop
      vertex 74.5 29 3.5
      vertex 79.5 24 3.5
      vertex 79.5 29 3.5
    endloop
  endfacet
  facet normal 0 0 1
    outer loop
      vertex 79.5 24 3.5
      vertex 74.5 29 3.5
      vertex 74.5 24 3.5
    endloop
  endfacet
  facet normal -1 0 0
    outer loop
      vertex 74.5 24 2
      vertex 74.5 29 3.5
      vertex 74.5 29 2
    endloop
  endfacet
  facet normal -1 -0 0
    outer loop
      vertex 74.5 29 3.5
      vertex 74.5 24 2
      vertex 74.5 24 3.5
    endloop
  endfacet
  facet normal 0 1 -0
    outer loop
      vertex 79.5 29 2
      vertex 74.5 29 3.5
      vertex 79.5 29 3.5
    endloop
  endfacet
  facet normal 0 1 0
    outer loop
      vertex 74.5 29 3.5
      vertex 79.5 29 2
      vertex 74.5 29 2
    endloop
  endfacet
  facet normal 0 -1 0
    outer loop
      vertex 74.5 24 2
      vertex 79.5 24 3.5
      vertex 74.5 24 3.5
    endloop
  endfacet
  facet normal 0 -1 -0
    outer loop
      vertex 79.5 24 3.5
      vertex 74.5 24 2
      vertex 79.5 24 2
    endloop
  endfacet
  facet normal 1 -0 0
    outer loop
      vertex 8 116 3.5
      vertex 8 121 2
      vertex 8 121 3.5
    endloop
  endfacet
  facet normal 1 0 0
    outer loop
      vertex 8 121 2
      vertex 8 116 3.5
      vertex 8 116 2
    endloop
  endfacet
  facet normal -0 0 1
    outer loop
      vertex 3 121 3.5
      vertex 8 116 3.5
      vertex 8 121 3.5
    endloop
  endfacet
  facet normal 0 0 1
    outer loop
      vertex 8 116 3.5
      vertex 3 121 3.5
      vertex 3 116 3.5
    endloop
  endfacet
  facet normal -1 0 0
    outer loop
      vertex 3 116 2
      vertex 3 121 3.5
      vertex 3 121 2
    endloop
  endfacet
  facet normal -1 -0 0
    outer loop
      vertex 3 121 3.5
      vertex 3 116 2
      vertex 3 116 3.5
    endloop
  endfacet
  facet normal 0 1 -0
    outer loop
      vertex 8 121 2
      vertex 3 121 3.5
      vertex 8 121 3.5
    endloop
  endfacet
  facet normal 0 1 0
    outer loop
      vertex 3 121 3.5
      vertex 8 121 2
      vertex 3 121 2
    endloop
  endfacet
  facet normal 0 -1 0
    outer loop
      vertex 3 116 2
      vertex 8 116 3.5
      vertex 3 116 3.5
    endloop
  endfacet
  facet normal 0 -1 -0
    outer loop
      vertex 8 116 3.5
      vertex 3 116 2
      vertex 8 116 2
    endloop
  endfacet
  facet normal 1 -0 0
    outer loop
      vertex 79.5 116 3.5
      vertex 79.5 121 2
      vertex 79.5 121 3.5
    endloop
  endfacet
  facet normal 1 0 0
    outer loop
      vertex 79.5 121 2
      vertex 79.5 116 3.5
      vertex 79.5 116 2
    endloop
  endfacet
  facet normal -0 0 1
    outer loop
      vertex 74.5 121 3.5
      vertex 79.5 116 3.5
      vertex 79.5 121 3.5
    endloop
  endfacet
  facet normal 0 0 1
    outer loop
      vertex 79.5 116 3.5
      vertex 74.5 121 3.5
      vertex 74.5 116 3.5
    endloop
  endfacet
  facet normal -1 0 0
    outer loop
      vertex 74.5 116 2
      vertex 74.5 121 3.5
      vertex 74.5 121 2
    endloop
  endfacet
  facet normal -1 -0 0
    outer loop
      vertex 74.5 121 3.5
      vertex 74.5 116 2
      vertex 74.5 116 3.5
    endloop
  endfacet
  facet normal 0 1 -0
    outer loop
      vertex 79.5 121 2
      vertex 74.5 121 3.5
      vertex 79.5 121 3.5
    endloop
  endfacet
  facet normal 0 1 0
    outer loop
      vertex 74.5 121 3.5
      vertex 79.5 121 2
      vertex 74.5 121 2
    endloop
  endfacet
  facet normal 0 -1 0
    outer loop
      vertex 74.5 116 2
      vertex 79.5 116 3.5
      vertex 74.5 116 3.5
    endloop
  endfacet
  facet normal 0 -1 -0
    outer loop
      vertex 79.5 116 3.5
      vertex 74.5 116 2
      vertex 79.5 116 2
    endloop
  endfacet
endsolid OpenSCAD_Model
