solid OpenSCAD_Model
  facet normal -0.972446 0.23313 0
    outer loop
      vertex 0.0307789 105.891 0
      vertex 0.122358 106.273 5.3
      vertex 0.122358 106.273 0
    endloop
  endfacet
  facet normal -0.972446 0.23313 0
    outer loop
      vertex 0.122358 106.273 5.3
      vertex 0.0307789 105.891 0
      vertex 0.0307789 105.891 5.3
    endloop
  endfacet
  facet normal 0 1 -0
    outer loop
      vertex 85.5 108 0
      vertex 2.5 108 5.3
      vertex 85.5 108 5.3
    endloop
  endfacet
  facet normal 0 1 0
    outer loop
      vertex 2.5 108 5.3
      vertex 85.5 108 0
      vertex 2.5 108 0
    endloop
  endfacet
  facet normal 0.996913 -0.0785112 0
    outer loop
      vertex 87.9692 2.10891 5.3
      vertex 88 2.5 0
      vertex 88 2.5 5.3
    endloop
  endfacet
  facet normal 0.996913 -0.0785112 0
    outer loop
      vertex 88 2.5 0
      vertex 87.9692 2.10891 5.3
      vertex 87.9692 2.10891 0
    endloop
  endfacet
  facet normal -1 0 0
    outer loop
      vertex 0 2.5 0
      vertex 0 105.5 5.3
      vertex 0 105.5 0
    endloop
  endfacet
  facet normal -1 -0 0
    outer loop
      vertex 0 105.5 5.3
      vertex 0 2.5 0
      vertex 0 2.5 5.3
    endloop
  endfacet
  facet normal 0.649452 -0.760403 0
    outer loop
      vertex 86.9695 0.477457 0
      vertex 87.2678 0.732232 5.3
      vertex 86.9695 0.477457 5.3
    endloop
  endfacet
  facet normal 0.649452 -0.760403 0
    outer loop
      vertex 87.2678 0.732232 5.3
      vertex 86.9695 0.477457 0
      vertex 87.2678 0.732232 0
    endloop
  endfacet
  facet normal 0.23208 0.972697 -0
    outer loop
      vertex 86.2725 107.878 0
      vertex 85.8911 107.969 5.3
      vertex 86.2725 107.878 5.3
    endloop
  endfacet
  facet normal 0.23208 0.972697 0
    outer loop
      vertex 85.8911 107.969 5.3
      vertex 86.2725 107.878 0
      vertex 85.8911 107.969 0
    endloop
  endfacet
  facet normal -0.522555 0.852606 0
    outer loop
      vertex 1.36502 107.728 0
      vertex 1.03054 107.523 5.3
      vertex 1.36502 107.728 5.3
    endloop
  endfacet
  facet normal -0.522555 0.852606 0
    outer loop
      vertex 1.03054 107.523 5.3
      vertex 1.36502 107.728 0
      vertex 1.03054 107.523 0
    endloop
  endfacet
  facet normal 0.852606 -0.522555 0
    outer loop
      vertex 87.5225 1.03054 5.3
      vertex 87.7275 1.36502 0
      vertex 87.7275 1.36502 5.3
    endloop
  endfacet
  facet normal 0.852606 -0.522555 0
    outer loop
      vertex 87.7275 1.36502 0
      vertex 87.5225 1.03054 5.3
      vertex 87.5225 1.03054 0
    endloop
  endfacet
  facet normal 1 -0 0
    outer loop
      vertex 88 2.5 5.3
      vertex 88 105.5 0
      vertex 88 105.5 5.3
    endloop
  endfacet
  facet normal 1 0 0
    outer loop
      vertex 88 105.5 0
      vertex 88 2.5 5.3
      vertex 88 2.5 0
    endloop
  endfacet
  facet normal -0.232051 0.972704 0
    outer loop
      vertex 2.10891 107.969 0
      vertex 1.72746 107.878 5.3
      vertex 2.10891 107.969 5.3
    endloop
  endfacet
  facet normal -0.232051 0.972704 0
    outer loop
      vertex 1.72746 107.878 5.3
      vertex 2.10891 107.969 0
      vertex 1.72746 107.878 0
    endloop
  endfacet
  facet normal 0 -1 0
    outer loop
      vertex 2.5 0 5.3
      vertex 26.5 0 2
      vertex 26.5 0 5.3
    endloop
  endfacet
  facet normal 0 -1 -0
    outer loop
      vertex 26.5 0 2
      vertex 2.5 0 0
      vertex 61.5 0 2
    endloop
  endfacet
  facet normal 0 -1 0
    outer loop
      vertex 2.5 0 0
      vertex 26.5 0 2
      vertex 2.5 0 5.3
    endloop
  endfacet
  facet normal 0 -1 0
    outer loop
      vertex 61.5 0 2
      vertex 85.5 0 5.3
      vertex 61.5 0 5.3
    endloop
  endfacet
  facet normal 0 -1 0
    outer loop
      vertex 61.5 0 2
      vertex 85.5 0 0
      vertex 85.5 0 5.3
    endloop
  endfacet
  facet normal 0 -1 0
    outer loop
      vertex 85.5 0 0
      vertex 61.5 0 2
      vertex 2.5 0 0
    endloop
  endfacet
  facet normal -0.0784577 -0.996917 0
    outer loop
      vertex 2.10891 0.0307789 0
      vertex 2.5 0 5.3
      vertex 2.10891 0.0307789 5.3
    endloop
  endfacet
  facet normal -0.0784577 -0.996917 -0
    outer loop
      vertex 2.5 0 5.3
      vertex 2.10891 0.0307789 0
      vertex 2.5 0 0
    endloop
  endfacet
  facet normal 0.760506 -0.649331 0
    outer loop
      vertex 87.2678 0.732232 5.3
      vertex 87.5225 1.03054 0
      vertex 87.5225 1.03054 5.3
    endloop
  endfacet
  facet normal 0.760506 -0.649331 0
    outer loop
      vertex 87.5225 1.03054 0
      vertex 87.2678 0.732232 5.3
      vertex 87.2678 0.732232 0
    endloop
  endfacet
  facet normal 0.0784557 -0.996918 0
    outer loop
      vertex 85.5 0 0
      vertex 85.8911 0.0307789 5.3
      vertex 85.5 0 5.3
    endloop
  endfacet
  facet normal 0.0784557 -0.996918 0
    outer loop
      vertex 85.8911 0.0307789 5.3
      vertex 85.5 0 0
      vertex 85.8911 0.0307789 0
    endloop
  endfacet
  facet normal 0.382624 -0.923904 0
    outer loop
      vertex 86.2725 0.122358 0
      vertex 86.635 0.272483 5.3
      vertex 86.2725 0.122358 5.3
    endloop
  endfacet
  facet normal 0.382624 -0.923904 0
    outer loop
      vertex 86.635 0.272483 5.3
      vertex 86.2725 0.122358 0
      vertex 86.635 0.272483 0
    endloop
  endfacet
  facet normal -0.382678 -0.923882 0
    outer loop
      vertex 1.36502 0.272483 0
      vertex 1.72746 0.122358 5.3
      vertex 1.36502 0.272483 5.3
    endloop
  endfacet
  facet normal -0.382678 -0.923882 -0
    outer loop
      vertex 1.72746 0.122358 5.3
      vertex 1.36502 0.272483 0
      vertex 1.72746 0.122358 0
    endloop
  endfacet
  facet normal -0.996917 -0.0784577 0
    outer loop
      vertex 0.0307789 2.10891 0
      vertex 0 2.5 5.3
      vertex 0 2.5 0
    endloop
  endfacet
  facet normal -0.996917 -0.0784577 0
    outer loop
      vertex 0 2.5 5.3
      vertex 0.0307789 2.10891 0
      vertex 0.0307789 2.10891 5.3
    endloop
  endfacet
  facet normal -0.760411 -0.649442 0
    outer loop
      vertex 0.732232 0.732232 0
      vertex 0.477457 1.03054 5.3
      vertex 0.477457 1.03054 0
    endloop
  endfacet
  facet normal -0.760411 -0.649442 0
    outer loop
      vertex 0.477457 1.03054 5.3
      vertex 0.732232 0.732232 0
      vertex 0.732232 0.732232 5.3
    endloop
  endfacet
  facet normal -0.996916 0.0784756 0
    outer loop
      vertex 0 105.5 0
      vertex 0.0307789 105.891 5.3
      vertex 0.0307789 105.891 0
    endloop
  endfacet
  facet normal -0.996916 0.0784756 0
    outer loop
      vertex 0.0307789 105.891 5.3
      vertex 0 105.5 0
      vertex 0 105.5 5.3
    endloop
  endfacet
  facet normal 0.522484 -0.852649 0
    outer loop
      vertex 86.635 0.272483 0
      vertex 86.9695 0.477457 5.3
      vertex 86.635 0.272483 5.3
    endloop
  endfacet
  facet normal 0.522484 -0.852649 0
    outer loop
      vertex 86.9695 0.477457 5.3
      vertex 86.635 0.272483 0
      vertex 86.9695 0.477457 0
    endloop
  endfacet
  facet normal -0.972369 -0.233448 0
    outer loop
      vertex 0.122358 1.72746 0
      vertex 0.0307789 2.10891 5.3
      vertex 0.0307789 2.10891 0
    endloop
  endfacet
  facet normal -0.972369 -0.233448 0
    outer loop
      vertex 0.0307789 2.10891 5.3
      vertex 0.122358 1.72746 0
      vertex 0.122358 1.72746 5.3
    endloop
  endfacet
  facet normal 0 0 -1
    outer loop
      vertex 85.5 0 0
      vertex 88 2.5 0
      vertex 87.9692 2.10891 0
    endloop
  endfacet
  facet normal 0 0 -1
    outer loop
      vertex 88 2.5 0
      vertex 77 14.1 0
      vertex 88 105.5 0
    endloop
  endfacet
  facet normal 0 0 -1
    outer loop
      vertex 85.5 0 0
      vertex 87.9692 2.10891 0
      vertex 87.8776 1.72746 0
    endloop
  endfacet
  facet normal 0 0 -1
    outer loop
      vertex 77 93.9 0
      vertex 88 105.5 0
      vertex 77 14.1 0
    endloop
  endfacet
  facet normal 0 0 -1
    outer loop
      vertex 85.5 0 0
      vertex 87.8776 1.72746 0
      vertex 87.7275 1.36502 0
    endloop
  endfacet
  facet normal 0 0 -1
    outer loop
      vertex 76.9815 94.1347 0
      vertex 88 105.5 0
      vertex 77 93.9 0
    endloop
  endfacet
  facet normal 0 0 -1
    outer loop
      vertex 85.5 0 0
      vertex 87.7275 1.36502 0
      vertex 87.5225 1.03054 0
    endloop
  endfacet
  facet normal 0 0 -1
    outer loop
      vertex 76.9266 94.3635 0
      vertex 88 105.5 0
      vertex 76.9815 94.1347 0
    endloop
  endfacet
  facet normal 0 0 -1
    outer loop
      vertex 85.5 0 0
      vertex 87.5225 1.03054 0
      vertex 87.2678 0.732232 0
    endloop
  endfacet
  facet normal 0 0 -1
    outer loop
      vertex 76.8365 94.581 0
      vertex 88 105.5 0
      vertex 76.9266 94.3635 0
    endloop
  endfacet
  facet normal 0 0 -1
    outer loop
      vertex 85.5 0 0
      vertex 87.2678 0.732232 0
      vertex 86.9695 0.477457 0
    endloop
  endfacet
  facet normal 0 0 -1
    outer loop
      vertex 76.7135 94.7817 0
      vertex 88 105.5 0
      vertex 76.8365 94.581 0
    endloop
  endfacet
  facet normal 0 0 -1
    outer loop
      vertex 85.5 0 0
      vertex 86.9695 0.477457 0
      vertex 86.635 0.272483 0
    endloop
  endfacet
  facet normal 0 0 -1
    outer loop
      vertex 76.5607 94.9607 0
      vertex 88 105.5 0
      vertex 76.7135 94.7817 0
    endloop
  endfacet
  facet normal 0 0 -1
    outer loop
      vertex 85.5 0 0
      vertex 86.635 0.272483 0
      vertex 86.2725 0.122358 0
    endloop
  endfacet
  facet normal 0 0 -1
    outer loop
      vertex 76.3817 95.1135 0
      vertex 88 105.5 0
      vertex 76.5607 94.9607 0
    endloop
  endfacet
  facet normal 0 0 -1
    outer loop
      vertex 85.5 0 0
      vertex 86.2725 0.122358 0
      vertex 85.8911 0.0307789 0
    endloop
  endfacet
  facet normal 0 0 -1
    outer loop
      vertex 88 105.5 0
      vertex 85.5 108 0
      vertex 87.9692 105.891 0
    endloop
  endfacet
  facet normal 0 0 -1
    outer loop
      vertex 76.3817 12.8865 0
      vertex 88 2.5 0
      vertex 85.5 0 0
    endloop
  endfacet
  facet normal 0 0 -1
    outer loop
      vertex 87.9692 105.891 0
      vertex 85.5 108 0
      vertex 87.8776 106.273 0
    endloop
  endfacet
  facet normal 0 0 -1
    outer loop
      vertex 87.7275 106.635 0
      vertex 85.5 108 0
      vertex 87.5225 106.969 0
    endloop
  endfacet
  facet normal 0 0 -1
    outer loop
      vertex 88 2.5 0
      vertex 76.9815 13.8653 0
      vertex 77 14.1 0
    endloop
  endfacet
  facet normal 0 0 -1
    outer loop
      vertex 88 2.5 0
      vertex 76.9266 13.6365 0
      vertex 76.9815 13.8653 0
    endloop
  endfacet
  facet normal 0 0 -1
    outer loop
      vertex 88 2.5 0
      vertex 76.8365 13.419 0
      vertex 76.9266 13.6365 0
    endloop
  endfacet
  facet normal 0 0 -1
    outer loop
      vertex 88 2.5 0
      vertex 76.7135 13.2183 0
      vertex 76.8365 13.419 0
    endloop
  endfacet
  facet normal 0 0 -1
    outer loop
      vertex 88 2.5 0
      vertex 76.5607 13.0393 0
      vertex 76.7135 13.2183 0
    endloop
  endfacet
  facet normal 0 0 -1
    outer loop
      vertex 88 2.5 0
      vertex 76.3817 12.8865 0
      vertex 76.5607 13.0393 0
    endloop
  endfacet
  facet normal 0 0 -1
    outer loop
      vertex 85.5 0 0
      vertex 76.181 12.7635 0
      vertex 76.3817 12.8865 0
    endloop
  endfacet
  facet normal 0 0 -1
    outer loop
      vertex 85.5 0 0
      vertex 75.9635 12.6734 0
      vertex 76.181 12.7635 0
    endloop
  endfacet
  facet normal 0 0 -1
    outer loop
      vertex 85.5 0 0
      vertex 75.7346 12.6185 0
      vertex 75.9635 12.6734 0
    endloop
  endfacet
  facet normal 0 0 -1
    outer loop
      vertex 85.5 0 0
      vertex 75.5 12.6 0
      vertex 75.7346 12.6185 0
    endloop
  endfacet
  facet normal 0 0 -1
    outer loop
      vertex 85.5 0 0
      vertex 12.5 12.6 0
      vertex 75.5 12.6 0
    endloop
  endfacet
  facet normal 0 0 -1
    outer loop
      vertex 2.5 0 0
      vertex 12.5 12.6 0
      vertex 85.5 0 0
    endloop
  endfacet
  facet normal -0 0 -1
    outer loop
      vertex 11.0185 13.8653 0
      vertex 0 2.5 0
      vertex 11 14.1 0
    endloop
  endfacet
  facet normal -0 0 -1
    outer loop
      vertex 11.0734 13.6365 0
      vertex 0 2.5 0
      vertex 11.0185 13.8653 0
    endloop
  endfacet
  facet normal -0 0 -1
    outer loop
      vertex 11.1635 13.419 0
      vertex 0 2.5 0
      vertex 11.0734 13.6365 0
    endloop
  endfacet
  facet normal -0 0 -1
    outer loop
      vertex 11.2865 13.2183 0
      vertex 0 2.5 0
      vertex 11.1635 13.419 0
    endloop
  endfacet
  facet normal -0 0 -1
    outer loop
      vertex 11.4393 13.0393 0
      vertex 0 2.5 0
      vertex 11.2865 13.2183 0
    endloop
  endfacet
  facet normal -0 0 -1
    outer loop
      vertex 11.6183 12.8865 0
      vertex 0 2.5 0
      vertex 11.4393 13.0393 0
    endloop
  endfacet
  facet normal 0 0 -1
    outer loop
      vertex 0 2.5 0
      vertex 11.6183 12.8865 0
      vertex 2.5 0 0
    endloop
  endfacet
  facet normal -0 0 -1
    outer loop
      vertex 11.819 12.7635 0
      vertex 2.5 0 0
      vertex 11.6183 12.8865 0
    endloop
  endfacet
  facet normal -0 0 -1
    outer loop
      vertex 12.0365 12.6734 0
      vertex 2.5 0 0
      vertex 11.819 12.7635 0
    endloop
  endfacet
  facet normal -0 0 -1
    outer loop
      vertex 12.2653 12.6185 0
      vertex 2.5 0 0
      vertex 12.0365 12.6734 0
    endloop
  endfacet
  facet normal -0 0 -1
    outer loop
      vertex 12.5 12.6 0
      vertex 2.5 0 0
      vertex 12.2653 12.6185 0
    endloop
  endfacet
  facet normal 0 0 -1
    outer loop
      vertex 87.5225 106.969 0
      vertex 85.5 108 0
      vertex 87.2678 107.268 0
    endloop
  endfacet
  facet normal 0 0 -1
    outer loop
      vertex 87.2678 107.268 0
      vertex 85.5 108 0
      vertex 86.9695 107.523 0
    endloop
  endfacet
  facet normal 0 0 -1
    outer loop
      vertex 86.635 107.728 0
      vertex 85.5 108 0
      vertex 86.2725 107.878 0
    endloop
  endfacet
  facet normal 0 0 -1
    outer loop
      vertex 86.2725 107.878 0
      vertex 85.5 108 0
      vertex 85.8911 107.969 0
    endloop
  endfacet
  facet normal 0 0 -1
    outer loop
      vertex 86.9695 107.523 0
      vertex 85.5 108 0
      vertex 86.635 107.728 0
    endloop
  endfacet
  facet normal 0 0 -1
    outer loop
      vertex 87.8776 106.273 0
      vertex 85.5 108 0
      vertex 87.7275 106.635 0
    endloop
  endfacet
  facet normal -0 0 -1
    outer loop
      vertex 88 105.5 0
      vertex 76.3817 95.1135 0
      vertex 85.5 108 0
    endloop
  endfacet
  facet normal 0 0 -1
    outer loop
      vertex 76.181 95.2365 0
      vertex 85.5 108 0
      vertex 76.3817 95.1135 0
    endloop
  endfacet
  facet normal 0 0 -1
    outer loop
      vertex 75.9635 95.3266 0
      vertex 85.5 108 0
      vertex 76.181 95.2365 0
    endloop
  endfacet
  facet normal 0 0 -1
    outer loop
      vertex 75.7346 95.3815 0
      vertex 85.5 108 0
      vertex 75.9635 95.3266 0
    endloop
  endfacet
  facet normal 0 0 -1
    outer loop
      vertex 75.5 95.4 0
      vertex 85.5 108 0
      vertex 75.7346 95.3815 0
    endloop
  endfacet
  facet normal 0 0 -1
    outer loop
      vertex 12.5 95.4 0
      vertex 85.5 108 0
      vertex 75.5 95.4 0
    endloop
  endfacet
  facet normal 0 0 -1
    outer loop
      vertex 2.5 108 0
      vertex 12.5 95.4 0
      vertex 12.2653 95.3815 0
    endloop
  endfacet
  facet normal -0 0 -1
    outer loop
      vertex 11 14.1 0
      vertex 0 2.5 0
      vertex 11 93.9 0
    endloop
  endfacet
  facet normal 0 0 -1
    outer loop
      vertex 12.5 95.4 0
      vertex 2.5 108 0
      vertex 85.5 108 0
    endloop
  endfacet
  facet normal 0 0 -1
    outer loop
      vertex 12.0365 95.3266 0
      vertex 2.5 108 0
      vertex 12.2653 95.3815 0
    endloop
  endfacet
  facet normal 0 0 -1
    outer loop
      vertex 11.819 95.2365 0
      vertex 2.5 108 0
      vertex 12.0365 95.3266 0
    endloop
  endfacet
  facet normal 0 0 -1
    outer loop
      vertex 11.6183 95.1135 0
      vertex 2.5 108 0
      vertex 11.819 95.2365 0
    endloop
  endfacet
  facet normal 0 0 -1
    outer loop
      vertex 0 105.5 0
      vertex 11.6183 95.1135 0
      vertex 11.4393 94.9607 0
    endloop
  endfacet
  facet normal 0 0 -1
    outer loop
      vertex 0 105.5 0
      vertex 11.4393 94.9607 0
      vertex 11.2865 94.7817 0
    endloop
  endfacet
  facet normal 0 0 -1
    outer loop
      vertex 0 105.5 0
      vertex 11.2865 94.7817 0
      vertex 11.1635 94.581 0
    endloop
  endfacet
  facet normal 0 0 -1
    outer loop
      vertex 0 105.5 0
      vertex 11.1635 94.581 0
      vertex 11.0734 94.3635 0
    endloop
  endfacet
  facet normal 0 0 -1
    outer loop
      vertex 0 105.5 0
      vertex 11.0734 94.3635 0
      vertex 11.0185 94.1347 0
    endloop
  endfacet
  facet normal 0 0 -1
    outer loop
      vertex 0 105.5 0
      vertex 11 93.9 0
      vertex 0 2.5 0
    endloop
  endfacet
  facet normal 0 0 -1
    outer loop
      vertex 0 2.5 0
      vertex 2.5 0 0
      vertex 2.10891 0.0307789 0
    endloop
  endfacet
  facet normal 0 0 -1
    outer loop
      vertex 11 93.9 0
      vertex 0 105.5 0
      vertex 11.0185 94.1347 0
    endloop
  endfacet
  facet normal 0 0 -1
    outer loop
      vertex 0 2.5 0
      vertex 2.10891 0.0307789 0
      vertex 1.72746 0.122358 0
    endloop
  endfacet
  facet normal 0 0 -1
    outer loop
      vertex 11.6183 95.1135 0
      vertex 0 105.5 0
      vertex 2.5 108 0
    endloop
  endfacet
  facet normal 0 0 -1
    outer loop
      vertex 0 2.5 0
      vertex 1.72746 0.122358 0
      vertex 1.36502 0.272483 0
    endloop
  endfacet
  facet normal 0 0 -1
    outer loop
      vertex 2.5 108 0
      vertex 0 105.5 0
      vertex 2.10891 107.969 0
    endloop
  endfacet
  facet normal 0 0 -1
    outer loop
      vertex 0 2.5 0
      vertex 1.36502 0.272483 0
      vertex 1.03054 0.477457 0
    endloop
  endfacet
  facet normal 0 0 -1
    outer loop
      vertex 2.10891 107.969 0
      vertex 0 105.5 0
      vertex 1.72746 107.878 0
    endloop
  endfacet
  facet normal 0 0 -1
    outer loop
      vertex 0 2.5 0
      vertex 1.03054 0.477457 0
      vertex 0.732232 0.732232 0
    endloop
  endfacet
  facet normal 0 0 -1
    outer loop
      vertex 1.72746 107.878 0
      vertex 0 105.5 0
      vertex 1.36502 107.728 0
    endloop
  endfacet
  facet normal 0 0 -1
    outer loop
      vertex 0 2.5 0
      vertex 0.732232 0.732232 0
      vertex 0.477457 1.03054 0
    endloop
  endfacet
  facet normal 0 0 -1
    outer loop
      vertex 1.36502 107.728 0
      vertex 0 105.5 0
      vertex 1.03054 107.523 0
    endloop
  endfacet
  facet normal 0 0 -1
    outer loop
      vertex 0 2.5 0
      vertex 0.477457 1.03054 0
      vertex 0.272483 1.36502 0
    endloop
  endfacet
  facet normal 0 0 -1
    outer loop
      vertex 1.03054 107.523 0
      vertex 0 105.5 0
      vertex 0.732232 107.268 0
    endloop
  endfacet
  facet normal 0 0 -1
    outer loop
      vertex 0 2.5 0
      vertex 0.272483 1.36502 0
      vertex 0.122358 1.72746 0
    endloop
  endfacet
  facet normal 0 0 -1
    outer loop
      vertex 0.732232 107.268 0
      vertex 0 105.5 0
      vertex 0.477457 106.969 0
    endloop
  endfacet
  facet normal 0 0 -1
    outer loop
      vertex 0 2.5 0
      vertex 0.122358 1.72746 0
      vertex 0.0307789 2.10891 0
    endloop
  endfacet
  facet normal 0 0 -1
    outer loop
      vertex 0.477457 106.969 0
      vertex 0 105.5 0
      vertex 0.272483 106.635 0
    endloop
  endfacet
  facet normal 0 0 -1
    outer loop
      vertex 0.272483 106.635 0
      vertex 0 105.5 0
      vertex 0.122358 106.273 0
    endloop
  endfacet
  facet normal 0 0 -1
    outer loop
      vertex 0.122358 106.273 0
      vertex 0 105.5 0
      vertex 0.0307789 105.891 0
    endloop
  endfacet
  facet normal 0 0 1
    outer loop
      vertex 85.5 108 5.3
      vertex 88 105.5 5.3
      vertex 87.9692 105.891 5.3
    endloop
  endfacet
  facet normal 0 0 1
    outer loop
      vertex 88 105.5 5.3
      vertex 80.8 105.8 5.3
      vertex 88 2.5 5.3
    endloop
  endfacet
  facet normal 0 0 1
    outer loop
      vertex 85.5 108 5.3
      vertex 87.9692 105.891 5.3
      vertex 87.8776 106.273 5.3
    endloop
  endfacet
  facet normal 0 0 1
    outer loop
      vertex 80.8 2.2 5.3
      vertex 88 2.5 5.3
      vertex 80.8 105.8 5.3
    endloop
  endfacet
  facet normal 0 0 1
    outer loop
      vertex 85.5 108 5.3
      vertex 87.8776 106.273 5.3
      vertex 87.7275 106.635 5.3
    endloop
  endfacet
  facet normal 0 -0 1
    outer loop
      vertex 85.5 0 5.3
      vertex 88 2.5 5.3
      vertex 80.8 2.2 5.3
    endloop
  endfacet
  facet normal 0 0 1
    outer loop
      vertex 85.5 108 5.3
      vertex 87.7275 106.635 5.3
      vertex 87.5225 106.969 5.3
    endloop
  endfacet
  facet normal 0 0 1
    outer loop
      vertex 88 2.5 5.3
      vertex 85.5 0 5.3
      vertex 87.9692 2.10891 5.3
    endloop
  endfacet
  facet normal 0 0 1
    outer loop
      vertex 85.5 108 5.3
      vertex 87.5225 106.969 5.3
      vertex 87.2678 107.268 5.3
    endloop
  endfacet
  facet normal 0 0 1
    outer loop
      vertex 87.9692 2.10891 5.3
      vertex 85.5 0 5.3
      vertex 87.8776 1.72746 5.3
    endloop
  endfacet
  facet normal 0 0 1
    outer loop
      vertex 85.5 108 5.3
      vertex 87.2678 107.268 5.3
      vertex 86.9695 107.523 5.3
    endloop
  endfacet
  facet normal 0 0 1
    outer loop
      vertex 87.8776 1.72746 5.3
      vertex 85.5 0 5.3
      vertex 87.7275 1.36502 5.3
    endloop
  endfacet
  facet normal 0 0 1
    outer loop
      vertex 85.5 108 5.3
      vertex 86.9695 107.523 5.3
      vertex 86.635 107.728 5.3
    endloop
  endfacet
  facet normal 0 0 1
    outer loop
      vertex 87.7275 1.36502 5.3
      vertex 85.5 0 5.3
      vertex 87.5225 1.03054 5.3
    endloop
  endfacet
  facet normal 0 0 1
    outer loop
      vertex 85.5 108 5.3
      vertex 86.635 107.728 5.3
      vertex 86.2725 107.878 5.3
    endloop
  endfacet
  facet normal 0 0 1
    outer loop
      vertex 87.5225 1.03054 5.3
      vertex 85.5 0 5.3
      vertex 87.2678 0.732232 5.3
    endloop
  endfacet
  facet normal 0 0 1
    outer loop
      vertex 85.5 108 5.3
      vertex 86.2725 107.878 5.3
      vertex 85.8911 107.969 5.3
    endloop
  endfacet
  facet normal 0 0 1
    outer loop
      vertex 87.2678 0.732232 5.3
      vertex 85.5 0 5.3
      vertex 86.9695 0.477457 5.3
    endloop
  endfacet
  facet normal 0 0 1
    outer loop
      vertex 88 105.5 5.3
      vertex 85.5 108 5.3
      vertex 80.8 105.8 5.3
    endloop
  endfacet
  facet normal 0 0 1
    outer loop
      vertex 86.9695 0.477457 5.3
      vertex 85.5 0 5.3
      vertex 86.635 0.272483 5.3
    endloop
  endfacet
  facet normal 0 0 1
    outer loop
      vertex 86.635 0.272483 5.3
      vertex 85.5 0 5.3
      vertex 86.2725 0.122358 5.3
    endloop
  endfacet
  facet normal -0 0 1
    outer loop
      vertex 2.5 108 5.3
      vertex 80.8 105.8 5.3
      vertex 85.5 108 5.3
    endloop
  endfacet
  facet normal 0 0 1
    outer loop
      vertex 1.7 105.8 5.3
      vertex 2.5 108 5.3
      vertex 2.10891 107.969 5.3
    endloop
  endfacet
  facet normal 0 0 1
    outer loop
      vertex 1.7 105.8 5.3
      vertex 2.10891 107.969 5.3
      vertex 1.72746 107.878 5.3
    endloop
  endfacet
  facet normal 0 0 1
    outer loop
      vertex 2.5 108 5.3
      vertex 1.7 105.8 5.3
      vertex 80.8 105.8 5.3
    endloop
  endfacet
  facet normal -0 0 1
    outer loop
      vertex 1.03054 107.523 5.3
      vertex 1.7 105.8 5.3
      vertex 1.36502 107.728 5.3
    endloop
  endfacet
  facet normal -0 0 1
    outer loop
      vertex 1.36502 107.728 5.3
      vertex 1.7 105.8 5.3
      vertex 1.72746 107.878 5.3
    endloop
  endfacet
  facet normal 0 0 1
    outer loop
      vertex 86.2725 0.122358 5.3
      vertex 85.5 0 5.3
      vertex 85.8911 0.0307789 5.3
    endloop
  endfacet
  facet normal 0 0 1
    outer loop
      vertex 61.5 0 5.3
      vertex 80.8 2.2 5.3
      vertex 61.5 2.2 5.3
    endloop
  endfacet
  facet normal 0 0 1
    outer loop
      vertex 80.8 2.2 5.3
      vertex 61.5 0 5.3
      vertex 85.5 0 5.3
    endloop
  endfacet
  facet normal 0 0 1
    outer loop
      vertex 26.5 2.2 5.3
      vertex 2.5 0 5.3
      vertex 26.5 0 5.3
    endloop
  endfacet
  facet normal -0 0 1
    outer loop
      vertex 1.7 2.2 5.3
      vertex 2.5 0 5.3
      vertex 26.5 2.2 5.3
    endloop
  endfacet
  facet normal 0 0 1
    outer loop
      vertex 2.5 0 5.3
      vertex 1.7 2.2 5.3
      vertex 2.10891 0.0307789 5.3
    endloop
  endfacet
  facet normal 0 0 1
    outer loop
      vertex 2.10891 0.0307789 5.3
      vertex 1.7 2.2 5.3
      vertex 1.72746 0.122358 5.3
    endloop
  endfacet
  facet normal 0 0 1
    outer loop
      vertex 1.7 2.2 5.3
      vertex 1.36502 0.272483 5.3
      vertex 1.72746 0.122358 5.3
    endloop
  endfacet
  facet normal 0 0 1
    outer loop
      vertex 1.7 105.8 5.3
      vertex 0 105.5 5.3
      vertex 1.7 2.2 5.3
    endloop
  endfacet
  facet normal -0 0 1
    outer loop
      vertex 0.732232 107.268 5.3
      vertex 1.7 105.8 5.3
      vertex 1.03054 107.523 5.3
    endloop
  endfacet
  facet normal -0 0 1
    outer loop
      vertex 0 2.5 5.3
      vertex 1.7 2.2 5.3
      vertex 0 105.5 5.3
    endloop
  endfacet
  facet normal -0 0 1
    outer loop
      vertex 0.477457 106.969 5.3
      vertex 1.7 105.8 5.3
      vertex 0.732232 107.268 5.3
    endloop
  endfacet
  facet normal 0 -0 1
    outer loop
      vertex 0.0307789 2.10891 5.3
      vertex 1.7 2.2 5.3
      vertex 0 2.5 5.3
    endloop
  endfacet
  facet normal -0 0 1
    outer loop
      vertex 0.272483 106.635 5.3
      vertex 1.7 105.8 5.3
      vertex 0.477457 106.969 5.3
    endloop
  endfacet
  facet normal 0 0 1
    outer loop
      vertex 1.7 2.2 5.3
      vertex 1.03054 0.477457 5.3
      vertex 1.36502 0.272483 5.3
    endloop
  endfacet
  facet normal -0 0 1
    outer loop
      vertex 0.122358 106.273 5.3
      vertex 1.7 105.8 5.3
      vertex 0.272483 106.635 5.3
    endloop
  endfacet
  facet normal 0 0 1
    outer loop
      vertex 1.7 2.2 5.3
      vertex 0.732232 0.732232 5.3
      vertex 1.03054 0.477457 5.3
    endloop
  endfacet
  facet normal -0 0 1
    outer loop
      vertex 0.0307789 105.891 5.3
      vertex 1.7 105.8 5.3
      vertex 0.122358 106.273 5.3
    endloop
  endfacet
  facet normal 0 0 1
    outer loop
      vertex 1.7 2.2 5.3
      vertex 0.477457 1.03054 5.3
      vertex 0.732232 0.732232 5.3
    endloop
  endfacet
  facet normal 0 0 1
    outer loop
      vertex 1.7 105.8 5.3
      vertex 0.0307789 105.891 5.3
      vertex 0 105.5 5.3
    endloop
  endfacet
  facet normal 0 0 1
    outer loop
      vertex 1.7 2.2 5.3
      vertex 0.272483 1.36502 5.3
      vertex 0.477457 1.03054 5.3
    endloop
  endfacet
  facet normal 0 0 1
    outer loop
      vertex 1.7 2.2 5.3
      vertex 0.122358 1.72746 5.3
      vertex 0.272483 1.36502 5.3
    endloop
  endfacet
  facet normal 0 0 1
    outer loop
      vertex 1.7 2.2 5.3
      vertex 0.0307789 2.10891 5.3
      vertex 0.122358 1.72746 5.3
    endloop
  endfacet
  facet normal 0.923904 -0.382623 0
    outer loop
      vertex 87.7275 1.36502 5.3
      vertex 87.8776 1.72746 0
      vertex 87.8776 1.72746 5.3
    endloop
  endfacet
  facet normal 0.923904 -0.382623 0
    outer loop
      vertex 87.8776 1.72746 0
      vertex 87.7275 1.36502 5.3
      vertex 87.7275 1.36502 0
    endloop
  endfacet
  facet normal 0.972357 -0.233498 0
    outer loop
      vertex 87.8776 1.72746 5.3
      vertex 87.9692 2.10891 0
      vertex 87.9692 2.10891 5.3
    endloop
  endfacet
  facet normal 0.972357 -0.233498 0
    outer loop
      vertex 87.9692 2.10891 0
      vertex 87.8776 1.72746 5.3
      vertex 87.8776 1.72746 0
    endloop
  endfacet
  facet normal 0.761248 0.648461 0
    outer loop
      vertex 87.5225 106.969 5.3
      vertex 87.2678 107.268 0
      vertex 87.2678 107.268 5.3
    endloop
  endfacet
  facet normal 0.761248 0.648461 0
    outer loop
      vertex 87.2678 107.268 0
      vertex 87.5225 106.969 5.3
      vertex 87.5225 106.969 0
    endloop
  endfacet
  facet normal -0.382406 0.923994 0
    outer loop
      vertex 1.72746 107.878 0
      vertex 1.36502 107.728 5.3
      vertex 1.72746 107.878 5.3
    endloop
  endfacet
  facet normal -0.382406 0.923994 0
    outer loop
      vertex 1.36502 107.728 5.3
      vertex 1.72746 107.878 0
      vertex 1.36502 107.728 0
    endloop
  endfacet
  facet normal 0.0790158 0.996873 -0
    outer loop
      vertex 85.8911 107.969 0
      vertex 85.5 108 5.3
      vertex 85.8911 107.969 5.3
    endloop
  endfacet
  facet normal 0.0790158 0.996873 0
    outer loop
      vertex 85.5 108 5.3
      vertex 85.8911 107.969 0
      vertex 85.5 108 0
    endloop
  endfacet
  facet normal 0.852271 0.5231 0
    outer loop
      vertex 87.7275 106.635 5.3
      vertex 87.5225 106.969 0
      vertex 87.5225 106.969 5.3
    endloop
  endfacet
  facet normal 0.852271 0.5231 0
    outer loop
      vertex 87.5225 106.969 0
      vertex 87.7275 106.635 5.3
      vertex 87.7275 106.635 0
    endloop
  endfacet
  facet normal 0.972433 0.23318 0
    outer loop
      vertex 87.9692 105.891 5.3
      vertex 87.8776 106.273 0
      vertex 87.8776 106.273 5.3
    endloop
  endfacet
  facet normal 0.972433 0.23318 0
    outer loop
      vertex 87.8776 106.273 0
      vertex 87.9692 105.891 5.3
      vertex 87.9692 105.891 0
    endloop
  endfacet
  facet normal -0.0790178 0.996873 0
    outer loop
      vertex 2.5 108 0
      vertex 2.10891 107.969 5.3
      vertex 2.5 108 5.3
    endloop
  endfacet
  facet normal -0.0790178 0.996873 0
    outer loop
      vertex 2.10891 107.969 5.3
      vertex 2.5 108 0
      vertex 2.10891 107.969 0
    endloop
  endfacet
  facet normal 0.382352 0.924017 -0
    outer loop
      vertex 86.635 107.728 0
      vertex 86.2725 107.878 5.3
      vertex 86.635 107.728 5.3
    endloop
  endfacet
  facet normal 0.382352 0.924017 0
    outer loop
      vertex 86.2725 107.878 5.3
      vertex 86.635 107.728 0
      vertex 86.2725 107.878 0
    endloop
  endfacet
  facet normal 0.233477 -0.972362 0
    outer loop
      vertex 85.8911 0.0307789 0
      vertex 86.2725 0.122358 5.3
      vertex 85.8911 0.0307789 5.3
    endloop
  endfacet
  facet normal 0.233477 -0.972362 0
    outer loop
      vertex 86.2725 0.122358 5.3
      vertex 85.8911 0.0307789 0
      vertex 86.2725 0.122358 0
    endloop
  endfacet
  facet normal 0.996912 0.0785291 0
    outer loop
      vertex 88 105.5 5.3
      vertex 87.9692 105.891 0
      vertex 87.9692 105.891 5.3
    endloop
  endfacet
  facet normal 0.996912 0.0785291 0
    outer loop
      vertex 87.9692 105.891 0
      vertex 88 105.5 5.3
      vertex 88 105.5 0
    endloop
  endfacet
  facet normal -0.522507 -0.852635 0
    outer loop
      vertex 1.03054 0.477457 0
      vertex 1.36502 0.272483 5.3
      vertex 1.03054 0.477457 5.3
    endloop
  endfacet
  facet normal -0.522507 -0.852635 -0
    outer loop
      vertex 1.36502 0.272483 5.3
      vertex 1.03054 0.477457 0
      vertex 1.36502 0.272483 0
    endloop
  endfacet
  facet normal 0.649784 0.760119 -0
    outer loop
      vertex 87.2678 107.268 0
      vertex 86.9695 107.523 5.3
      vertex 87.2678 107.268 5.3
    endloop
  endfacet
  facet normal 0.649784 0.760119 0
    outer loop
      vertex 86.9695 107.523 5.3
      vertex 87.2678 107.268 0
      vertex 86.9695 107.523 0
    endloop
  endfacet
  facet normal -0.649442 -0.760411 0
    outer loop
      vertex 0.732232 0.732232 0
      vertex 1.03054 0.477457 5.3
      vertex 0.732232 0.732232 5.3
    endloop
  endfacet
  facet normal -0.649442 -0.760411 -0
    outer loop
      vertex 1.03054 0.477457 5.3
      vertex 0.732232 0.732232 0
      vertex 1.03054 0.477457 0
    endloop
  endfacet
  facet normal 0.92374 0.38302 0
    outer loop
      vertex 87.8776 106.273 5.3
      vertex 87.7275 106.635 0
      vertex 87.7275 106.635 5.3
    endloop
  endfacet
  facet normal 0.92374 0.38302 0
    outer loop
      vertex 87.7275 106.635 0
      vertex 87.8776 106.273 5.3
      vertex 87.8776 106.273 0
    endloop
  endfacet
  facet normal -0.761154 0.648572 0
    outer loop
      vertex 0.477457 106.969 0
      vertex 0.732232 107.268 5.3
      vertex 0.732232 107.268 0
    endloop
  endfacet
  facet normal -0.761154 0.648572 0
    outer loop
      vertex 0.732232 107.268 5.3
      vertex 0.477457 106.969 0
      vertex 0.477457 106.969 5.3
    endloop
  endfacet
  facet normal -0.852301 0.523052 0
    outer loop
      vertex 0.272483 106.635 0
      vertex 0.477457 106.969 5.3
      vertex 0.477457 106.969 0
    endloop
  endfacet
  facet normal -0.852301 0.523052 0
    outer loop
      vertex 0.477457 106.969 5.3
      vertex 0.272483 106.635 0
      vertex 0.272483 106.635 5.3
    endloop
  endfacet
  facet normal 0.522532 0.85262 -0
    outer loop
      vertex 86.9695 107.523 0
      vertex 86.635 107.728 5.3
      vertex 86.9695 107.523 5.3
    endloop
  endfacet
  facet normal 0.522532 0.85262 0
    outer loop
      vertex 86.635 107.728 5.3
      vertex 86.9695 107.523 0
      vertex 86.635 107.728 0
    endloop
  endfacet
  facet normal -0.649773 0.760128 0
    outer loop
      vertex 1.03054 107.523 0
      vertex 0.732232 107.268 5.3
      vertex 1.03054 107.523 5.3
    endloop
  endfacet
  facet normal -0.649773 0.760128 0
    outer loop
      vertex 0.732232 107.268 5.3
      vertex 1.03054 107.523 0
      vertex 0.732232 107.268 0
    endloop
  endfacet
  facet normal -0.852635 -0.522507 0
    outer loop
      vertex 0.477457 1.03054 0
      vertex 0.272483 1.36502 5.3
      vertex 0.272483 1.36502 0
    endloop
  endfacet
  facet normal -0.852635 -0.522507 0
    outer loop
      vertex 0.272483 1.36502 5.3
      vertex 0.477457 1.03054 0
      vertex 0.477457 1.03054 5.3
    endloop
  endfacet
  facet normal -0.923882 -0.382678 0
    outer loop
      vertex 0.272483 1.36502 0
      vertex 0.122358 1.72746 5.3
      vertex 0.122358 1.72746 0
    endloop
  endfacet
  facet normal -0.923882 -0.382678 0
    outer loop
      vertex 0.122358 1.72746 5.3
      vertex 0.272483 1.36502 0
      vertex 0.272483 1.36502 5.3
    endloop
  endfacet
  facet normal -0.233448 -0.972369 0
    outer loop
      vertex 1.72746 0.122358 0
      vertex 2.10891 0.0307789 5.3
      vertex 1.72746 0.122358 5.3
    endloop
  endfacet
  facet normal -0.233448 -0.972369 -0
    outer loop
      vertex 2.10891 0.0307789 5.3
      vertex 1.72746 0.122358 0
      vertex 2.10891 0.0307789 0
    endloop
  endfacet
  facet normal -0.923717 0.383075 0
    outer loop
      vertex 0.122358 106.273 0
      vertex 0.272483 106.635 5.3
      vertex 0.272483 106.635 0
    endloop
  endfacet
  facet normal -0.923717 0.383075 0
    outer loop
      vertex 0.272483 106.635 5.3
      vertex 0.122358 106.273 0
      vertex 0.122358 106.273 5.3
    endloop
  endfacet
  facet normal 0.522532 -0.85262 0
    outer loop
      vertex 11.6183 95.1135 0
      vertex 11.819 95.2365 2
      vertex 11.6183 95.1135 2
    endloop
  endfacet
  facet normal 0.522532 -0.85262 0
    outer loop
      vertex 11.819 95.2365 2
      vertex 11.6183 95.1135 0
      vertex 11.819 95.2365 0
    endloop
  endfacet
  facet normal -0.0786136 0.996905 0
    outer loop
      vertex 75.7346 12.6185 0
      vertex 75.5 12.6 2
      vertex 75.7346 12.6185 2
    endloop
  endfacet
  facet normal -0.0786136 0.996905 0
    outer loop
      vertex 75.5 12.6 2
      vertex 75.7346 12.6185 0
      vertex 75.5 12.6 0
    endloop
  endfacet
  facet normal 0 -1 0
    outer loop
      vertex 12.5 95.4 0
      vertex 75.5 95.4 2
      vertex 12.5 95.4 2
    endloop
  endfacet
  facet normal 0 -1 -0
    outer loop
      vertex 75.5 95.4 2
      vertex 12.5 95.4 0
      vertex 75.5 95.4 0
    endloop
  endfacet
  facet normal 0.85262 0.522532 0
    outer loop
      vertex 11.2865 13.2183 2
      vertex 11.1635 13.419 0
      vertex 11.1635 13.419 2
    endloop
  endfacet
  facet normal 0.85262 0.522532 0
    outer loop
      vertex 11.1635 13.419 0
      vertex 11.2865 13.2183 2
      vertex 11.2865 13.2183 0
    endloop
  endfacet
  facet normal -0.996908 0.0785803 0
    outer loop
      vertex 76.9815 13.8653 0
      vertex 77 14.1 2
      vertex 77 14.1 0
    endloop
  endfacet
  facet normal -0.996908 0.0785803 0
    outer loop
      vertex 77 14.1 2
      vertex 76.9815 13.8653 0
      vertex 76.9815 13.8653 2
    endloop
  endfacet
  facet normal 0 1 -0
    outer loop
      vertex 75.5 12.6 0
      vertex 12.5 12.6 2
      vertex 75.5 12.6 2
    endloop
  endfacet
  facet normal 0 1 0
    outer loop
      vertex 12.5 12.6 2
      vertex 75.5 12.6 0
      vertex 12.5 12.6 0
    endloop
  endfacet
  facet normal -0.923867 -0.382714 0
    outer loop
      vertex 76.9266 94.3635 0
      vertex 76.8365 94.581 2
      vertex 76.8365 94.581 0
    endloop
  endfacet
  facet normal -0.923867 -0.382714 0
    outer loop
      vertex 76.8365 94.581 2
      vertex 76.9266 94.3635 0
      vertex 76.9266 94.3635 2
    endloop
  endfacet
  facet normal -0.233228 -0.972422 0
    outer loop
      vertex 75.7346 95.3815 0
      vertex 75.9635 95.3266 2
      vertex 75.7346 95.3815 2
    endloop
  endfacet
  facet normal -0.233228 -0.972422 -0
    outer loop
      vertex 75.9635 95.3266 2
      vertex 75.7346 95.3815 0
      vertex 75.9635 95.3266 0
    endloop
  endfacet
  facet normal 0.760575 -0.64925 0
    outer loop
      vertex 11.2865 94.7817 2
      vertex 11.4393 94.9607 0
      vertex 11.4393 94.9607 2
    endloop
  endfacet
  facet normal 0.760575 -0.64925 0
    outer loop
      vertex 11.4393 94.9607 0
      vertex 11.2865 94.7817 2
      vertex 11.2865 94.7817 0
    endloop
  endfacet
  facet normal -1 0 0
    outer loop
      vertex 77 14.1 0
      vertex 77 93.9 2
      vertex 77 93.9 0
    endloop
  endfacet
  facet normal -1 -0 0
    outer loop
      vertex 77 93.9 2
      vertex 77 14.1 0
      vertex 77 14.1 2
    endloop
  endfacet
  facet normal -0.0786136 -0.996905 0
    outer loop
      vertex 75.5 95.4 0
      vertex 75.7346 95.3815 2
      vertex 75.5 95.4 2
    endloop
  endfacet
  facet normal -0.0786136 -0.996905 -0
    outer loop
      vertex 75.7346 95.3815 2
      vertex 75.5 95.4 0
      vertex 75.7346 95.3815 0
    endloop
  endfacet
  facet normal 0.760575 0.64925 0
    outer loop
      vertex 11.4393 13.0393 2
      vertex 11.2865 13.2183 0
      vertex 11.2865 13.2183 2
    endloop
  endfacet
  facet normal 0.760575 0.64925 0
    outer loop
      vertex 11.2865 13.2183 0
      vertex 11.4393 13.0393 2
      vertex 11.4393 13.0393 0
    endloop
  endfacet
  facet normal -0.972399 -0.233325 0
    outer loop
      vertex 76.9815 94.1347 0
      vertex 76.9266 94.3635 2
      vertex 76.9266 94.3635 0
    endloop
  endfacet
  facet normal -0.972399 -0.233325 0
    outer loop
      vertex 76.9266 94.3635 2
      vertex 76.9815 94.1347 0
      vertex 76.9815 94.1347 2
    endloop
  endfacet
  facet normal -0.382714 -0.923867 0
    outer loop
      vertex 75.9635 95.3266 0
      vertex 76.181 95.2365 2
      vertex 75.9635 95.3266 2
    endloop
  endfacet
  facet normal -0.382714 -0.923867 -0
    outer loop
      vertex 76.181 95.2365 2
      vertex 75.9635 95.3266 0
      vertex 76.181 95.2365 0
    endloop
  endfacet
  facet normal 0.64925 -0.760575 0
    outer loop
      vertex 11.4393 94.9607 0
      vertex 11.6183 95.1135 2
      vertex 11.4393 94.9607 2
    endloop
  endfacet
  facet normal 0.64925 -0.760575 0
    outer loop
      vertex 11.6183 95.1135 2
      vertex 11.4393 94.9607 0
      vertex 11.6183 95.1135 0
    endloop
  endfacet
  facet normal 1 -0 0
    outer loop
      vertex 11 14.1 2
      vertex 11 93.9 0
      vertex 11 93.9 2
    endloop
  endfacet
  facet normal 1 0 0
    outer loop
      vertex 11 93.9 0
      vertex 11 14.1 2
      vertex 11 14.1 0
    endloop
  endfacet
  facet normal -0.85262 -0.522532 0
    outer loop
      vertex 76.8365 94.581 0
      vertex 76.7135 94.7817 2
      vertex 76.7135 94.7817 0
    endloop
  endfacet
  facet normal -0.85262 -0.522532 0
    outer loop
      vertex 76.7135 94.7817 2
      vertex 76.8365 94.581 0
      vertex 76.8365 94.581 2
    endloop
  endfacet
  facet normal 0.382714 -0.923867 0
    outer loop
      vertex 11.819 95.2365 0
      vertex 12.0365 95.3266 2
      vertex 11.819 95.2365 2
    endloop
  endfacet
  facet normal 0.382714 -0.923867 0
    outer loop
      vertex 12.0365 95.3266 2
      vertex 11.819 95.2365 0
      vertex 12.0365 95.3266 0
    endloop
  endfacet
  facet normal -0.382714 0.923867 0
    outer loop
      vertex 76.181 12.7635 0
      vertex 75.9635 12.6734 2
      vertex 76.181 12.7635 2
    endloop
  endfacet
  facet normal -0.382714 0.923867 0
    outer loop
      vertex 75.9635 12.6734 2
      vertex 76.181 12.7635 0
      vertex 75.9635 12.6734 0
    endloop
  endfacet
  facet normal 0.972399 0.233325 0
    outer loop
      vertex 11.0734 13.6365 2
      vertex 11.0185 13.8653 0
      vertex 11.0185 13.8653 2
    endloop
  endfacet
  facet normal 0.972399 0.233325 0
    outer loop
      vertex 11.0185 13.8653 0
      vertex 11.0734 13.6365 2
      vertex 11.0734 13.6365 0
    endloop
  endfacet
  facet normal -0.522532 0.85262 0
    outer loop
      vertex 76.3817 12.8865 0
      vertex 76.181 12.7635 2
      vertex 76.3817 12.8865 2
    endloop
  endfacet
  facet normal -0.522532 0.85262 0
    outer loop
      vertex 76.181 12.7635 2
      vertex 76.3817 12.8865 0
      vertex 76.181 12.7635 0
    endloop
  endfacet
  facet normal 0.233325 0.972399 -0
    outer loop
      vertex 12.2653 12.6185 0
      vertex 12.0365 12.6734 2
      vertex 12.2653 12.6185 2
    endloop
  endfacet
  facet normal 0.233325 0.972399 0
    outer loop
      vertex 12.0365 12.6734 2
      vertex 12.2653 12.6185 0
      vertex 12.0365 12.6734 0
    endloop
  endfacet
  facet normal 0.233325 -0.972399 0
    outer loop
      vertex 12.0365 95.3266 0
      vertex 12.2653 95.3815 2
      vertex 12.0365 95.3266 2
    endloop
  endfacet
  facet normal 0.233325 -0.972399 0
    outer loop
      vertex 12.2653 95.3815 2
      vertex 12.0365 95.3266 0
      vertex 12.2653 95.3815 0
    endloop
  endfacet
  facet normal 0.382714 0.923867 -0
    outer loop
      vertex 12.0365 12.6734 0
      vertex 11.819 12.7635 2
      vertex 12.0365 12.6734 2
    endloop
  endfacet
  facet normal 0.382714 0.923867 0
    outer loop
      vertex 11.819 12.7635 2
      vertex 12.0365 12.6734 0
      vertex 11.819 12.7635 0
    endloop
  endfacet
  facet normal 0.972399 -0.233325 0
    outer loop
      vertex 11.0185 94.1347 2
      vertex 11.0734 94.3635 0
      vertex 11.0734 94.3635 2
    endloop
  endfacet
  facet normal 0.972399 -0.233325 0
    outer loop
      vertex 11.0734 94.3635 0
      vertex 11.0185 94.1347 2
      vertex 11.0185 94.1347 0
    endloop
  endfacet
  facet normal 0.996908 -0.0785803 0
    outer loop
      vertex 11 93.9 2
      vertex 11.0185 94.1347 0
      vertex 11.0185 94.1347 2
    endloop
  endfacet
  facet normal 0.996908 -0.0785803 0
    outer loop
      vertex 11.0185 94.1347 0
      vertex 11 93.9 2
      vertex 11 93.9 0
    endloop
  endfacet
  facet normal -0.64925 -0.760575 0
    outer loop
      vertex 76.3817 95.1135 0
      vertex 76.5607 94.9607 2
      vertex 76.3817 95.1135 2
    endloop
  endfacet
  facet normal -0.64925 -0.760575 -0
    outer loop
      vertex 76.5607 94.9607 2
      vertex 76.3817 95.1135 0
      vertex 76.5607 94.9607 0
    endloop
  endfacet
  facet normal 0.64925 0.760575 -0
    outer loop
      vertex 11.6183 12.8865 0
      vertex 11.4393 13.0393 2
      vertex 11.6183 12.8865 2
    endloop
  endfacet
  facet normal 0.64925 0.760575 0
    outer loop
      vertex 11.4393 13.0393 2
      vertex 11.6183 12.8865 0
      vertex 11.4393 13.0393 0
    endloop
  endfacet
  facet normal 0.0785803 0.996908 -0
    outer loop
      vertex 12.5 12.6 0
      vertex 12.2653 12.6185 2
      vertex 12.5 12.6 2
    endloop
  endfacet
  facet normal 0.0785803 0.996908 0
    outer loop
      vertex 12.2653 12.6185 2
      vertex 12.5 12.6 0
      vertex 12.2653 12.6185 0
    endloop
  endfacet
  facet normal 0.0785803 -0.996908 0
    outer loop
      vertex 12.2653 95.3815 0
      vertex 12.5 95.4 2
      vertex 12.2653 95.3815 2
    endloop
  endfacet
  facet normal 0.0785803 -0.996908 0
    outer loop
      vertex 12.5 95.4 2
      vertex 12.2653 95.3815 0
      vertex 12.5 95.4 0
    endloop
  endfacet
  facet normal -0.85262 0.522532 0
    outer loop
      vertex 76.7135 13.2183 0
      vertex 76.8365 13.419 2
      vertex 76.8365 13.419 0
    endloop
  endfacet
  facet normal -0.85262 0.522532 0
    outer loop
      vertex 76.8365 13.419 2
      vertex 76.7135 13.2183 0
      vertex 76.7135 13.2183 2
    endloop
  endfacet
  facet normal -0.64925 0.760575 0
    outer loop
      vertex 76.5607 13.0393 0
      vertex 76.3817 12.8865 2
      vertex 76.5607 13.0393 2
    endloop
  endfacet
  facet normal -0.64925 0.760575 0
    outer loop
      vertex 76.3817 12.8865 2
      vertex 76.5607 13.0393 0
      vertex 76.3817 12.8865 0
    endloop
  endfacet
  facet normal 0.923867 0.382714 0
    outer loop
      vertex 11.1635 13.419 2
      vertex 11.0734 13.6365 0
      vertex 11.0734 13.6365 2
    endloop
  endfacet
  facet normal 0.923867 0.382714 0
    outer loop
      vertex 11.0734 13.6365 0
      vertex 11.1635 13.419 2
      vertex 11.1635 13.419 0
    endloop
  endfacet
  facet normal 0.923867 -0.382714 0
    outer loop
      vertex 11.0734 94.3635 2
      vertex 11.1635 94.581 0
      vertex 11.1635 94.581 2
    endloop
  endfacet
  facet normal 0.923867 -0.382714 0
    outer loop
      vertex 11.1635 94.581 0
      vertex 11.0734 94.3635 2
      vertex 11.0734 94.3635 0
    endloop
  endfacet
  facet normal -0.760575 -0.64925 0
    outer loop
      vertex 76.7135 94.7817 0
      vertex 76.5607 94.9607 2
      vertex 76.5607 94.9607 0
    endloop
  endfacet
  facet normal -0.760575 -0.64925 0
    outer loop
      vertex 76.5607 94.9607 2
      vertex 76.7135 94.7817 0
      vertex 76.7135 94.7817 2
    endloop
  endfacet
  facet normal 0.85262 -0.522532 0
    outer loop
      vertex 11.1635 94.581 2
      vertex 11.2865 94.7817 0
      vertex 11.2865 94.7817 2
    endloop
  endfacet
  facet normal 0.85262 -0.522532 0
    outer loop
      vertex 11.2865 94.7817 0
      vertex 11.1635 94.581 2
      vertex 11.1635 94.581 0
    endloop
  endfacet
  facet normal -0.923867 0.382714 0
    outer loop
      vertex 76.8365 13.419 0
      vertex 76.9266 13.6365 2
      vertex 76.9266 13.6365 0
    endloop
  endfacet
  facet normal -0.923867 0.382714 0
    outer loop
      vertex 76.9266 13.6365 2
      vertex 76.8365 13.419 0
      vertex 76.8365 13.419 2
    endloop
  endfacet
  facet normal -0.996908 -0.0785803 0
    outer loop
      vertex 77 93.9 0
      vertex 76.9815 94.1347 2
      vertex 76.9815 94.1347 0
    endloop
  endfacet
  facet normal -0.996908 -0.0785803 0
    outer loop
      vertex 76.9815 94.1347 2
      vertex 77 93.9 0
      vertex 77 93.9 2
    endloop
  endfacet
  facet normal 0.522532 0.85262 -0
    outer loop
      vertex 11.819 12.7635 0
      vertex 11.6183 12.8865 2
      vertex 11.819 12.7635 2
    endloop
  endfacet
  facet normal 0.522532 0.85262 0
    outer loop
      vertex 11.6183 12.8865 2
      vertex 11.819 12.7635 0
      vertex 11.6183 12.8865 0
    endloop
  endfacet
  facet normal -0.760575 0.64925 0
    outer loop
      vertex 76.5607 13.0393 0
      vertex 76.7135 13.2183 2
      vertex 76.7135 13.2183 0
    endloop
  endfacet
  facet normal -0.760575 0.64925 0
    outer loop
      vertex 76.7135 13.2183 2
      vertex 76.5607 13.0393 0
      vertex 76.5607 13.0393 2
    endloop
  endfacet
  facet normal -0.522532 -0.85262 0
    outer loop
      vertex 76.181 95.2365 0
      vertex 76.3817 95.1135 2
      vertex 76.181 95.2365 2
    endloop
  endfacet
  facet normal -0.522532 -0.85262 -0
    outer loop
      vertex 76.3817 95.1135 2
      vertex 76.181 95.2365 0
      vertex 76.3817 95.1135 0
    endloop
  endfacet
  facet normal -0.972399 0.233325 0
    outer loop
      vertex 76.9266 13.6365 0
      vertex 76.9815 13.8653 2
      vertex 76.9815 13.8653 0
    endloop
  endfacet
  facet normal -0.972399 0.233325 0
    outer loop
      vertex 76.9815 13.8653 2
      vertex 76.9266 13.6365 0
      vertex 76.9266 13.6365 2
    endloop
  endfacet
  facet normal -0.233228 0.972422 0
    outer loop
      vertex 75.9635 12.6734 0
      vertex 75.7346 12.6185 2
      vertex 75.9635 12.6734 2
    endloop
  endfacet
  facet normal -0.233228 0.972422 0
    outer loop
      vertex 75.7346 12.6185 2
      vertex 75.9635 12.6734 0
      vertex 75.7346 12.6185 0
    endloop
  endfacet
  facet normal 0.996908 0.0785803 0
    outer loop
      vertex 11.0185 13.8653 2
      vertex 11 14.1 0
      vertex 11 14.1 2
    endloop
  endfacet
  facet normal 0.996908 0.0785803 0
    outer loop
      vertex 11 14.1 0
      vertex 11.0185 13.8653 2
      vertex 11.0185 13.8653 0
    endloop
  endfacet
  facet normal -1 0 0
    outer loop
      vertex 80.8 2.2 2
      vertex 80.8 105.8 5.3
      vertex 80.8 105.8 2
    endloop
  endfacet
  facet normal -1 -0 0
    outer loop
      vertex 80.8 105.8 5.3
      vertex 80.8 2.2 2
      vertex 80.8 2.2 5.3
    endloop
  endfacet
  facet normal -0 0 1
    outer loop
      vertex 3 69.45 2
      vertex 4 41.4 2
      vertex 4 69.45 2
    endloop
  endfacet
  facet normal 0 0 1
    outer loop
      vertex 4 41.4 2
      vertex 3 69.45 2
      vertex 3 41.4 2
    endloop
  endfacet
  facet normal -0 0 1
    outer loop
      vertex 78.5 69.45 2
      vertex 79.5 41.4 2
      vertex 79.5 69.45 2
    endloop
  endfacet
  facet normal 0 0 1
    outer loop
      vertex 79.5 41.4 2
      vertex 78.5 69.45 2
      vertex 78.5 41.4 2
    endloop
  endfacet
  facet normal 0 0 1
    outer loop
      vertex 79.5 69.45 2
      vertex 80.8 105.8 2
      vertex 79.5 77.45 2
    endloop
  endfacet
  facet normal -0 0 1
    outer loop
      vertex 77 93.9 2
      vertex 79.5 77.45 2
      vertex 80.8 105.8 2
    endloop
  endfacet
  facet normal 0 0 1
    outer loop
      vertex 77 93.9 2
      vertex 78.5 69.45 2
      vertex 78.5 77.45 2
    endloop
  endfacet
  facet normal 0 0 1
    outer loop
      vertex 78.5 69.45 2
      vertex 77 93.9 2
      vertex 78.5 41.4 2
    endloop
  endfacet
  facet normal 0 0 1
    outer loop
      vertex 77 14.1 2
      vertex 78.5 41.4 2
      vertex 77 93.9 2
    endloop
  endfacet
  facet normal 0 0 1
    outer loop
      vertex 79.5 77.45 2
      vertex 77 93.9 2
      vertex 78.5 77.45 2
    endloop
  endfacet
  facet normal 0 0 1
    outer loop
      vertex 80.8 105.8 2
      vertex 76.9815 94.1347 2
      vertex 77 93.9 2
    endloop
  endfacet
  facet normal 0 0 1
    outer loop
      vertex 80.8 105.8 2
      vertex 76.9266 94.3635 2
      vertex 76.9815 94.1347 2
    endloop
  endfacet
  facet normal 0 0 1
    outer loop
      vertex 80.8 105.8 2
      vertex 76.8365 94.581 2
      vertex 76.9266 94.3635 2
    endloop
  endfacet
  facet normal 0 0 1
    outer loop
      vertex 80.8 105.8 2
      vertex 76.7135 94.7817 2
      vertex 76.8365 94.581 2
    endloop
  endfacet
  facet normal 0 0 1
    outer loop
      vertex 80.8 105.8 2
      vertex 76.5607 94.9607 2
      vertex 76.7135 94.7817 2
    endloop
  endfacet
  facet normal 0 0 1
    outer loop
      vertex 80.8 105.8 2
      vertex 76.3817 95.1135 2
      vertex 76.5607 94.9607 2
    endloop
  endfacet
  facet normal 0 0 1
    outer loop
      vertex 80.8 105.8 2
      vertex 76.181 95.2365 2
      vertex 76.3817 95.1135 2
    endloop
  endfacet
  facet normal 0 0 1
    outer loop
      vertex 80.8 105.8 2
      vertex 75.9635 95.3266 2
      vertex 76.181 95.2365 2
    endloop
  endfacet
  facet normal 0 0 1
    outer loop
      vertex 80.8 105.8 2
      vertex 75.7346 95.3815 2
      vertex 75.9635 95.3266 2
    endloop
  endfacet
  facet normal 0 0 1
    outer loop
      vertex 80.8 105.8 2
      vertex 75.5 95.4 2
      vertex 75.7346 95.3815 2
    endloop
  endfacet
  facet normal 0 0 1
    outer loop
      vertex 80.8 105.8 2
      vertex 57.1 104.5 2
      vertex 75.5 95.4 2
    endloop
  endfacet
  facet normal 0 0 1
    outer loop
      vertex 80.8 105.8 2
      vertex 49.1 104.5 2
      vertex 57.1 104.5 2
    endloop
  endfacet
  facet normal 0 0 1
    outer loop
      vertex 49.1 104.5 2
      vertex 33.55 104.5 2
      vertex 49.1 103.5 2
    endloop
  endfacet
  facet normal 0 0 1
    outer loop
      vertex 80.8 105.8 2
      vertex 33.55 104.5 2
      vertex 49.1 104.5 2
    endloop
  endfacet
  facet normal -0 0 1
    outer loop
      vertex 1.7 105.8 2
      vertex 33.55 104.5 2
      vertex 80.8 105.8 2
    endloop
  endfacet
  facet normal 0 0 1
    outer loop
      vertex 25.55 104.5 2
      vertex 12.5 95.4 2
      vertex 25.55 103.5 2
    endloop
  endfacet
  facet normal 0 0 1
    outer loop
      vertex 1.7 105.8 2
      vertex 12.5 95.4 2
      vertex 25.55 104.5 2
    endloop
  endfacet
  facet normal 0 0 1
    outer loop
      vertex 12.5 95.4 2
      vertex 1.7 105.8 2
      vertex 12.2653 95.3815 2
    endloop
  endfacet
  facet normal 0 0 1
    outer loop
      vertex 12.2653 95.3815 2
      vertex 1.7 105.8 2
      vertex 12.0365 95.3266 2
    endloop
  endfacet
  facet normal 0 0 1
    outer loop
      vertex 12.0365 95.3266 2
      vertex 1.7 105.8 2
      vertex 11.819 95.2365 2
    endloop
  endfacet
  facet normal 0 0 1
    outer loop
      vertex 4 69.45 2
      vertex 11 93.9 2
      vertex 4 77.45 2
    endloop
  endfacet
  facet normal 0 0 1
    outer loop
      vertex 1.7 105.8 2
      vertex 11 93.9 2
      vertex 11.0185 94.1347 2
    endloop
  endfacet
  facet normal 0 0 1
    outer loop
      vertex 1.7 105.8 2
      vertex 11.0185 94.1347 2
      vertex 11.0734 94.3635 2
    endloop
  endfacet
  facet normal 0 0 1
    outer loop
      vertex 1.7 105.8 2
      vertex 11.0734 94.3635 2
      vertex 11.1635 94.581 2
    endloop
  endfacet
  facet normal 0 0 1
    outer loop
      vertex 11 93.9 2
      vertex 3 77.45 2
      vertex 4 77.45 2
    endloop
  endfacet
  facet normal 0 0 1
    outer loop
      vertex 1.7 105.8 2
      vertex 3 69.45 2
      vertex 3 77.45 2
    endloop
  endfacet
  facet normal 0 0 1
    outer loop
      vertex 3 69.45 2
      vertex 1.7 105.8 2
      vertex 3 41.4 2
    endloop
  endfacet
  facet normal 0 0 1
    outer loop
      vertex 1.7 2.2 2
      vertex 3 41.4 2
      vertex 1.7 105.8 2
    endloop
  endfacet
  facet normal 0 0 1
    outer loop
      vertex 11 93.9 2
      vertex 1.7 105.8 2
      vertex 3 77.45 2
    endloop
  endfacet
  facet normal 0 0 1
    outer loop
      vertex 11.2865 94.7817 2
      vertex 1.7 105.8 2
      vertex 11.1635 94.581 2
    endloop
  endfacet
  facet normal 0 0 1
    outer loop
      vertex 11.4393 94.9607 2
      vertex 1.7 105.8 2
      vertex 11.2865 94.7817 2
    endloop
  endfacet
  facet normal 0 0 1
    outer loop
      vertex 11.6183 95.1135 2
      vertex 1.7 105.8 2
      vertex 11.4393 94.9607 2
    endloop
  endfacet
  facet normal 0 0 1
    outer loop
      vertex 11.819 95.2365 2
      vertex 1.7 105.8 2
      vertex 11.6183 95.1135 2
    endloop
  endfacet
  facet normal 0 0 1
    outer loop
      vertex 33.55 104.5 2
      vertex 1.7 105.8 2
      vertex 25.55 104.5 2
    endloop
  endfacet
  facet normal 0 0 1
    outer loop
      vertex 80.8 105.8 2
      vertex 79.5 69.45 2
      vertex 80.8 2.2 2
    endloop
  endfacet
  facet normal -0 0 1
    outer loop
      vertex 79.5 41.4 2
      vertex 80.8 2.2 2
      vertex 79.5 69.45 2
    endloop
  endfacet
  facet normal -0 0 1
    outer loop
      vertex 79.5 33.4 2
      vertex 80.8 2.2 2
      vertex 79.5 41.4 2
    endloop
  endfacet
  facet normal 0 0 1
    outer loop
      vertex 77 14.1 2
      vertex 79.5 33.4 2
      vertex 78.5 33.4 2
    endloop
  endfacet
  facet normal 0 0 1
    outer loop
      vertex 78.5 41.4 2
      vertex 77 14.1 2
      vertex 78.5 33.4 2
    endloop
  endfacet
  facet normal 0 0 1
    outer loop
      vertex 79.5 33.4 2
      vertex 77 14.1 2
      vertex 80.8 2.2 2
    endloop
  endfacet
  facet normal -0 0 1
    outer loop
      vertex 76.9815 13.8653 2
      vertex 80.8 2.2 2
      vertex 77 14.1 2
    endloop
  endfacet
  facet normal -0 0 1
    outer loop
      vertex 76.9266 13.6365 2
      vertex 80.8 2.2 2
      vertex 76.9815 13.8653 2
    endloop
  endfacet
  facet normal -0 0 1
    outer loop
      vertex 76.8365 13.419 2
      vertex 80.8 2.2 2
      vertex 76.9266 13.6365 2
    endloop
  endfacet
  facet normal -0 0 1
    outer loop
      vertex 76.7135 13.2183 2
      vertex 80.8 2.2 2
      vertex 76.8365 13.419 2
    endloop
  endfacet
  facet normal -0 0 1
    outer loop
      vertex 76.5607 13.0393 2
      vertex 80.8 2.2 2
      vertex 76.7135 13.2183 2
    endloop
  endfacet
  facet normal -0 0 1
    outer loop
      vertex 76.3817 12.8865 2
      vertex 80.8 2.2 2
      vertex 76.5607 13.0393 2
    endloop
  endfacet
  facet normal -0 0 1
    outer loop
      vertex 76.181 12.7635 2
      vertex 80.8 2.2 2
      vertex 76.3817 12.8865 2
    endloop
  endfacet
  facet normal -0 0 1
    outer loop
      vertex 75.9635 12.6734 2
      vertex 80.8 2.2 2
      vertex 76.181 12.7635 2
    endloop
  endfacet
  facet normal -0 0 1
    outer loop
      vertex 75.7346 12.6185 2
      vertex 80.8 2.2 2
      vertex 75.9635 12.6734 2
    endloop
  endfacet
  facet normal -0 0 1
    outer loop
      vertex 75.5 12.6 2
      vertex 80.8 2.2 2
      vertex 75.7346 12.6185 2
    endloop
  endfacet
  facet normal 0 0 1
    outer loop
      vertex 75.5 12.6 2
      vertex 61.5 2.2 2
      vertex 80.8 2.2 2
    endloop
  endfacet
  facet normal 0 0 1
    outer loop
      vertex 61.5 2.2 2
      vertex 26.5 2.2 2
      vertex 61.5 0 2
    endloop
  endfacet
  facet normal 0 0 1
    outer loop
      vertex 75.5 12.6 2
      vertex 26.5 2.2 2
      vertex 61.5 2.2 2
    endloop
  endfacet
  facet normal -0 0 1
    outer loop
      vertex 12.5 12.6 2
      vertex 26.5 2.2 2
      vertex 75.5 12.6 2
    endloop
  endfacet
  facet normal 0 0 1
    outer loop
      vertex 1.7 2.2 2
      vertex 12.5 12.6 2
      vertex 12.2653 12.6185 2
    endloop
  endfacet
  facet normal 0 0 1
    outer loop
      vertex 1.7 2.2 2
      vertex 12.2653 12.6185 2
      vertex 12.0365 12.6734 2
    endloop
  endfacet
  facet normal 0 0 1
    outer loop
      vertex 1.7 2.2 2
      vertex 12.0365 12.6734 2
      vertex 11.819 12.7635 2
    endloop
  endfacet
  facet normal 0 0 1
    outer loop
      vertex 1.7 2.2 2
      vertex 11.819 12.7635 2
      vertex 11.6183 12.8865 2
    endloop
  endfacet
  facet normal 0 0 1
    outer loop
      vertex 4 41.4 2
      vertex 11 93.9 2
      vertex 4 69.45 2
    endloop
  endfacet
  facet normal 0 0 1
    outer loop
      vertex 11 93.9 2
      vertex 4 41.4 2
      vertex 11 14.1 2
    endloop
  endfacet
  facet normal -0 0 1
    outer loop
      vertex 4 33.4 2
      vertex 11 14.1 2
      vertex 4 41.4 2
    endloop
  endfacet
  facet normal -0 0 1
    outer loop
      vertex 3 33.4 2
      vertex 11 14.1 2
      vertex 4 33.4 2
    endloop
  endfacet
  facet normal 0 0 1
    outer loop
      vertex 1.7 2.2 2
      vertex 11 14.1 2
      vertex 3 33.4 2
    endloop
  endfacet
  facet normal 0 0 1
    outer loop
      vertex 11 14.1 2
      vertex 1.7 2.2 2
      vertex 11.0185 13.8653 2
    endloop
  endfacet
  facet normal 0 0 1
    outer loop
      vertex 12.5 12.6 2
      vertex 1.7 2.2 2
      vertex 26.5 2.2 2
    endloop
  endfacet
  facet normal 0 0 1
    outer loop
      vertex 11.4393 13.0393 2
      vertex 1.7 2.2 2
      vertex 11.6183 12.8865 2
    endloop
  endfacet
  facet normal 0 0 1
    outer loop
      vertex 11.2865 13.2183 2
      vertex 1.7 2.2 2
      vertex 11.4393 13.0393 2
    endloop
  endfacet
  facet normal 0 0 1
    outer loop
      vertex 11.1635 13.419 2
      vertex 1.7 2.2 2
      vertex 11.2865 13.2183 2
    endloop
  endfacet
  facet normal 0 0 1
    outer loop
      vertex 11.0734 13.6365 2
      vertex 1.7 2.2 2
      vertex 11.1635 13.419 2
    endloop
  endfacet
  facet normal 0 0 1
    outer loop
      vertex 11.0185 13.8653 2
      vertex 1.7 2.2 2
      vertex 11.0734 13.6365 2
    endloop
  endfacet
  facet normal 0 0 1
    outer loop
      vertex 3 41.4 2
      vertex 1.7 2.2 2
      vertex 3 33.4 2
    endloop
  endfacet
  facet normal -0 0 1
    outer loop
      vertex 57.1 103.5 2
      vertex 75.5 95.4 2
      vertex 57.1 104.5 2
    endloop
  endfacet
  facet normal -0 0 1
    outer loop
      vertex 49.1 103.5 2
      vertex 75.5 95.4 2
      vertex 57.1 103.5 2
    endloop
  endfacet
  facet normal 0 0 1
    outer loop
      vertex 33.55 103.5 2
      vertex 49.1 103.5 2
      vertex 33.55 104.5 2
    endloop
  endfacet
  facet normal 0 0 1
    outer loop
      vertex 12.5 95.4 2
      vertex 49.1 103.5 2
      vertex 33.55 103.5 2
    endloop
  endfacet
  facet normal 0 0 1
    outer loop
      vertex 12.5 95.4 2
      vertex 33.55 103.5 2
      vertex 25.55 103.5 2
    endloop
  endfacet
  facet normal 0 0 1
    outer loop
      vertex 49.1 103.5 2
      vertex 12.5 95.4 2
      vertex 75.5 95.4 2
    endloop
  endfacet
  facet normal 0 0 1
    outer loop
      vertex 61.5 0 2
      vertex 26.5 2.2 2
      vertex 26.5 0 2
    endloop
  endfacet
  facet normal 1 -0 0
    outer loop
      vertex 1.7 2.2 5.3
      vertex 1.7 105.8 2
      vertex 1.7 105.8 5.3
    endloop
  endfacet
  facet normal 1 0 0
    outer loop
      vertex 1.7 105.8 2
      vertex 1.7 2.2 5.3
      vertex 1.7 2.2 2
    endloop
  endfacet
  facet normal 0 -1 0
    outer loop
      vertex 1.7 105.8 2
      vertex 80.8 105.8 5.3
      vertex 1.7 105.8 5.3
    endloop
  endfacet
  facet normal 0 -1 -0
    outer loop
      vertex 80.8 105.8 5.3
      vertex 1.7 105.8 2
      vertex 80.8 105.8 2
    endloop
  endfacet
  facet normal 0 1 -0
    outer loop
      vertex 80.8 2.2 2
      vertex 61.5 2.2 5.3
      vertex 80.8 2.2 5.3
    endloop
  endfacet
  facet normal 0 1 0
    outer loop
      vertex 61.5 2.2 5.3
      vertex 80.8 2.2 2
      vertex 61.5 2.2 2
    endloop
  endfacet
  facet normal 0 1 -0
    outer loop
      vertex 26.5 2.2 2
      vertex 1.7 2.2 5.3
      vertex 26.5 2.2 5.3
    endloop
  endfacet
  facet normal 0 1 0
    outer loop
      vertex 1.7 2.2 5.3
      vertex 26.5 2.2 2
      vertex 1.7 2.2 2
    endloop
  endfacet
  facet normal -1 0 0
    outer loop
      vertex 61.5 0 2
      vertex 61.5 2.2 5.3
      vertex 61.5 2.2 2
    endloop
  endfacet
  facet normal -1 -0 0
    outer loop
      vertex 61.5 2.2 5.3
      vertex 61.5 0 2
      vertex 61.5 0 5.3
    endloop
  endfacet
  facet normal 1 -0 0
    outer loop
      vertex 26.5 0 5.3
      vertex 26.5 2.2 2
      vertex 26.5 2.2 5.3
    endloop
  endfacet
  facet normal 1 0 0
    outer loop
      vertex 26.5 2.2 2
      vertex 26.5 0 5.3
      vertex 26.5 0 2
    endloop
  endfacet
  facet normal 1 -0 0
    outer loop
      vertex 4 33.4 3.5
      vertex 4 41.4 2
      vertex 4 41.4 3.5
    endloop
  endfacet
  facet normal 1 0 0
    outer loop
      vertex 4 41.4 2
      vertex 4 33.4 3.5
      vertex 4 33.4 2
    endloop
  endfacet
  facet normal -0 0 1
    outer loop
      vertex 3 41.4 3.5
      vertex 4 33.4 3.5
      vertex 4 41.4 3.5
    endloop
  endfacet
  facet normal 0 0 1
    outer loop
      vertex 4 33.4 3.5
      vertex 3 41.4 3.5
      vertex 3 33.4 3.5
    endloop
  endfacet
  facet normal -1 0 0
    outer loop
      vertex 3 33.4 2
      vertex 3 41.4 3.5
      vertex 3 41.4 2
    endloop
  endfacet
  facet normal -1 -0 0
    outer loop
      vertex 3 41.4 3.5
      vertex 3 33.4 2
      vertex 3 33.4 3.5
    endloop
  endfacet
  facet normal 0 1 -0
    outer loop
      vertex 4 41.4 2
      vertex 3 41.4 3.5
      vertex 4 41.4 3.5
    endloop
  endfacet
  facet normal 0 1 0
    outer loop
      vertex 3 41.4 3.5
      vertex 4 41.4 2
      vertex 3 41.4 2
    endloop
  endfacet
  facet normal 0 -1 0
    outer loop
      vertex 3 33.4 2
      vertex 4 33.4 3.5
      vertex 3 33.4 3.5
    endloop
  endfacet
  facet normal 0 -1 -0
    outer loop
      vertex 4 33.4 3.5
      vertex 3 33.4 2
      vertex 4 33.4 2
    endloop
  endfacet
  facet normal 1 -0 0
    outer loop
      vertex 4 69.45 3.5
      vertex 4 77.45 2
      vertex 4 77.45 3.5
    endloop
  endfacet
  facet normal 1 0 0
    outer loop
      vertex 4 77.45 2
      vertex 4 69.45 3.5
      vertex 4 69.45 2
    endloop
  endfacet
  facet normal -0 0 1
    outer loop
      vertex 3 77.45 3.5
      vertex 4 69.45 3.5
      vertex 4 77.45 3.5
    endloop
  endfacet
  facet normal 0 0 1
    outer loop
      vertex 4 69.45 3.5
      vertex 3 77.45 3.5
      vertex 3 69.45 3.5
    endloop
  endfacet
  facet normal -1 0 0
    outer loop
      vertex 3 69.45 2
      vertex 3 77.45 3.5
      vertex 3 77.45 2
    endloop
  endfacet
  facet normal -1 -0 0
    outer loop
      vertex 3 77.45 3.5
      vertex 3 69.45 2
      vertex 3 69.45 3.5
    endloop
  endfacet
  facet normal 0 1 -0
    outer loop
      vertex 4 77.45 2
      vertex 3 77.45 3.5
      vertex 4 77.45 3.5
    endloop
  endfacet
  facet normal 0 1 0
    outer loop
      vertex 3 77.45 3.5
      vertex 4 77.45 2
      vertex 3 77.45 2
    endloop
  endfacet
  facet normal 0 -1 0
    outer loop
      vertex 3 69.45 2
      vertex 4 69.45 3.5
      vertex 3 69.45 3.5
    endloop
  endfacet
  facet normal 0 -1 -0
    outer loop
      vertex 4 69.45 3.5
      vertex 3 69.45 2
      vertex 4 69.45 2
    endloop
  endfacet
  facet normal 1 -0 0
    outer loop
      vertex 79.5 33.4 3.5
      vertex 79.5 41.4 2
      vertex 79.5 41.4 3.5
    endloop
  endfacet
  facet normal 1 0 0
    outer loop
      vertex 79.5 41.4 2
      vertex 79.5 33.4 3.5
      vertex 79.5 33.4 2
    endloop
  endfacet
  facet normal -0 0 1
    outer loop
      vertex 78.5 41.4 3.5
      vertex 79.5 33.4 3.5
      vertex 79.5 41.4 3.5
    endloop
  endfacet
  facet normal 0 0 1
    outer loop
      vertex 79.5 33.4 3.5
      vertex 78.5 41.4 3.5
      vertex 78.5 33.4 3.5
    endloop
  endfacet
  facet normal -1 0 0
    outer loop
      vertex 78.5 33.4 2
      vertex 78.5 41.4 3.5
      vertex 78.5 41.4 2
    endloop
  endfacet
  facet normal -1 -0 0
    outer loop
      vertex 78.5 41.4 3.5
      vertex 78.5 33.4 2
      vertex 78.5 33.4 3.5
    endloop
  endfacet
  facet normal 0 1 -0
    outer loop
      vertex 79.5 41.4 2
      vertex 78.5 41.4 3.5
      vertex 79.5 41.4 3.5
    endloop
  endfacet
  facet normal 0 1 0
    outer loop
      vertex 78.5 41.4 3.5
      vertex 79.5 41.4 2
      vertex 78.5 41.4 2
    endloop
  endfacet
  facet normal 0 -1 0
    outer loop
      vertex 78.5 33.4 2
      vertex 79.5 33.4 3.5
      vertex 78.5 33.4 3.5
    endloop
  endfacet
  facet normal 0 -1 -0
    outer loop
      vertex 79.5 33.4 3.5
      vertex 78.5 33.4 2
      vertex 79.5 33.4 2
    endloop
  endfacet
  facet normal 1 -0 0
    outer loop
      vertex 79.5 69.45 3.5
      vertex 79.5 77.45 2
      vertex 79.5 77.45 3.5
    endloop
  endfacet
  facet normal 1 0 0
    outer loop
      vertex 79.5 77.45 2
      vertex 79.5 69.45 3.5
      vertex 79.5 69.45 2
    endloop
  endfacet
  facet normal -0 0 1
    outer loop
      vertex 78.5 77.45 3.5
      vertex 79.5 69.45 3.5
      vertex 79.5 77.45 3.5
    endloop
  endfacet
  facet normal 0 0 1
    outer loop
      vertex 79.5 69.45 3.5
      vertex 78.5 77.45 3.5
      vertex 78.5 69.45 3.5
    endloop
  endfacet
  facet normal -1 0 0
    outer loop
      vertex 78.5 69.45 2
      vertex 78.5 77.45 3.5
      vertex 78.5 77.45 2
    endloop
  endfacet
  facet normal -1 -0 0
    outer loop
      vertex 78.5 77.45 3.5
      vertex 78.5 69.45 2
      vertex 78.5 69.45 3.5
    endloop
  endfacet
  facet normal 0 1 -0
    outer loop
      vertex 79.5 77.45 2
      vertex 78.5 77.45 3.5
      vertex 79.5 77.45 3.5
    endloop
  endfacet
  facet normal 0 1 0
    outer loop
      vertex 78.5 77.45 3.5
      vertex 79.5 77.45 2
      vertex 78.5 77.45 2
    endloop
  endfacet
  facet normal 0 -1 0
    outer loop
      vertex 78.5 69.45 2
      vertex 79.5 69.45 3.5
      vertex 78.5 69.45 3.5
    endloop
  endfacet
  facet normal 0 -1 -0
    outer loop
      vertex 79.5 69.45 3.5
      vertex 78.5 69.45 2
      vertex 79.5 69.45 2
    endloop
  endfacet
  facet normal 1 -0 0
    outer loop
      vertex 33.55 103.5 3.5
      vertex 33.55 104.5 2
      vertex 33.55 104.5 3.5
    endloop
  endfacet
  facet normal 1 0 0
    outer loop
      vertex 33.55 104.5 2
      vertex 33.55 103.5 3.5
      vertex 33.55 103.5 2
    endloop
  endfacet
  facet normal -0 0 1
    outer loop
      vertex 25.55 104.5 3.5
      vertex 33.55 103.5 3.5
      vertex 33.55 104.5 3.5
    endloop
  endfacet
  facet normal 0 0 1
    outer loop
      vertex 33.55 103.5 3.5
      vertex 25.55 104.5 3.5
      vertex 25.55 103.5 3.5
    endloop
  endfacet
  facet normal -1 0 0
    outer loop
      vertex 25.55 103.5 2
      vertex 25.55 104.5 3.5
      vertex 25.55 104.5 2
    endloop
  endfacet
  facet normal -1 -0 0
    outer loop
      vertex 25.55 104.5 3.5
      vertex 25.55 103.5 2
      vertex 25.55 103.5 3.5
    endloop
  endfacet
  facet normal 0 1 -0
    outer loop
      vertex 33.55 104.5 2
      vertex 25.55 104.5 3.5
      vertex 33.55 104.5 3.5
    endloop
  endfacet
  facet normal 0 1 0
    outer loop
      vertex 25.55 104.5 3.5
      vertex 33.55 104.5 2
      vertex 25.55 104.5 2
    endloop
  endfacet
  facet normal 0 -1 0
    outer loop
      vertex 25.55 103.5 2
      vertex 33.55 103.5 3.5
      vertex 25.55 103.5 3.5
    endloop
  endfacet
  facet normal 0 -1 -0
    outer loop
      vertex 33.55 103.5 3.5
      vertex 25.55 103.5 2
      vertex 33.55 103.5 2
    endloop
  endfacet
  facet normal 1 -0 0
    outer loop
      vertex 57.1 103.5 3.5
      vertex 57.1 104.5 2
      vertex 57.1 104.5 3.5
    endloop
  endfacet
  facet normal 1 0 0
    outer loop
      vertex 57.1 104.5 2
      vertex 57.1 103.5 3.5
      vertex 57.1 103.5 2
    endloop
  endfacet
  facet normal -0 0 1
    outer loop
      vertex 49.1 104.5 3.5
      vertex 57.1 103.5 3.5
      vertex 57.1 104.5 3.5
    endloop
  endfacet
  facet normal 0 0 1
    outer loop
      vertex 57.1 103.5 3.5
      vertex 49.1 104.5 3.5
      vertex 49.1 103.5 3.5
    endloop
  endfacet
  facet normal -1 0 0
    outer loop
      vertex 49.1 103.5 2
      vertex 49.1 104.5 3.5
      vertex 49.1 104.5 2
    endloop
  endfacet
  facet normal -1 -0 0
    outer loop
      vertex 49.1 104.5 3.5
      vertex 49.1 103.5 2
      vertex 49.1 103.5 3.5
    endloop
  endfacet
  facet normal 0 1 -0
    outer loop
      vertex 57.1 104.5 2
      vertex 49.1 104.5 3.5
      vertex 57.1 104.5 3.5
    endloop
  endfacet
  facet normal 0 1 0
    outer loop
      vertex 49.1 104.5 3.5
      vertex 57.1 104.5 2
      vertex 49.1 104.5 2
    endloop
  endfacet
  facet normal 0 -1 0
    outer loop
      vertex 49.1 103.5 2
      vertex 57.1 103.5 3.5
      vertex 49.1 103.5 3.5
    endloop
  endfacet
  facet normal 0 -1 -0
    outer loop
      vertex 57.1 103.5 3.5
      vertex 49.1 103.5 2
      vertex 57.1 103.5 2
    endloop
  endfacet
endsolid OpenSCAD_Model
